<svg xmlns="http://www.w3.org/2000/svg"  viewBox="0 0 48 48" width="30px" height="30px"><polygon fill="#0d91d6" points="24,6 17.99,12.35 11.97,18.69 6,25 6,6"/><polygon fill="#f88909" points="24,6 23.96,6 17.97,12.33 11.96,18.68 6,24.97 6,25 6,25.09 6,42 14.69,33.31 20.87,27.13 27.06,20.94 33.25,14.75 42,6"/><polygon fill="#c757bc" points="14.69,33.31 6,42 6,25.09"/><polygon fill="#d3638f" points="20.87,27.13 14.69,33.31 6,25.09 6,25 11.97,18.69"/><polygon fill="#e07063" points="27.06,20.94 20.87,27.13 11.97,18.69 17.99,12.35"/><polygon fill="#ec7d36" points="33.25,14.75 27.06,20.94 17.99,12.35 24,6"/><polygon fill="#f88909" points="42,6 33.25,14.75 24,6"/><polygon fill="#0095d5" points="11.51,19.15 7.99,22.88 6,21 6,13.94"/><polygon fill="#2b88da" points="15.03,15.42 11.51,19.15 6,13.94 6,6.87"/><polygon fill="#557bde" points="18.56,11.7 15.03,15.42 6,6.87 6,6 12.53,6"/><polygon fill="#806ee3" points="22.08,7.97 18.56,11.7 12.53,6 24,6"/><polygon fill="#0095d5" points="23,25 6,42 9.35,42 17.52,42 40,42"/><polygon fill="#2b88da" points="25.68,42 17.52,42 11.76,36.25 15.84,32.17"/><polygon fill="#557bde" points="33.86,42 25.68,42 15.84,32.17 19.92,28.09"/><polygon fill="#806ee3" points="42,42 33.86,42 19.92,28.09 24,24"/></svg>