<?xml version="1.0" encoding="UTF-8"?>
<!--Generator: Apple Native CoreSVG 149-->
<!DOCTYPE svg
PUBLIC "-//W3C//DTD SVG 1.1//EN"
       "http://www.w3.org/Graphics/SVG/1.1/DTD/svg11.dtd">
<svg version="1.1" xmlns="http://www.w3.org/2000/svg" xmlns:xlink="http://www.w3.org/1999/xlink" width="3300" height="2200">
 <!--glyph: "", point size: 100.0, font version: "17.1d1e1", template writer version: "65.1"-->
 <style>.hierarchical-0:primary {fill:#212121}
.hierarchical-1:secondary {fill:#4D4D4D}

.clearBehindLayer {}
.SFSymbolsPreview212121 {fill:#212121;opacity:1.0}
.SFSymbolsPreview4D4D4D {fill:#4D4D4D;opacity:1.0}
</style>
 <g id="Notes">
  <rect height="2200" id="artboard" style="fill:white;opacity:1" width="3300" x="0" y="0"/>
  <line style="fill:none;stroke:black;opacity:1;stroke-width:0.5;" x1="263" x2="3036" y1="292" y2="292"/>
  <text style="stroke:none;fill:black;font-family:sans-serif;font-size:13;font-weight:bold;" transform="matrix(1 0 0 1 263 322)">Weight/Scale Variations</text>
  <text style="stroke:none;fill:black;font-family:sans-serif;font-size:13;text-anchor:middle;" transform="matrix(1 0 0 1 559.711 322)">Ultralight</text>
  <text style="stroke:none;fill:black;font-family:sans-serif;font-size:13;text-anchor:middle;" transform="matrix(1 0 0 1 856.422 322)">Thin</text>
  <text style="stroke:none;fill:black;font-family:sans-serif;font-size:13;text-anchor:middle;" transform="matrix(1 0 0 1 1153.13 322)">Light</text>
  <text style="stroke:none;fill:black;font-family:sans-serif;font-size:13;text-anchor:middle;" transform="matrix(1 0 0 1 1449.84 322)">Regular</text>
  <text style="stroke:none;fill:black;font-family:sans-serif;font-size:13;text-anchor:middle;" transform="matrix(1 0 0 1 1746.56 322)">Medium</text>
  <text style="stroke:none;fill:black;font-family:sans-serif;font-size:13;text-anchor:middle;" transform="matrix(1 0 0 1 2043.27 322)">Semibold</text>
  <text style="stroke:none;fill:black;font-family:sans-serif;font-size:13;text-anchor:middle;" transform="matrix(1 0 0 1 2339.98 322)">Bold</text>
  <text style="stroke:none;fill:black;font-family:sans-serif;font-size:13;text-anchor:middle;" transform="matrix(1 0 0 1 2636.69 322)">Heavy</text>
  <text style="stroke:none;fill:black;font-family:sans-serif;font-size:13;text-anchor:middle;" transform="matrix(1 0 0 1 2933.4 322)">Black</text>
  <line style="fill:none;stroke:black;opacity:1;stroke-width:0.5;" x1="263" x2="3036" y1="1903" y2="1903"/>
  <g transform="matrix(1 0 0 1 263 1933)">
   <path d="M9.24805 0.830078Q10.8691 0.830078 12.2949 0.214844Q13.7207-0.400391 14.8096-1.49414Q15.8984-2.58789 16.5186-4.01367Q17.1387-5.43945 17.1387-7.05078Q17.1387-8.66211 16.5186-10.0879Q15.8984-11.5137 14.8047-12.6074Q13.7109-13.7012 12.2852-14.3164Q10.8594-14.9316 9.23828-14.9316Q7.62695-14.9316 6.20117-14.3164Q4.77539-13.7012 3.69141-12.6074Q2.60742-11.5137 1.9873-10.0879Q1.36719-8.66211 1.36719-7.05078Q1.36719-5.43945 1.9873-4.01367Q2.60742-2.58789 3.69629-1.49414Q4.78516-0.400391 6.21094 0.214844Q7.63672 0.830078 9.24805 0.830078ZM9.24805-0.654297Q7.91992-0.654297 6.7627-1.14746Q5.60547-1.64062 4.73145-2.51953Q3.85742-3.39844 3.36426-4.56055Q2.87109-5.72266 2.87109-7.05078Q2.87109-8.37891 3.35938-9.54102Q3.84766-10.7031 4.72168-11.582Q5.5957-12.4609 6.75293-12.9541Q7.91016-13.4473 9.23828-13.4473Q10.5762-13.4473 11.7334-12.9541Q12.8906-12.4609 13.7695-11.582Q14.6484-10.7031 15.1465-9.54102Q15.6445-8.37891 15.6445-7.05078Q15.6445-5.72266 15.1514-4.56055Q14.6582-3.39844 13.7842-2.51953Q12.9102-1.64062 11.748-1.14746Q10.5859-0.654297 9.24805-0.654297ZM5.83984-7.04102Q5.83984-6.71875 6.04492-6.51855Q6.25-6.31836 6.5918-6.31836L8.50586-6.31836L8.50586-4.39453Q8.50586-4.0625 8.70605-3.85742Q8.90625-3.65234 9.22852-3.65234Q9.56055-3.65234 9.76562-3.85742Q9.9707-4.0625 9.9707-4.39453L9.9707-6.31836L11.8945-6.31836Q12.2266-6.31836 12.4316-6.51855Q12.6367-6.71875 12.6367-7.04102Q12.6367-7.37305 12.4316-7.57812Q12.2266-7.7832 11.8945-7.7832L9.9707-7.7832L9.9707-9.69727Q9.9707-10.0391 9.76562-10.2441Q9.56055-10.4492 9.22852-10.4492Q8.90625-10.4492 8.70605-10.2441Q8.50586-10.0391 8.50586-9.69727L8.50586-7.7832L6.5918-7.7832Q6.25-7.7832 6.04492-7.57812Q5.83984-7.37305 5.83984-7.04102Z"/>
  </g>
  <g transform="matrix(1 0 0 1 281.867 1933)">
   <path d="M11.709 2.91016Q13.75 2.91016 15.5518 2.12891Q17.3535 1.34766 18.7305-0.0292969Q20.1074-1.40625 20.8887-3.20801Q21.6699-5.00977 21.6699-7.05078Q21.6699-9.0918 20.8887-10.8936Q20.1074-12.6953 18.7305-14.0723Q17.3535-15.4492 15.5469-16.2305Q13.7402-17.0117 11.6992-17.0117Q9.6582-17.0117 7.85645-16.2305Q6.05469-15.4492 4.68262-14.0723Q3.31055-12.6953 2.5293-10.8936Q1.74805-9.0918 1.74805-7.05078Q1.74805-5.00977 2.5293-3.20801Q3.31055-1.40625 4.6875-0.0292969Q6.06445 1.34766 7.86621 2.12891Q9.66797 2.91016 11.709 2.91016ZM11.709 1.25Q9.98047 1.25 8.47656 0.605469Q6.97266-0.0390625 5.83496-1.17676Q4.69727-2.31445 4.05762-3.81836Q3.41797-5.32227 3.41797-7.05078Q3.41797-8.7793 4.05762-10.2832Q4.69727-11.7871 5.83008-12.9297Q6.96289-14.0723 8.4668-14.7119Q9.9707-15.3516 11.6992-15.3516Q13.4277-15.3516 14.9316-14.7119Q16.4355-14.0723 17.5781-12.9297Q18.7207-11.7871 19.3652-10.2832Q20.0098-8.7793 20.0098-7.05078Q20.0098-5.32227 19.3701-3.81836Q18.7305-2.31445 17.5928-1.17676Q16.4551-0.0390625 14.9463 0.605469Q13.4375 1.25 11.709 1.25ZM7.39258-7.04102Q7.39258-6.68945 7.62695-6.46484Q7.86133-6.24023 8.23242-6.24023L10.8789-6.24023L10.8789-3.57422Q10.8789-3.21289 11.1035-2.9834Q11.3281-2.75391 11.6797-2.75391Q12.0508-2.75391 12.2852-2.9834Q12.5195-3.21289 12.5195-3.57422L12.5195-6.24023L15.1758-6.24023Q15.5371-6.24023 15.7715-6.46484Q16.0059-6.68945 16.0059-7.04102Q16.0059-7.41211 15.7715-7.6416Q15.5371-7.87109 15.1758-7.87109L12.5195-7.87109L12.5195-10.5176Q12.5195-10.8984 12.2852-11.1279Q12.0508-11.3574 11.6797-11.3574Q11.3281-11.3574 11.1035-11.1279Q10.8789-10.8984 10.8789-10.5176L10.8789-7.87109L8.23242-7.87109Q7.85156-7.87109 7.62207-7.6416Q7.39258-7.41211 7.39258-7.04102Z"/>
  </g>
  <g transform="matrix(1 0 0 1 305.646 1933)">
   <path d="M14.9707 5.66406Q17.0605 5.66406 18.96 5.01465Q20.8594 4.36523 22.4512 3.19336Q24.043 2.02148 25.2197 0.429688Q26.3965-1.16211 27.0459-3.06641Q27.6953-4.9707 27.6953-7.05078Q27.6953-9.14062 27.0459-11.04Q26.3965-12.9395 25.2197-14.5312Q24.043-16.123 22.4512-17.2998Q20.8594-18.4766 18.9551-19.126Q17.0508-19.7754 14.9609-19.7754Q12.8711-19.7754 10.9717-19.126Q9.07227-18.4766 7.48535-17.2998Q5.89844-16.123 4.72168-14.5312Q3.54492-12.9395 2.90039-11.04Q2.25586-9.14062 2.25586-7.05078Q2.25586-4.9707 2.90527-3.06641Q3.55469-1.16211 4.72656 0.429688Q5.89844 2.02148 7.49023 3.19336Q9.08203 4.36523 10.9814 5.01465Q12.8809 5.66406 14.9707 5.66406ZM14.9707 3.84766Q13.1641 3.84766 11.5283 3.2959Q9.89258 2.74414 8.53516 1.74805Q7.17773 0.751953 6.17676-0.610352Q5.17578-1.97266 4.62891-3.6084Q4.08203-5.24414 4.08203-7.05078Q4.08203-8.86719 4.62891-10.5029Q5.17578-12.1387 6.17188-13.501Q7.16797-14.8633 8.52539-15.8594Q9.88281-16.8555 11.5186-17.4023Q13.1543-17.9492 14.9609-17.9492Q16.7773-17.9492 18.4131-17.4023Q20.0488-16.8555 21.4111-15.8594Q22.7734-14.8633 23.7695-13.501Q24.7656-12.1387 25.3174-10.5029Q25.8691-8.86719 25.8691-7.05078Q25.8789-5.24414 25.332-3.6084Q24.7852-1.97266 23.7842-0.610352Q22.7832 0.751953 21.4209 1.74805Q20.0586 2.74414 18.4229 3.2959Q16.7871 3.84766 14.9707 3.84766ZM9.45312-7.04102Q9.45312-6.66016 9.71191-6.41113Q9.9707-6.16211 10.3711-6.16211L14.0625-6.16211L14.0625-2.46094Q14.0625-2.06055 14.3115-1.80664Q14.5605-1.55273 14.9414-1.55273Q15.3516-1.55273 15.6055-1.80664Q15.8594-2.06055 15.8594-2.46094L15.8594-6.16211L19.5605-6.16211Q19.9609-6.16211 20.2148-6.41113Q20.4688-6.66016 20.4688-7.04102Q20.4688-7.45117 20.2148-7.70508Q19.9609-7.95898 19.5605-7.95898L15.8594-7.95898L15.8594-11.6504Q15.8594-12.0605 15.6055-12.3145Q15.3516-12.5684 14.9414-12.5684Q14.5605-12.5684 14.3115-12.3096Q14.0625-12.0508 14.0625-11.6504L14.0625-7.95898L10.3711-7.95898Q9.96094-7.95898 9.70703-7.70508Q9.45312-7.45117 9.45312-7.04102Z"/>
  </g>
  <text style="stroke:none;fill:black;font-family:sans-serif;font-size:13;font-weight:bold;" transform="matrix(1 0 0 1 263 1953)">Design Variations</text>
  <text style="stroke:none;fill:black;font-family:sans-serif;font-size:13;" transform="matrix(1 0 0 1 263 1971)">Symbols are supported in up to nine weights and three scales.</text>
  <text style="stroke:none;fill:black;font-family:sans-serif;font-size:13;" transform="matrix(1 0 0 1 263 1989)">For optimal layout with text and other symbols, vertically align</text>
  <text style="stroke:none;fill:black;font-family:sans-serif;font-size:13;" transform="matrix(1 0 0 1 263 2007)">symbols with the adjacent text.</text>
  <line style="fill:none;stroke:#00AEEF;stroke-width:0.5;opacity:1.0;" x1="776" x2="776" y1="1919" y2="1933"/>
  <g transform="matrix(1 0 0 1 776 1933)">
   <path d="M3.31055 0.15625Q3.70117 0.15625 3.91602-0.00976562Q4.13086-0.175781 4.26758-0.585938L5.52734-4.0332L11.2891-4.0332L12.5488-0.585938Q12.6855-0.175781 12.9004-0.00976562Q13.1152 0.15625 13.4961 0.15625Q13.8867 0.15625 14.1162-0.0585938Q14.3457-0.273438 14.3457-0.644531Q14.3457-0.869141 14.2383-1.17188L9.6582-13.3691Q9.48242-13.8184 9.17969-14.043Q8.87695-14.2676 8.4082-14.2676Q7.5-14.2676 7.17773-13.3789L2.59766-1.16211Q2.49023-0.859375 2.49023-0.634766Q2.49023-0.263672 2.70996-0.0537109Q2.92969 0.15625 3.31055 0.15625ZM6.00586-5.51758L8.37891-12.0898L8.42773-12.0898L10.8008-5.51758Z"/>
  </g>
  <line style="fill:none;stroke:#00AEEF;stroke-width:0.5;opacity:1.0;" x1="793.197" x2="793.197" y1="1919" y2="1933"/>
  <text style="stroke:none;fill:black;font-family:sans-serif;font-size:13;font-weight:bold;" transform="matrix(1 0 0 1 776 1953)">Margins</text>
  <text style="stroke:none;fill:black;font-family:sans-serif;font-size:13;" transform="matrix(1 0 0 1 776 1971)">Leading and trailing margins on the left and right side of each symbol</text>
  <text style="stroke:none;fill:black;font-family:sans-serif;font-size:13;" transform="matrix(1 0 0 1 776 1989)">can be adjusted by modifying the x-location of the margin guidelines.</text>
  <text style="stroke:none;fill:black;font-family:sans-serif;font-size:13;" transform="matrix(1 0 0 1 776 2007)">Modifications are automatically applied proportionally to all</text>
  <text style="stroke:none;fill:black;font-family:sans-serif;font-size:13;" transform="matrix(1 0 0 1 776 2025)">scales and weights.</text>
  <g transform="matrix(1 0 0 1 1289 1933)">
   <path d="M2.8418 1.86523L4.54102 3.57422Q5.18555 4.22852 5.90332 4.17969Q6.62109 4.13086 7.31445 3.35938L18.0078-8.42773L17.041-9.4043L6.42578 2.27539Q6.16211 2.57812 5.89355 2.61719Q5.625 2.65625 5.27344 2.30469L4.10156 1.14258Q3.75 0.791016 3.79395 0.522461Q3.83789 0.253906 4.14062-0.0195312L15.6152-10.8203L14.6387-11.7871L3.04688-0.898438Q2.30469-0.214844 2.25098 0.498047Q2.19727 1.21094 2.8418 1.86523ZM9.25781-16.3281Q8.94531-16.0254 8.90625-15.6348Q8.86719-15.2441 9.04297-14.9512Q9.21875-14.6777 9.55566-14.541Q9.89258-14.4043 10.3809-14.5215Q11.4746-14.7754 12.5977-14.7314Q13.7207-14.6875 14.7949-13.9844L14.209-12.5293Q13.9551-11.9043 14.0674-11.4404Q14.1797-10.9766 14.5801-10.5664L16.875-8.25195Q17.2363-7.88086 17.5781-7.82227Q17.9199-7.76367 18.3398-7.8418L19.4043-8.03711L20.0684-7.36328L20.0293-6.80664Q20-6.43555 20.1221-6.12305Q20.2441-5.81055 20.6055-5.44922L21.3672-4.70703Q21.7285-4.3457 22.1533-4.33105Q22.5781-4.31641 22.9297-4.66797L25.8398-7.58789Q26.1914-7.93945 26.1816-8.35449Q26.1719-8.76953 25.8105-9.13086L25.0391-9.89258Q24.6875-10.2539 24.3799-10.3857Q24.0723-10.5176 23.7109-10.4883L23.1348-10.4395L22.4902-11.0742L22.7344-12.1973Q22.832-12.6172 22.6953-12.9834Q22.5586-13.3496 22.1191-13.7891L19.9219-15.9766Q18.6719-17.2168 17.2607-17.8369Q15.8496-18.457 14.4189-18.4814Q12.9883-18.5059 11.665-17.959Q10.3418-17.4121 9.25781-16.3281ZM10.752-15.957Q11.6602-16.6211 12.7002-16.9043Q13.7402-17.1875 14.8047-17.085Q15.8691-16.9824 16.8701-16.5137Q17.8711-16.0449 18.7012-15.2051L21.1328-12.793Q21.3086-12.6172 21.3525-12.4512Q21.3965-12.2852 21.3379-12.0312L21.0156-10.5469L22.5195-9.0625L23.5059-9.12109Q23.6914-9.13086 23.7891-9.09668Q23.8867-9.0625 24.0332-8.91602L24.6094-8.33984L22.168-5.89844L21.5918-6.47461Q21.4453-6.62109 21.4062-6.71875Q21.3672-6.81641 21.377-7.01172L21.4453-7.98828L19.9512-9.47266L18.4277-9.21875Q18.1836-9.16992 18.042-9.2041Q17.9004-9.23828 17.7148-9.41406L15.7129-11.416Q15.5176-11.5918 15.4932-11.7529Q15.4688-11.9141 15.5859-12.1875L16.4648-14.2773Q15.293-15.3711 13.8281-15.791Q12.3633-16.2109 10.8398-15.7617Q10.7227-15.7324 10.6885-15.8057Q10.6543-15.8789 10.752-15.957Z"/>
  </g>
  <text style="stroke:none;fill:black;font-family:sans-serif;font-size:13;font-weight:bold;" transform="matrix(1 0 0 1 1289 1953)">Exporting</text>
  <text style="stroke:none;fill:black;font-family:sans-serif;font-size:13;" transform="matrix(1 0 0 1 1289 1971)">Symbols should be outlined when exporting to ensure the</text>
  <text style="stroke:none;fill:black;font-family:sans-serif;font-size:13;" transform="matrix(1 0 0 1 1289 1989)">design is preserved when submitting to Xcode.</text>
  <text id="template-version" style="stroke:none;fill:black;font-family:sans-serif;font-size:13;text-anchor:end;" transform="matrix(1 0 0 1 3036 1933)">Template v.3.0</text>
  <text style="stroke:none;fill:black;font-family:sans-serif;font-size:13;text-anchor:end;" transform="matrix(1 0 0 1 3036 1951)">Requires Xcode 13 or greater</text>
  <text id="descriptive-name" style="stroke:none;fill:black;font-family:sans-serif;font-size:13;text-anchor:end;" transform="matrix(1 0 0 1 3036 1969)">Generated from git.merge</text>
  <text style="stroke:none;fill:black;font-family:sans-serif;font-size:13;text-anchor:end;" transform="matrix(1 0 0 1 3036 1987)">Typeset at 100 points</text>
  <text style="stroke:none;fill:black;font-family:sans-serif;font-size:13;" transform="matrix(1 0 0 1 263 726)">Small</text>
  <text style="stroke:none;fill:black;font-family:sans-serif;font-size:13;" transform="matrix(1 0 0 1 263 1156)">Medium</text>
  <text style="stroke:none;fill:black;font-family:sans-serif;font-size:13;" transform="matrix(1 0 0 1 263 1586)">Large</text>
 </g>
 <g id="Guides">
  <g id="H-reference" style="fill:#27AAE1;stroke:none;" transform="matrix(1 0 0 1 339 696)">
   <path d="M0.976562 0L3.66211 0L29.3457-67.1387L30.0293-67.1387L30.0293-70.459L28.125-70.459ZM11.6699-24.4629L46.9727-24.4629L46.2402-26.709L12.4512-26.709ZM55.127 0L57.7637 0L30.6152-70.459L29.4434-70.459L29.4434-67.1387Z"/>
  </g>
  <line id="Baseline-S" style="fill:none;stroke:#27AAE1;opacity:1;stroke-width:0.5;" x1="263" x2="3036" y1="696" y2="696"/>
  <line id="Capline-S" style="fill:none;stroke:#27AAE1;opacity:1;stroke-width:0.5;" x1="263" x2="3036" y1="625.541" y2="625.541"/>
  <g id="H-reference" style="fill:#27AAE1;stroke:none;" transform="matrix(1 0 0 1 339 1126)">
   <path d="M0.976562 0L3.66211 0L29.3457-67.1387L30.0293-67.1387L30.0293-70.459L28.125-70.459ZM11.6699-24.4629L46.9727-24.4629L46.2402-26.709L12.4512-26.709ZM55.127 0L57.7637 0L30.6152-70.459L29.4434-70.459L29.4434-67.1387Z"/>
  </g>
  <line id="Baseline-M" style="fill:none;stroke:#27AAE1;opacity:1;stroke-width:0.5;" x1="263" x2="3036" y1="1126" y2="1126"/>
  <line id="Capline-M" style="fill:none;stroke:#27AAE1;opacity:1;stroke-width:0.5;" x1="263" x2="3036" y1="1055.54" y2="1055.54"/>
  <g id="H-reference" style="fill:#27AAE1;stroke:none;" transform="matrix(1 0 0 1 339 1556)">
   <path d="M0.976562 0L3.66211 0L29.3457-67.1387L30.0293-67.1387L30.0293-70.459L28.125-70.459ZM11.6699-24.4629L46.9727-24.4629L46.2402-26.709L12.4512-26.709ZM55.127 0L57.7637 0L30.6152-70.459L29.4434-70.459L29.4434-67.1387Z"/>
  </g>
  <line id="Baseline-L" style="fill:none;stroke:#27AAE1;opacity:1;stroke-width:0.5;" x1="263" x2="3036" y1="1556" y2="1556"/>
  <line id="Capline-L" style="fill:none;stroke:#27AAE1;opacity:1;stroke-width:0.5;" x1="263" x2="3036" y1="1485.54" y2="1485.54"/>
  <line id="left-margin-Regular-M" style="fill:none;stroke:#00AEEF;stroke-width:0.5;opacity:1.0;" x1="1392.12" x2="1392.12" y1="1030.73" y2="1150.14"/>
  <line id="right-margin-Regular-M" style="fill:none;stroke:#00AEEF;stroke-width:0.5;opacity:1.0;" x1="1507.57" x2="1507.57" y1="1030.73" y2="1150.14"/>
 </g>
 <g id="Symbols">
  <g id="Black-L" transform="matrix(1 0 0 1 2848.12 1556)">
   <path class="hierarchical-0:primary SFSymbolsPreview212121" d="M133.645-23.5884C124.443-34.2399 108.65-44.1289 85.3082-44.1289C66.4916-44.1289 57.8148-53.1 53.6057-60.4209L36.1851-53.2258C42.5204-40.047 56.2932-25.5148 85.1886-25.5148C97.4473-25.5148 105.998-20.5117 112.033-15.8195C106.627-11.0125 103.256-3.84949 103.256 4.13439C103.256 19.5941 115.723 32.0617 131.183 32.0617C146.523 32.0617 159.11 19.4744 159.11 4.13439C159.11-10.5444 147.955-22.4383 133.645-23.5884ZM124.986 4.13439C124.986 0.684773 127.733-2.06278 131.183-2.06278C134.633-2.06278 137.38 0.684773 137.38 4.13439C137.38 7.58401 134.633 10.3316 131.183 10.3316C127.776 10.3316 124.986 7.58137 124.986 4.13439Z"/>
   <path class="hierarchical-1:secondary clearBehindLayer SFSymbolsPreview4D4D4D" d="M67.5123-73.7038C67.5123-89.1635 55.0447-101.631 39.585-101.631C24.1254-101.631 11.6578-89.1635 11.6578-73.7038C11.6578-61.0766 20.1158-50.3919 31.7307-46.9908L31.7307-22.7009C20.1158-19.3422 11.6578-8.65489 11.6578 4.01214C11.6578 19.4718 24.1254 31.9394 39.585 31.9394C55.0872 31.9394 67.5548 19.4718 67.5548 4.01214C67.5548-8.61507 59.0967-19.2998 47.4819-22.7009L47.4819-46.9908C58.9771-50.3919 67.4351-61.1962 67.5123-73.7038ZM30.2046 4.08463C30.2547-1.0281 34.4025-5.13401 39.5576-5.08395C44.7128-5.03389 48.8187-0.886125 48.7687 4.26905C48.7186 9.38178 44.5284 13.4877 39.3732 13.4376C34.2605 13.3849 30.1519 9.19735 30.2046 4.08463ZM48.8184-73.7436C48.8184-68.5808 44.6282-64.3906 39.4654-64.3906C34.3026-64.3906 30.1124-68.5384 30.1124-73.7436C30.1124-78.9064 34.2602-83.0966 39.4654-83.0966C44.6707-83.0966 48.8609-78.9064 48.8184-73.7436Z"/>
  </g>
  <g id="Heavy-L" transform="matrix(1 0 0 1 2554.02 1556)">
   <path class="hierarchical-0:primary SFSymbolsPreview212121" d="M129.884-18.5415C121.863-30.4576 107.078-42.7205 82.7433-42.7205C62.3399-42.7205 53.9668-54.6009 50.2483-63.0237L34.707-57.3452C40.1925-43.2725 53.2394-26.2777 82.6519-26.2777C97.1612-26.2777 105.718-18.6419 111.119-12.2716C105.82-8.04177 102.441-1.35367 102.441 6.14557C102.441 19.9214 113.566 31.0459 127.341 31.0459C141.026 31.0459 152.242 19.83 152.242 6.14557C152.242-6.81336 142.465-17.3465 129.884-18.5415ZM123.967 6.14557C123.967 4.24857 125.444 2.77135 127.341 2.77135C129.238 2.77135 130.716 4.24857 130.716 6.14557C130.716 8.04256 129.238 9.51978 127.341 9.51978C125.505 9.51978 123.967 8.0302 123.967 6.14557Z"/>
   <path class="hierarchical-1:secondary clearBehindLayer SFSymbolsPreview4D4D4D" d="M63.094-75.0714C63.094-88.8472 51.9696-99.9717 38.1937-99.9717C24.4179-99.9717 13.2934-88.8472 13.2934-75.0714C13.2934-63.8613 20.7791-54.3582 31.0809-51.2802L31.0809-17.7493C20.7791-14.7323 13.2934-5.21681 13.2934 6.04182C13.2934 19.8177 24.4179 30.9421 38.1937 30.9421C52.0305 30.9421 63.155 19.8177 63.155 6.04182C63.155-5.16822 55.6693-14.6713 45.3675-17.7493L45.3675-51.2802C55.5779-54.3582 63.0636-63.9527 63.094-75.0714ZM30.0288 5.7739C30.2637 1.32587 34.026-2.10182 38.535-1.86697C43.0439-1.63212 46.4716 2.13016 46.2368 6.63914C46.0019 11.0872 42.1787 14.5149 37.6697 14.28C33.2217 14.0328 29.7816 10.2219 30.0288 5.7739ZM46.6085-75.12C46.6085-70.4371 42.7852-66.6139 38.1023-66.6139C33.4195-66.6139 29.5962-70.3761 29.5962-75.12C29.5962-79.8029 33.3585-83.6261 38.1023-83.6261C42.8462-83.6261 46.6694-79.8029 46.6085-75.12Z"/>
  </g>
  <g id="Bold-L" transform="matrix(1 0 0 1 2260.34 1556)">
   <path class="hierarchical-0:primary SFSymbolsPreview212121" d="M125.192-12.66C118.594-25.8847 105.137-41.0272 79.774-41.0272C57.6603-41.0272 49.6741-56.3683 46.5279-66.0414L33.3894-62.0889C37.8714-47.1932 49.9059-27.3198 79.7142-27.3198C96.7705-27.3198 105.269-16.4265 109.902-8.12007C104.788-4.59478 101.43 1.47953 101.43 8.3482C101.43 20.0754 110.922 29.5677 122.649 29.5677C134.317 29.5677 143.869 20.0156 143.869 8.3482C143.869-2.55123 135.716-11.4562 125.192-12.66ZM122.433 8.3482C122.433 8.18804 122.489 8.13187 122.649 8.13187C122.809 8.13187 122.865 8.18804 122.865 8.3482C122.865 8.50836 122.809 8.56454 122.649 8.56454C122.565 8.56454 122.433 8.47923 122.433 8.3482Z"/>
   <path class="hierarchical-1:secondary clearBehindLayer SFSymbolsPreview4D4D4D" d="M58.0572-76.6602C58.0572-88.3874 48.565-97.8797 36.8377-97.8797C25.1105-97.8797 15.6182-88.3874 15.6182-76.6602C15.6182-67.1415 21.9573-59.0604 30.6959-56.4028L30.6959-11.9981C21.9573-9.41624 15.6182-1.306 15.6182 8.25926C15.6182 19.9865 25.1105 29.4788 36.8377 29.4788C48.6407 29.4788 58.133 19.9865 58.133 8.25926C58.133-1.25938 51.794-9.34048 43.0553-11.9981L43.0553-56.4028C51.7342-59.0604 58.0732-67.2013 58.0572-76.6602ZM30.2389 7.40423C30.7925 3.81176 34.1294 1.33137 37.7977 1.88494C41.4659 2.4385 43.9463 5.77545 43.3927 9.44369C42.8392 13.0362 39.4264 15.5165 35.7582 14.963C32.1657 14.3803 29.6562 10.9967 30.2389 7.40423ZM44.3367-76.7068C44.3367-72.5608 40.924-69.148 36.7779-69.148C32.6319-69.148 29.2192-72.485 29.2192-76.7068C29.2192-80.8528 32.5561-84.2655 36.7779-84.2655C40.9997-84.2655 44.4124-80.8528 44.3367-76.7068Z"/>
  </g>
  <g id="Semibold-L" transform="matrix(1 0 0 1 1965.73 1556)">
   <path class="hierarchical-0:primary SFSymbolsPreview212121" d="M121.958-8.60532C116.34-22.7322 103.799-39.8598 77.7269-39.8598C54.4343-39.8598 46.7147-57.5868 43.9631-68.1218L32.4811-65.3591C36.2712-49.896 47.6077-28.0382 77.6889-28.0382C96.5011-28.0382 104.96-14.8992 109.064-5.25801C104.076-2.21845 100.732 3.43272 100.732 9.86669C100.732 20.1816 109.099 28.5487 119.414 28.5487C129.691 28.5487 138.096 20.1436 138.096 9.86669C138.096 0.387049 131.063-7.39537 121.958-8.60532ZM121.375 9.86669C121.375 10.9039 120.452 11.8274 119.414 11.8274C118.377 11.8274 117.454 10.9039 117.454 9.86669C117.454 8.82948 118.377 7.906 119.414 7.906C120.537 7.906 121.375 8.78878 121.375 9.86669Z"/>
   <path class="hierarchical-1:secondary clearBehindLayer SFSymbolsPreview4D4D4D" d="M54.5849-77.7555C54.5849-88.0704 46.2179-96.4374 35.9029-96.4374C25.588-96.4374 17.221-88.0704 17.221-77.7555C17.221-69.4029 22.7695-62.3021 30.4305-59.9343L30.4305-8.03324C22.7695-5.75139 17.221 1.39009 17.221 9.78795C17.221 20.1029 25.588 28.4699 35.9029 28.4699C46.3038 28.4699 54.6709 20.1029 54.6709 9.78795C54.6709 1.43536 49.1224-5.66543 41.4613-8.03324L41.4613-59.9343C49.0844-62.3021 54.6328-69.4409 54.5849-77.7555ZM30.3837 8.52818C31.157 5.52552 34.2008 3.69819 37.2894 4.47148C40.378 5.24476 42.2053 8.28849 41.432 11.3771C40.6588 14.3798 37.5291 16.2071 34.4404 15.4338C31.4378 14.6198 29.5698 11.5308 30.3837 8.52818ZM42.7706-77.8007C42.7706-74.0248 39.6409-70.8951 35.8649-70.8951C32.089-70.8951 28.9593-73.9388 28.9593-77.8007C28.9593-81.5767 32.003-84.7064 35.8649-84.7064C39.7268-84.7064 42.8565-81.5767 42.7706-77.8007Z"/>
  </g>
  <g id="Medium-L" transform="matrix(1 0 0 1 1670.6 1556)">
   <path class="hierarchical-0:primary SFSymbolsPreview212121" d="M119.506-5.53091C114.631-20.3418 102.785-38.9746 76.1747-38.9746C51.9881-38.9746 44.4707-58.5106 42.0183-69.6993L31.7924-67.8388C35.0579-51.9454 45.8652-28.5829 76.1532-28.5829C96.2968-28.5829 104.725-13.7411 108.428-3.08787C103.537-0.416619 100.204 4.91371 100.204 11.0181C100.204 20.2621 107.717 27.776 116.962 27.776C126.184 27.776 133.719 20.2406 133.719 11.0181C133.719 2.61498 127.535-4.31631 119.506-5.53091ZM120.573 11.0181C120.573 12.9632 118.907 14.6295 116.962 14.6295C115.016 14.6295 113.35 12.9632 113.35 11.0181C113.35 9.07297 115.016 7.40667 116.962 7.40667C119 7.40667 120.573 9.0235 120.573 11.0181Z"/>
   <path class="hierarchical-1:secondary clearBehindLayer SFSymbolsPreview4D4D4D" d="M51.952-78.586C51.952-87.83 44.4382-95.3439 35.1941-95.3439C25.9501-95.3439 18.4362-87.83 18.4362-78.586C18.4362-71.1175 23.3853-64.7601 30.2293-62.612L30.2293-5.02692C23.3853-2.97255 18.4362 3.43439 18.4362 10.9471C18.4362 20.1911 25.9501 27.705 35.1941 27.705C44.5319 27.705 52.0458 20.1911 52.0458 10.9471C52.0458 3.47862 47.0967-2.87885 40.2527-5.02692L40.2527-62.612C47.0751-64.7601 52.0242-71.1391 51.952-78.586ZM30.4935 9.3804C31.4334 6.82496 34.2548 5.49282 36.904 6.4327C39.5531 7.37259 40.8853 10.194 39.9454 12.8431C39.0055 15.3986 36.0904 16.7307 33.4412 15.7908C30.8858 14.8015 29.5042 11.9358 30.4935 9.3804ZM41.583-78.6302C41.583-75.1349 38.6679-72.2198 35.1726-72.2198C31.6773-72.2198 28.7622-75.0412 28.7622-78.6302C28.7622-82.1255 31.5836-85.0406 35.1726-85.0406C38.7616-85.0406 41.6767-82.1255 41.583-78.6302Z"/>
  </g>
  <g id="Regular-L" transform="matrix(1 0 0 1 1375.96 1556)">
   <path class="hierarchical-0:primary SFSymbolsPreview212121" d="M116.307-1.52081C112.402-17.2239 101.461-37.82 74.1502-37.82C48.7975-37.82 41.5439-59.7157 39.4817-71.7568L30.8941-71.0731C33.4753-54.6185 43.5923-29.2933 74.1502-29.2933C96.0304-29.2933 104.419-12.2306 107.598-0.257257C102.833 1.9336 99.514 6.84543 99.514 12.5199C99.514 20.3671 105.915 26.7681 113.762 26.7681C121.61 26.7681 128.011 20.3671 128.011 12.5199C128.011 5.52097 122.934-0.300147 116.307-1.52081ZM119.527 12.5199C119.527 15.6492 116.892 18.2844 113.762 18.2844C110.633 18.2844 107.998 15.6492 107.998 12.5199C107.998 9.39056 110.633 6.75536 113.762 6.75536C116.995 6.75536 119.527 9.32966 119.527 12.5199Z"/>
   <path class="hierarchical-1:secondary clearBehindLayer SFSymbolsPreview4D4D4D" d="M48.5179-79.6692C48.5179-87.5165 42.1169-93.9175 34.2696-93.9175C26.4223-93.9175 20.0213-87.5165 20.0213-79.6692C20.0213-73.354 24.1886-67.9661 29.9668-66.1047L29.9668-1.10563C24.1886 0.652025 20.0213 6.10085 20.0213 12.459C20.0213 20.3062 26.4223 26.7072 34.2696 26.7072C42.2207 26.7072 48.6217 20.3062 48.6217 12.459C48.6217 6.14374 44.4544 0.75582 38.6762-1.10563L38.6762-66.1047C44.4544-67.9661 48.6217-73.354 48.5179-79.6692ZM30.6368 10.492C31.794 8.51988 34.3254 7.83363 36.4013 8.99082C38.4772 10.148 39.1634 12.6794 38.0062 14.7553C36.8491 16.7274 34.2139 17.4137 32.1379 16.2565C30.1658 15.0384 29.4187 12.4641 30.6368 10.492ZM40.0341-79.7121C40.0341-76.5828 37.3989-73.9476 34.2696-73.9476C31.1403-73.9476 28.5051-76.479 28.5051-79.7121C28.5051-82.8414 31.0365-85.4766 34.2696-85.4766C37.5027-85.4766 40.1379-82.8414 40.0341-79.7121Z"/>
  </g>
  <g id="Light-L" transform="matrix(1 0 0 1 1080.09 1556)">
   <path class="hierarchical-0:primary SFSymbolsPreview212121" d="M112.861 0.160345C109.67-14.7863 100.158-36.9794 73.4357-36.9794C48.5453-36.9794 41.6279-60.3461 39.7339-72.5133L33.2898-72.0398C35.4927-56.8461 44.1807-30.6383 73.4357-30.6383C95.526-30.6383 103.452-11.348 106.211 1.04564C101.908 2.81621 98.7995 7.13964 98.7995 12.1836C98.7995 18.8541 104.276 24.3305 110.946 24.3305C117.617 24.3305 123.093 18.8541 123.093 12.1836C123.093 6.1514 118.605 1.08681 112.861 0.160345ZM116.711 12.1836C116.711 15.3129 114.076 17.9481 110.946 17.9481C107.817 17.9481 105.182 15.3129 105.182 12.1836C105.182 9.05433 107.817 6.41913 110.946 6.41913C114.137 6.41913 116.711 8.9514 116.711 12.1836Z"/>
   <path class="hierarchical-1:secondary clearBehindLayer SFSymbolsPreview4D4D4D" d="M47.8454-80.0895C47.8454-86.76 42.3691-92.2364 35.6986-92.2364C29.0281-92.2364 23.5518-86.76 23.5518-80.0895C23.5518-74.5308 27.2987-69.8574 32.4045-68.4162L32.4045 0.40741C27.2987 1.78681 23.5518 6.56317 23.5518 12.0807C23.5518 18.7512 29.0281 24.2275 35.6986 24.2275C42.4308 24.2275 47.9072 18.7512 47.9072 12.0807C47.9072 6.522 44.1602 1.84857 39.0545 0.40741L39.0545-68.4162C44.1602-69.8574 47.9072-74.5308 47.8454-80.0895ZM33.5368 8.64272C35.4925 7.46916 38.0659 8.12784 39.3013 10.0836C40.5366 12.0393 39.8779 14.6127 37.9222 15.8481C35.9664 17.0216 33.3312 16.363 32.0959 14.4072C30.9224 12.3485 31.4781 9.81628 33.5368 8.64272ZM41.4631-80.0484C41.4631-76.9191 38.8279-74.2839 35.6986-74.2839C32.5693-74.2839 29.9341-76.8573 29.9341-80.0484C29.9341-83.1777 32.5075-85.8129 35.6986-85.8129C38.8897-85.8129 41.5249-83.1777 41.4631-80.0484Z"/>
  </g>
  <g id="Thin-L" transform="matrix(1 0 0 1 784.489 1556)">
   <path class="hierarchical-0:primary SFSymbolsPreview212121" d="M108.303 2.38381C106.057-11.5622 98.4351-35.8677 72.4907-35.8677C48.2118-35.8677 41.7391-61.1799 40.0674-73.5139L36.4582-73.3183C38.1608-59.7922 44.9589-32.4171 72.4907-32.4171C94.859-32.4171 102.174-10.1807 104.377 2.76883C100.685 3.98353 97.8545 7.52874 97.8545 11.7389C97.8545 16.853 102.108 21.1064 107.222 21.1064C112.336 21.1064 116.589 16.853 116.589 11.7389C116.589 6.98521 112.88 2.92117 108.303 2.38381ZM112.986 11.7389C112.986 14.8682 110.351 17.5034 107.222 17.5034C104.093 17.5034 101.457 14.8682 101.457 11.7389C101.457 8.60964 104.093 5.97444 107.222 5.97444C110.357 5.97444 112.986 8.45112 112.986 11.7389Z"/>
   <path class="hierarchical-1:secondary clearBehindLayer SFSymbolsPreview4D4D4D" d="M46.956-80.6454C46.956-85.7594 42.7026-90.0129 37.5885-90.0129C32.4745-90.0129 28.2211-85.7594 28.2211-80.6454C28.2211-76.0873 31.4122-72.3588 35.6285-71.4735L35.6285 2.40853C31.4122 3.28765 28.2211 7.17462 28.2211 11.5804C28.2211 16.6944 32.4745 20.9479 37.5885 20.9479C42.7088 20.9479 46.9622 16.6944 46.9622 11.5804C46.9622 7.02228 43.7711 3.29383 39.5547 2.40853L39.5547-71.4735C43.7711-72.3588 46.9622-76.0873 46.956-80.6454ZM37.3723 6.19691C40.3841 6.07949 43.0132 8.51694 43.1368 11.5288C43.2603 14.5407 40.8229 17.1697 37.811 17.2933C34.7991 17.4107 32.1639 14.9733 32.0403 11.9614C31.9229 8.791 34.2018 6.31432 37.3723 6.19691ZM43.353-80.4931C43.353-77.3638 40.7178-74.7286 37.5885-74.7286C34.4592-74.7286 31.824-77.3576 31.824-80.4931C31.824-83.6224 34.4531-86.2576 37.5885-86.2576C40.724-86.2576 43.3592-83.6224 43.353-80.4931Z"/>
  </g>
  <g id="Ultralight-L" transform="matrix(1 0 0 1 488.348 1556)">
   <path class="hierarchical-0:primary SFSymbolsPreview212121" d="M105.968 3.52266C104.206-9.91089 97.5525-35.2983 72.0067-35.2983C48.041-35.2983 41.796-61.607 40.2382-74.0263L38.0811-73.9731C39.5274-61.3012 45.3575-33.3281 72.0067-33.3281C94.5174-33.3281 101.519-9.58278 103.437 3.65144C100.059 4.58142 97.3705 7.72804 97.3705 11.5112C97.3705 15.828 100.998 19.4551 105.314 19.4551C109.631 19.4551 113.258 15.828 113.258 11.5112C113.258 7.41227 109.947 3.86072 105.968 3.52266ZM111.079 11.5112C111.079 14.6405 108.444 17.2757 105.314 17.2757C102.185 17.2757 99.5499 14.6405 99.5499 11.5112C99.5499 8.38187 102.185 5.74667 105.314 5.74667C108.421 5.74667 111.079 8.19488 111.079 11.5112Z"/>
   <path class="hierarchical-1:secondary clearBehindLayer SFSymbolsPreview4D4D4D" d="M46.5005-80.9301C46.5005-85.247 42.8734-88.874 38.5566-88.874C34.2397-88.874 30.6126-85.247 30.6126-80.9301C30.6126-76.8845 33.519-73.64 37.2799-73.0394L37.2799 3.4335C33.519 4.05637 30.6126 7.48781 30.6126 11.3242C30.6126 15.641 34.2397 19.2681 38.5566 19.2681C42.8511 19.2681 46.4782 15.641 46.4782 11.3242C46.4782 7.27852 43.5718 4.03408 39.811 3.4335L39.811-73.0394C43.5718-73.64 46.4782-76.8845 46.5005-80.9301ZM39.3368 4.94417C42.8896 5.36771 45.5471 8.71624 45.1013 12.2691C44.6554 15.8219 41.3069 18.4794 37.7541 18.0336C34.2012 17.61 31.566 14.2615 32.0119 10.7087C32.4354 6.96884 35.5969 4.52063 39.3368 4.94417ZM44.3211-80.7208C44.3211-77.5915 41.6859-74.9563 38.5566-74.9563C35.4273-74.9563 32.7921-77.6138 32.7921-80.7208C32.7921-83.8501 35.4496-86.4853 38.5566-86.4853C41.6636-86.4853 44.2988-83.8501 44.3211-80.7208Z"/>
  </g>
  <g id="Black-M" transform="matrix(1 0 0 1 2865.2 1126)">
   <path class="hierarchical-0:primary SFSymbolsPreview212121" d="M106.307-30.3249C98.2583-37.3878 85.3503-43.2254 68.1993-43.2254C55.0477-43.2254 48.11-47.8746 44.4502-52.6165L29.6291-45.7673C35.2163-36.4962 46.3169-27.2343 68.0824-27.2343C75.6741-27.2343 82.2312-25.319 87.394-23.0691C83.1763-18.9058 80.5999-13.0278 80.5999-6.51128C80.5999 6.75364 91.2881 17.4419 104.553 17.4419C117.701 17.4419 128.506 6.63671 128.506-6.51128C128.506-19.2307 118.759-29.5123 106.307-30.3249ZM97.3257-6.51128C97.3257-10.5182 100.546-13.7386 104.553-13.7386C108.56-13.7386 111.78-10.5182 111.78-6.51128C111.78-2.50435 108.56 0.716053 104.553 0.716053C100.557 0.716053 97.3257-2.50372 97.3257-6.51128Z"/>
   <path class="hierarchical-1:secondary clearBehindLayer SFSymbolsPreview4D4D4D" d="M56.0107-63.9234C56.0107-77.1883 45.3225-87.8765 32.0575-87.8765C18.7926-87.8765 8.10437-77.1883 8.10437-63.9234C8.10437-53.0251 15.4359-43.8285 25.4718-40.9728L25.4718-29.5782C15.4359-26.7338 8.10437-17.5378 8.10437-6.62759C8.10437 6.63733 18.7926 17.3256 32.0575 17.3256C45.3337 17.3256 56.022 6.63733 56.022-6.62759C56.022-17.5259 48.6904-26.7225 38.6546-29.5782L38.6546-40.9728C48.5735-43.8285 55.9051-53.142 56.0107-63.9234ZM23.9448-6.47817C23.9329-10.9023 27.4834-14.484 31.9188-14.4958C36.3542-14.5077 39.9359-10.9572 39.9477-6.52181C39.9596-2.0977 36.3978 1.48398 31.9624 1.49583C27.5383 1.50829 23.9573-2.05406 23.9448-6.47817ZM39.9146-63.9353C39.9146-59.523 36.3529-55.9613 31.9406-55.9613C27.5283-55.9613 23.9666-59.5117 23.9666-63.9353C23.9666-68.3475 27.517-71.9093 31.9406-71.9093C36.3642-71.9093 39.9259-68.3475 39.9146-63.9353Z"/>
  </g>
  <g id="Heavy-M" transform="matrix(1 0 0 1 2570.97 1126)">
   <path class="hierarchical-0:primary SFSymbolsPreview212121" d="M102.947-25.5463C95.9882-33.9152 83.9339-41.9261 65.7579-41.9261C51.0124-41.9261 44.3406-49.2837 41.1448-55.0911L27.9631-49.7051C32.7545-39.4438 43.2774-27.856 65.6686-27.856C75.4409-27.856 82.0465-23.5725 86.6286-19.7209C82.4729-16.0831 79.8694-10.6151 79.8694-4.5142C79.8694 7.21325 89.33 16.6738 101.057 16.6738C112.696 16.6738 122.245 7.12391 122.245-4.5142C122.245-15.6415 113.791-24.6627 102.947-25.5463ZM96.5897-4.5142C96.5897-7.00334 98.5683-8.98191 101.057-8.98191C103.547-8.98191 105.525-7.00334 105.525-4.5142C105.525-2.02506 103.547-0.0464944 101.057-0.0464944C98.6015-0.0464944 96.5897-2.03007 96.5897-4.5142Z"/>
   <path class="hierarchical-1:secondary clearBehindLayer SFSymbolsPreview4D4D4D" d="M51.7536-65.2215C51.7536-76.949 42.2931-86.4095 30.5656-86.4095C18.8382-86.4095 9.37764-76.949 9.37764-65.2215C9.37764-55.6388 15.7974-47.5314 24.6117-44.9528L24.6117-24.8773C15.7974-22.3319 9.37764-14.2195 9.37764-4.60855C9.37764 7.1189 18.8382 16.5794 30.5656 16.5794C42.3263 16.5794 51.7868 7.1189 51.7868-4.60855C51.7868-14.1912 45.3671-22.2987 36.5528-24.8773L36.5528-44.9528C45.2777-47.5314 51.6975-55.7281 51.7536-65.2215ZM23.5054-4.6562C23.6006-8.50419 26.7703-11.5469 30.6515-11.4518C34.5328-11.3567 37.5755-8.18694 37.4804-4.30569C37.3852-0.457699 34.1823 2.58505 30.301 2.48991C26.453 2.38977 23.4053-0.808207 23.5054-4.6562ZM37.6224-65.2498C37.6224-61.3066 34.4194-58.1036 30.4763-58.1036C26.5331-58.1036 23.3302-61.2734 23.3302-65.2498C23.3302-69.1929 26.4999-72.3959 30.4763-72.3959C34.4527-72.3959 37.6556-69.1929 37.6224-65.2498Z"/>
  </g>
  <g id="Bold-M" transform="matrix(1 0 0 1 2277.02 1126)">
   <path class="hierarchical-0:primary SFSymbolsPreview212121" d="M99.1893-20.2008C93.4487-30.0307 82.3495-40.4727 63.0269-40.4727C46.4984-40.4727 40.1239-50.86 37.4473-57.8594L26.0994-54.11C30.0007-42.7412 39.8772-28.5515 62.9684-28.5515C75.1801-28.5515 81.8399-21.6189 85.7725-15.9756C81.6861-12.9255 79.0523-7.91619 79.0523-2.28018C79.0523 7.72739 87.1395 15.8145 97.147 15.8145C107.096 15.8145 115.242 7.66892 115.242-2.28018C115.242-11.6265 108.234-19.2378 99.1893-20.2008ZM95.7664-2.28018C95.7664-3.07145 96.3558-3.66085 97.147-3.66085C97.9383-3.66085 98.5277-3.07145 98.5277-2.28018C98.5277-1.48891 97.9383-0.899514 97.147-0.899514C96.4136-0.899514 95.7664-1.50022 95.7664-2.28018Z"/>
   <path class="hierarchical-1:secondary clearBehindLayer SFSymbolsPreview4D4D4D" d="M46.9914-66.6737C46.9914-76.6812 38.9042-84.7684 28.8967-84.7684C18.8891-84.7684 10.802-76.6812 10.802-66.6737C10.802-58.5626 16.2018-51.6736 23.6496-49.405L23.6496-19.6187C16.2018-17.4078 10.802-10.5075 10.802-2.34995C10.802 7.65761 18.8891 15.7448 28.8967 15.7448C38.9621 15.7448 47.0492 7.65761 47.0492-2.34995C47.0492-10.461 41.6494-17.35 34.2016-19.6187L34.2016-49.405C41.5909-51.6736 46.9907-58.6211 46.9914-66.6737ZM23.0139-2.61806C23.2287-5.82158 25.9726-8.26146 29.2339-8.04665C32.4953-7.83183 34.9351-5.08799 34.7203-1.82665C34.5055 1.37687 31.7038 3.81675 28.4425 3.60194C25.239 3.37582 22.7878 0.585461 23.0139-2.61806ZM35.0582-66.7202C35.0582-63.3018 32.2565-60.5002 28.8382-60.5002C25.4199-60.5002 22.6182-63.244 22.6182-66.7202C22.6182-70.1385 25.362-72.9402 28.8382-72.9402C32.3144-72.9402 35.116-70.1385 35.0582-66.7202Z"/>
  </g>
  <g id="Semibold-M" transform="matrix(1 0 0 1 1982.21 1126)">
   <path class="hierarchical-0:primary SFSymbolsPreview212121" d="M96.5987-16.5156C91.698-27.3527 81.2572-39.4708 61.1441-39.4708C43.3865-39.4708 37.217-51.9467 34.8982-59.7678L24.8147-57.1468C28.1022-45.0144 37.5332-29.031 61.1069-29.031C75.0003-29.031 81.6975-20.2721 85.1823-13.3936C81.1436-10.7487 78.489-6.05556 78.489-0.74006C78.489 8.08183 85.6294 15.2222 94.4513 15.2222C103.236 15.2222 110.413 8.04465 110.413-0.74006C110.413-8.85855 104.403-15.4978 96.5987-16.5156ZM95.1988-0.74006C95.1988-0.360824 94.8305 0.00745958 94.4513 0.00745958C94.072 0.00745958 93.7037-0.360824 93.7037-0.74006C93.7037-1.1193 94.072-1.48758 94.4513-1.48758C94.9053-1.48758 95.1988-1.13494 95.1988-0.74006Z"/>
   <path class="hierarchical-1:secondary clearBehindLayer SFSymbolsPreview4D4D4D" d="M43.7083-67.6748C43.7083-76.4967 36.568-83.637 27.7461-83.637C18.9242-83.637 11.7839-76.4967 11.7839-67.6748C11.7839-60.5783 16.4805-54.5293 22.9863-52.4743L22.9863-15.9934C16.4805-14.0132 11.7839-7.94848 11.7839-0.792893C11.7839 8.029 18.9242 15.1693 27.7461 15.1693C36.6428 15.1693 43.7831 8.029 43.7831-0.792893C43.7831-7.88936 39.0865-13.9384 32.5806-15.9934L32.5806-52.4743C39.0493-54.5293 43.7459-60.6155 43.7083-67.6748ZM22.6751-1.21298C22.9724-3.97221 25.4226-5.99647 28.2566-5.69915C31.0906-5.40184 33.1149-2.9516 32.8176-0.117608C32.5202 2.64162 29.9952 4.66588 27.1612 4.36857C24.402 4.0556 22.3621 1.54625 22.6751-1.21298ZM33.2905-67.7339C33.2905-64.6773 30.7655-62.1523 27.7089-62.1523C24.6524-62.1523 22.1274-64.6026 22.1274-67.7339C22.1274-70.7904 24.5776-73.3154 27.7089-73.3154C30.8402-73.3154 33.3652-70.7904 33.2905-67.7339Z"/>
  </g>
  <g id="Medium-M" transform="matrix(1 0 0 1 1686.95 1126)">
   <path class="hierarchical-0:primary SFSymbolsPreview212121" d="M94.6343-13.7213C90.3706-25.3221 80.429-38.7111 59.7165-38.7111C41.0269-38.7111 35.0129-52.7706 32.9655-61.2148L23.8405-59.4494C26.6627-46.738 35.7558-29.3945 59.6954-29.3945C74.864-29.3945 81.5895-19.2509 84.7348-11.4358C80.7323-9.09815 78.0619-4.64474 78.0619 0.427723C78.0619 8.35059 84.4843 14.773 92.4072 14.773C100.309 14.773 106.752 8.32954 106.752 0.427723C106.752-6.75979 101.498-12.6621 94.6343-13.7213ZM94.7684 0.427723C94.7684 1.69448 93.674 2.78892 92.4072 2.78892C91.1404 2.78892 90.046 1.69448 90.046 0.427723C90.046-0.839037 91.1404-1.93348 92.4072-1.93348C93.7616-1.93348 94.7684-0.857978 94.7684 0.427723Z"/>
   <path class="hierarchical-1:secondary clearBehindLayer SFSymbolsPreview4D4D4D" d="M41.219-68.4338C41.219-76.3567 34.7966-82.7791 26.8737-82.7791C18.9508-82.7791 12.5284-76.3567 12.5284-68.4338C12.5284-62.1067 16.6919-56.6945 22.4834-54.8016L22.4834-13.2446C16.6919-11.4392 12.5284-6.00812 12.5284 0.387734C12.5284 8.3106 18.9508 14.733 26.8737 14.733C34.8842 14.733 41.3066 8.3106 41.3066 0.387734C41.3066-5.93945 37.1431-11.3516 31.3516-13.2446L31.3516-54.8016C37.1221-56.6945 41.2856-62.1277 41.219-68.4338ZM22.4181-0.147588C22.778-2.56993 25.0056-4.27906 27.5156-3.91918C30.0255-3.55931 31.7347-1.3317 31.3748 1.17826C31.0149 3.6006 28.6997 5.30972 26.1897 4.94985C23.7674 4.57104 22.0393 2.27476 22.4181-0.147588ZM31.9501-68.5025C31.9501-65.7203 29.6349-63.4051 26.8527-63.4051C24.0704-63.4051 21.7552-65.6327 21.7552-68.5025C21.7552-71.2847 23.9828-73.6 26.8527-73.6C29.7225-73.6 32.0377-71.2847 31.9501-68.5025Z"/>
  </g>
  <g id="Regular-M" transform="matrix(1 0 0 1 1392.12 1126)">
   <path class="hierarchical-0:primary SFSymbolsPreview212121" d="M92.0721-10.0766C88.6391-22.6736 79.3487-37.7201 57.8544-37.7201C37.9492-37.7201 32.1379-53.8453 30.4444-63.1022L22.5698-62.4528C24.7851-48.9863 33.4375-29.8687 57.8544-29.8687C74.6862-29.8687 81.4486-17.9189 84.151-8.88211C80.1958-6.94526 77.5048-2.80455 77.5048 1.95092C77.5048 8.70113 82.9908 14.1872 89.741 14.1872C96.4913 14.1872 101.977 8.70113 101.977 1.95092C101.977-4.02227 97.709-8.96324 92.0721-10.0766ZM94.207 1.95092C94.207 4.37532 92.1654 6.41692 89.741 6.41692C87.3166 6.41692 85.275 4.37532 85.275 1.95092C85.275-0.473481 87.3166-2.51508 89.741-2.51508C92.2698-2.51508 94.207-0.496716 94.207 1.95092Z"/>
   <path class="hierarchical-1:secondary clearBehindLayer SFSymbolsPreview4D4D4D" d="M37.972-69.424C37.972-76.1742 32.486-81.6602 25.7358-81.6602C18.9856-81.6602 13.4996-76.1742 13.4996-69.424C13.4996-64.1002 16.9676-59.5188 21.8274-57.8371L21.8274-9.65913C16.9676-8.08185 13.4996-3.47721 13.4996 1.92768C13.4996 8.6779 18.9856 14.1639 25.7358 14.1639C32.5904 14.1639 38.0764 8.6779 38.0764 1.92768C38.0764-3.39608 34.6084-7.97749 29.7485-9.65913L29.7485-57.8371C34.6084-59.5188 38.0764-64.1002 37.972-69.424ZM22.083 1.24205C22.5245-0.740879 24.4617-2.03895 26.549-1.59749C28.6363-1.15602 29.9344 0.781217 29.4929 2.86851C29.0515 4.85145 27.0099 6.14952 24.9226 5.70805C22.9396 5.24335 21.6183 3.22499 22.083 1.24205ZM30.2018-69.5051C30.2018-67.0807 28.1602-65.0391 25.7358-65.0391C23.3114-65.0391 21.2698-66.9763 21.2698-69.5051C21.2698-71.9295 23.207-73.9711 25.7358-73.9711C28.2646-73.9711 30.3062-71.9295 30.2018-69.5051Z"/>
  </g>
  <g id="Light-M" transform="matrix(1 0 0 1 1096.17 1126)">
   <path class="hierarchical-0:primary SFSymbolsPreview212121" d="M88.9823-8.56935C86.1898-20.4881 78.1806-36.9665 57.2138-36.9665C37.7231-36.9665 32.2132-54.4105 30.6705-63.7805L24.7176-63.3195C26.5938-50.9834 33.965-31.0745 57.2138-31.0745C74.234-31.0745 80.5819-17.1276 82.9076-7.71399C79.3668-6.15396 76.8642-2.54079 76.8642 1.64947C76.8642 7.34461 81.5213 12.0017 87.2164 12.0017C92.9116 12.0017 97.5686 7.34461 97.5686 1.64947C97.5686-3.45706 93.8278-7.71976 88.9823-8.56935ZM91.6824 1.64947C91.6824 4.07387 89.6408 6.11547 87.2164 6.11547C84.792 6.11547 82.7504 4.07387 82.7504 1.64947C82.7504-0.774931 84.792-2.81653 87.2164-2.81653C89.7075-2.81653 91.6824-0.835847 91.6824 1.64947Z"/>
   <path class="hierarchical-1:secondary clearBehindLayer SFSymbolsPreview4D4D4D" d="M37.3691-69.8008C37.3691-75.4959 32.7121-80.1529 27.017-80.1529C21.3218-80.1529 16.6648-75.4959 16.6648-69.8008C16.6648-65.1553 19.756-61.2144 24.0129-59.9096L24.0129-8.30261C19.756-7.06446 16.6648-3.06272 16.6648 1.58855C16.6648 7.2837 21.3218 11.9407 27.017 11.9407C32.7788 11.9407 37.4358 7.2837 37.4358 1.58855C37.4358-3.05695 34.3446-6.99778 30.0876-8.30261L30.0876-59.9096C34.3446-61.2144 37.4358-65.1553 37.3691-69.8008ZM24.683-0.415918C25.8404-1.68291 27.8154-1.77519 29.149-0.617776C30.4827 0.539634 30.575 2.51455 29.4176 3.84822C28.2602 5.11521 26.2186 5.20749 24.8849 4.05008C23.6179 2.83176 23.4647 0.851072 24.683-0.415918ZM31.483-69.8065C31.483-67.3821 29.4414-65.3405 27.017-65.3405C24.5926-65.3405 22.551-67.3154 22.551-69.8065C22.551-72.2309 24.5259-74.2725 27.017-74.2725C29.508-74.2725 31.5496-72.2309 31.483-69.8065Z"/>
  </g>
  <g id="Thin-M" transform="matrix(1 0 0 1 800.452 1126)">
   <path class="hierarchical-0:primary SFSymbolsPreview212121" d="M84.8957-6.57589C82.9505-17.5975 76.6357-35.9697 56.3666-35.9697C37.4241-35.9697 32.3129-55.1581 30.9695-64.6775L27.5583-64.4657C28.9859-53.6247 34.6627-32.6693 56.3666-32.6693C73.636-32.6693 79.4357-16.081 81.263-6.16907C78.2704-5.10739 76.017-2.19193 76.017 1.25078C76.017 5.5505 79.5776 9.11114 83.8774 9.11114C88.1771 9.11114 91.7377 5.5505 91.7377 1.25078C91.7377-2.70951 88.6947-6.07516 84.8957-6.57589ZM88.3434 1.25078C88.3434 3.67518 86.3018 5.71678 83.8774 5.71678C81.453 5.71678 79.4114 3.67518 79.4114 1.25078C79.4114-1.17362 81.453-3.21522 83.8774-3.21522C86.3186-3.21522 88.3434-1.28437 88.3434 1.25078Z"/>
   <path class="hierarchical-1:secondary clearBehindLayer SFSymbolsPreview4D4D4D" d="M36.5718-70.2991C36.5718-74.5989 33.0111-78.1595 28.7114-78.1595C24.4117-78.1595 20.851-74.5989 20.851-70.2991C20.851-66.5507 23.4439-63.4571 26.9035-62.6506L26.9035-6.5085C23.4439-5.71888 20.851-2.51452 20.851 1.14003C20.851 5.43975 24.4117 9.00039 28.7114 9.00039C33.028 9.00039 36.5886 5.43975 36.5886 1.14003C36.5886-2.60843 33.9957-5.70203 30.5362-6.5085L30.5362-62.6506C33.9957-63.4571 36.5886-66.5507 36.5718-70.2991ZM28.1217-2.60872C30.226-2.92882 32.2508-1.42633 32.5877 0.67797C32.9247 2.78227 31.4222 4.80702 29.3179 5.14397C27.2136 5.46407 25.172 3.96158 24.835 1.85728C24.5149-0.357772 25.9067-2.28862 28.1217-2.60872ZM33.1774-70.2052C33.1774-67.7808 31.1358-65.7392 28.7114-65.7392C26.287-65.7392 24.2454-67.764 24.2454-70.2052C24.2454-72.6296 26.2701-74.6712 28.7114-74.6712C31.1526-74.6712 33.1942-72.6296 33.1774-70.2052Z"/>
  </g>
  <g id="Ultralight-M" transform="matrix(1 0 0 1 504.251 1126)">
   <path class="hierarchical-0:primary SFSymbolsPreview212121" d="M82.8026-5.55485C81.2913-16.117 75.8444-35.4592 55.9327-35.4592C37.2709-35.4592 32.364-55.541 31.1227-65.137L29.0133-65.0528C30.2112-54.9776 35.0201-33.4861 55.9327-33.4861C73.3297-33.4861 78.8486-15.5449 80.4206-5.37776C77.7089-4.57135 75.5831-2.01325 75.5831 1.04657C75.5831 4.63157 78.5821 7.63064 82.1671 7.63064C85.7521 7.63064 88.7512 4.63157 88.7512 1.04657C88.7512-2.32662 86.0655-5.23281 82.8026-5.55485ZM86.6331 1.04657C86.6331 3.47097 84.5915 5.51257 82.1671 5.51257C79.7427 5.51257 77.7011 3.47097 77.7011 1.04657C77.7011-1.37783 79.7427-3.41943 82.1671-3.41943C84.5829-3.41943 86.6331-1.51411 86.6331 1.04657Z"/>
   <path class="hierarchical-1:secondary clearBehindLayer SFSymbolsPreview4D4D4D" d="M36.1633-70.5544C36.1633-74.1394 33.1643-77.1385 29.5793-77.1385C25.9943-77.1385 22.9952-74.1394 22.9952-70.5544C22.9952-67.2654 25.3328-64.6057 28.384-64.0545L28.384-5.58957C25.3328-5.02968 22.9952-2.23374 22.9952 0.910292C22.9952 4.49529 25.9943 7.49436 29.5793 7.49436C33.1556 7.49436 36.1547 4.49529 36.1547 0.910292C36.1547-2.37869 33.817-5.03836 30.7659-5.58957L30.7659-64.0545C33.817-64.6057 36.1547-67.2654 36.1633-70.5544ZM29.883-3.73186C32.4723-3.56697 34.5226-1.24765 34.349 1.34164C34.1755 3.93094 31.8561 5.98122 29.2668 5.80764C26.6775 5.64275 24.6359 3.32343 24.8095 0.73414C24.9744-1.99143 27.1575-3.89675 29.883-3.73186ZM34.0453-70.4094C34.0453-67.985 32.0037-65.9434 29.5793-65.9434C27.1549-65.9434 25.1133-67.9937 25.1133-70.4094C25.1133-72.8338 27.1636-74.8754 29.5793-74.8754C31.995-74.8754 34.0366-72.8338 34.0453-70.4094Z"/>
  </g>
  <g id="Black-S" transform="matrix(1 0 0 1 2879.25 696)">
   <path class="hierarchical-0:primary SFSymbolsPreview212121" d="M84.15-32.75C77.55-37.85 67.25-41.85 54.15-41.85C44.35-41.85 38.85-44.75 35.85-48.15L23.85-42.35C28.45-35.45 37.25-28.85 54.05-28.85C59.35-28.85 64.45-27.95 68.65-26.65C65.35-23.25 63.35-18.55 63.35-13.35C63.35-2.55 72.05 6.15 82.85 6.15C93.55 6.15 102.35-2.65 102.35-13.35C102.35-23.75 94.35-32.15 84.15-32.75ZM76.35-13.35C76.35-16.95 79.25-19.85 82.85-19.85C86.45-19.85 89.35-16.95 89.35-13.35C89.35-9.75 86.45-6.85 82.85-6.85C79.25-6.85 76.35-9.75 76.35-13.35Z"/>
   <path class="hierarchical-1:secondary clearBehindLayer SFSymbolsPreview4D4D4D" d="M45.15-57.35C45.15-68.15 36.45-76.85 25.65-76.85C14.85-76.85 6.15-68.15 6.15-57.35C6.15-48.45 12.15-40.95 20.35-38.65L20.35-32.15C12.15-29.85 6.15-22.35 6.15-13.45C6.15-2.65 14.85 6.05 25.65 6.05C36.45 6.05 45.15-2.65 45.15-13.45C45.15-22.35 39.15-29.85 30.95-32.15L30.95-38.65C39.05-40.95 45.05-48.55 45.15-57.35ZM19.05-13.35C19.05-16.95 21.95-19.85 25.55-19.85C29.15-19.85 32.05-16.95 32.05-13.35C32.05-9.75 29.15-6.85 25.55-6.85C21.95-6.85 19.05-9.75 19.05-13.35ZM32.05-57.35C32.05-53.75 29.15-50.85 25.55-50.85C21.95-50.85 19.05-53.75 19.05-57.35C19.05-60.95 21.95-63.85 25.55-63.85C29.15-63.85 32.05-60.95 32.05-57.35Z"/>
  </g>
  <g id="Heavy-S" transform="matrix(1 0 0 1 2584.56 696)">
   <path class="hierarchical-0:primary SFSymbolsPreview212121" d="M81.6718-28.8557C75.9215-35.1594 66.1879-40.8351 52.1438-40.8351C40.9277-40.8351 35.6165-45.8829 32.9941-50.1798L22.1506-45.6071C26.1134-37.7158 34.583-29.2276 52.0674-29.2276C59.2084-29.2276 64.4028-26.5575 68.1544-23.9358C64.8544-20.937 62.8072-16.5202 62.8072-11.6034C62.8072-1.98355 70.5631 5.77237 80.183 5.77237C89.7265 5.77237 97.5588-2.05995 97.5588-11.6034C97.5588-20.7525 90.5973-28.1612 81.6718-28.8557ZM76.0432-11.6034C76.0432-13.9053 77.8811-15.7432 80.183-15.7432C82.4848-15.7432 84.3228-13.9053 84.3228-11.6034C84.3228-9.30156 82.4848-7.46365 80.183-7.46365C77.9047-7.46365 76.0432-9.30156 76.0432-11.6034Z"/>
   <path class="hierarchical-1:secondary clearBehindLayer SFSymbolsPreview4D4D4D" d="M41.5861-58.4121C41.5861-68.032 33.8302-75.7879 24.2103-75.7879C14.5904-75.7879 6.83446-68.032 6.83446-58.4121C6.83446-50.5506 12.1028-43.9003 19.3351-41.7891L19.3351-28.3029C12.1028-26.2153 6.83446-19.565 6.83446-11.6798C6.83446-2.05995 14.5904 5.69597 24.2103 5.69597C33.8538 5.69597 41.6097-2.05995 41.6097-11.6798C41.6097-19.5413 36.3413-26.1917 29.109-28.3029L29.109-41.7891C36.265-43.9003 41.5333-50.627 41.5861-58.4121ZM18.3419-11.5798C18.3419-14.7786 20.9115-17.3718 24.1339-17.3718C27.3562-17.3718 29.9494-14.8022 29.9494-11.5798C29.9494-8.38108 27.3562-5.78791 24.1339-5.78791C20.9351-5.78791 18.3419-8.38108 18.3419-11.5798ZM29.9258-58.4357C29.9258-55.2369 27.3326-52.6438 24.1339-52.6438C20.9351-52.6438 18.3419-55.2133 18.3419-58.4357C18.3419-61.6345 20.9115-64.2276 24.1339-64.2276C27.3562-64.2276 29.9494-61.6345 29.9258-58.4357Z"/>
  </g>
  <g id="Bold-S" transform="matrix(1 0 0 1 2290.1 696)">
   <path class="hierarchical-0:primary SFSymbolsPreview212121" d="M78.9-24.5C74.1-32.15 65-39.7 49.9-39.7C37.1-39.7 32-47.15 29.8-52.45L20.25-49.25C23.5-40.25 31.6-29.65 49.85-29.65C59.05-29.65 64.35-25 67.6-20.9C64.3-18.35 62.2-14.25 62.2-9.65C62.2-1.35 68.9 5.35 77.2 5.35C85.45 5.35 92.2-1.4 92.2-9.65C92.2-17.4 86.4-23.7 78.9-24.5ZM75.7-9.65C75.7-10.5 76.35-11.15 77.2-11.15C78.05-11.15 78.7-10.5 78.7-9.65C78.7-8.8 78.05-8.15 77.2-8.15C76.4-8.15 75.7-8.8 75.7-9.65Z"/>
   <path class="hierarchical-1:secondary clearBehindLayer SFSymbolsPreview4D4D4D" d="M37.6-59.6C37.6-67.9 30.9-74.6 22.6-74.6C14.3-74.6 7.6-67.9 7.6-59.6C7.6-52.9 12.05-47.2 18.2-45.3L18.2-24C12.05-22.15 7.6-16.45 7.6-9.7C7.6-1.4 14.3 5.3 22.6 5.3C30.95 5.3 37.65-1.4 37.65-9.7C37.65-16.4 33.2-22.1 27.05-24L27.05-45.3C33.15-47.2 37.6-52.95 37.6-59.6ZM17.55-9.6C17.55-12.35 19.75-14.6 22.55-14.6C25.35-14.6 27.6-12.4 27.6-9.6C27.6-6.85 25.35-4.6 22.55-4.6C19.8-4.6 17.55-6.85 17.55-9.6ZM27.55-59.65C27.55-56.9 25.3-54.65 22.55-54.65C19.8-54.65 17.55-56.85 17.55-59.65C17.55-62.4 19.75-64.65 22.55-64.65C25.35-64.65 27.6-62.4 27.55-59.65Z"/>
  </g>
  <g id="Semibold-S" transform="matrix(1 0 0 1 1994.95 696)">
   <path class="hierarchical-0:primary SFSymbolsPreview212121" d="M76.989-21.497C72.8442-30.0752 64.181-38.9174 48.353-38.9174C34.461-38.9174 29.5066-48.0236 27.5978-54.0152L18.9396-51.7616C21.6982-41.9972 29.5434-29.9412 48.3212-29.9412C58.9408-29.9412 64.3136-23.9262 67.2178-18.807C63.9178-16.5664 61.7814-12.6848 61.7814-8.3032C61.7814-0.9132 67.7534 5.0588 75.1434 5.0588C82.5016 5.0588 88.5054-0.945 88.5054-8.3032C88.5054-15.0886 83.5062-20.6242 76.989-21.497ZM75.4634-8.3032C75.4634-8.1522 75.2944-7.9832 75.1434-7.9832C74.9924-7.9832 74.8234-8.1522 74.8234-8.3032C74.8234-8.4542 74.9924-8.6232 75.1434-8.6232C75.3626-8.6232 75.4634-8.4542 75.4634-8.3032Z"/>
   <path class="hierarchical-1:secondary clearBehindLayer SFSymbolsPreview4D4D4D" d="M34.8518-60.419C34.8518-67.809 28.8798-73.781 21.4898-73.781C14.0998-73.781 8.1278-67.809 8.1278-60.419C8.1278-54.5198 12.0136-49.475 17.4174-47.7206L17.4174-21.0334C12.0136-19.3472 8.1278-14.3024 8.1278-8.335C8.1278-0.945 14.0998 5.027 21.4898 5.027C28.948 5.027 34.92-0.945 34.92-8.335C34.92-14.2342 31.0342-19.279 25.6304-21.0334L25.6304-47.7206C31.0024-49.475 34.8882-54.5516 34.8518-60.419ZM17.004-8.235C17.004-10.6756 18.9492-12.689 21.458-12.689C23.9668-12.689 25.9802-10.7438 25.9802-8.235C25.9802-5.7944 23.9668-3.781 21.458-3.781C19.0174-3.781 17.004-5.7944 17.004-8.235ZM25.912-60.4872C25.912-58.0466 23.8986-56.0332 21.458-56.0332C19.0174-56.0332 17.004-57.9784 17.004-60.4872C17.004-62.9278 18.9492-64.9412 21.458-64.9412C23.9668-64.9412 25.9802-62.9278 25.912-60.4872Z"/>
  </g>
  <g id="Medium-S" transform="matrix(1 0 0 1 1699.42 696)">
   <path class="hierarchical-0:primary SFSymbolsPreview212121" d="M75.54-19.22C71.892-28.502 63.56-38.324 47.18-38.324C32.46-38.324 27.616-48.686 25.928-55.202L17.946-53.666C20.332-43.322 27.984-30.162 47.162-30.162C58.858-30.162 64.286-23.112 66.928-17.22C63.628-15.214 61.464-11.498 61.464-7.282C61.464-0.582 66.884 4.838 73.584 4.838C80.266 4.838 85.704-0.6 85.704-7.282C85.704-13.336 81.312-18.292 75.54-19.22ZM75.284-7.282C75.284-6.372 74.494-5.582 73.584-5.582C72.674-5.582 71.884-6.372 71.884-7.282C71.884-8.192 72.674-8.982 73.584-8.982C74.576-8.982 75.284-8.192 75.284-7.282Z"/>
   <path class="hierarchical-1:secondary clearBehindLayer SFSymbolsPreview4D4D4D" d="M32.768-61.04C32.768-67.74 27.348-73.16 20.648-73.16C13.948-73.16 8.528-67.74 8.528-61.04C8.528-55.748 11.986-51.2 16.824-49.556L16.824-18.784C11.986-17.222 8.528-12.674 8.528-7.3C8.528-0.6 13.948 4.82 20.648 4.82C27.43 4.82 32.85-0.6 32.85-7.3C32.85-12.592 29.392-17.14 24.554-18.784L24.554-49.556C29.374-51.2 32.832-55.766 32.768-61.04ZM16.59-7.2C16.59-9.406 18.342-11.24 20.63-11.24C22.918-11.24 24.752-9.488 24.752-7.2C24.752-4.994 22.918-3.16 20.63-3.16C18.424-3.16 16.59-4.994 16.59-7.2ZM24.67-61.122C24.67-58.916 22.836-57.082 20.63-57.082C18.424-57.082 16.59-58.834 16.59-61.122C16.59-63.328 18.342-65.162 20.63-65.162C22.918-65.162 24.752-63.328 24.67-61.122Z"/>
  </g>
  <g id="Regular-S" transform="matrix(1 0 0 1 1404.24 696)">
   <path class="hierarchical-0:primary SFSymbolsPreview212121" d="M73.65-16.25C70.65-26.45 62.75-37.55 45.65-37.55C29.85-37.55 25.15-49.55 23.75-56.75L16.65-56.15C18.55-45.05 25.95-30.45 45.65-30.45C58.75-30.45 64.25-22.05 66.55-15.15C63.25-13.45 61.05-9.95 61.05-5.95C61.05-0.15 65.75 4.55 71.55 4.55C77.35 4.55 82.05-0.15 82.05-5.95C82.05-11.05 78.45-15.25 73.65-16.25ZM75.05-5.95C75.05-4.05 73.45-2.45 71.55-2.45C69.65-2.45 68.05-4.05 68.05-5.95C68.05-7.85 69.65-9.45 71.55-9.45C73.55-9.45 75.05-7.85 75.05-5.95Z"/>
   <path class="hierarchical-1:secondary clearBehindLayer SFSymbolsPreview4D4D4D" d="M30.05-61.85C30.05-67.65 25.35-72.35 19.55-72.35C13.75-72.35 9.05-67.65 9.05-61.85C9.05-57.35 11.95-53.45 16.05-51.95L16.05-15.85C11.95-14.45 9.05-10.55 9.05-5.95C9.05-0.15 13.75 4.55 19.55 4.55C25.45 4.55 30.15-0.15 30.15-5.95C30.15-10.45 27.25-14.35 23.15-15.85L23.15-51.95C27.25-53.45 30.15-57.35 30.05-61.85ZM16.05-5.85C16.05-7.75 17.55-9.35 19.55-9.35C21.55-9.35 23.15-7.85 23.15-5.85C23.15-3.95 21.55-2.35 19.55-2.35C17.65-2.35 16.05-3.95 16.05-5.85ZM23.05-61.95C23.05-60.05 21.45-58.45 19.55-58.45C17.65-58.45 16.05-59.95 16.05-61.95C16.05-63.85 17.55-65.45 19.55-65.45C21.55-65.45 23.15-63.85 23.05-61.95Z"/>
  </g>
  <g id="Light-S" transform="matrix(1 0 0 1 1108.2 696)">
   <path class="hierarchical-0:primary SFSymbolsPreview212121" d="M70.9167-14.9167C68.4833-24.5167 61.7167-36.8833 45.0833-36.8833C29.65-36.8833 25.2167-50.05 23.95-57.35L18.55-56.9167C20.15-46.8167 26.4167-31.5167 45.0833-31.5167C58.35-31.5167 63.4833-21.35 65.45-14.1167C62.5167-12.75 60.4833-9.71667 60.4833-6.21667C60.4833-1.35 64.45 2.61667 69.3167 2.61667C74.1833 2.61667 78.15-1.35 78.15-6.21667C78.15-10.55 75.0167-14.15 70.9167-14.9167ZM72.8167-6.21667C72.8167-4.31667 71.2167-2.71667 69.3167-2.71667C67.4167-2.71667 65.8167-4.31667 65.8167-6.21667C65.8167-8.11667 67.4167-9.71667 69.3167-9.71667C71.2833-9.71667 72.8167-8.15 72.8167-6.21667Z"/>
   <path class="hierarchical-1:secondary clearBehindLayer SFSymbolsPreview4D4D4D" d="M29.5167-62.1833C29.5167-67.05 25.55-71.0167 20.6833-71.0167C15.8167-71.0167 11.85-67.05 11.85-62.1833C11.85-58.2833 14.4167-54.95 17.9833-53.7833L17.9833-14.65C14.4167-13.55 11.85-10.1833 11.85-6.25C11.85-1.38333 15.8167 2.58333 20.6833 2.58333C25.6167 2.58333 29.5833-1.38333 29.5833-6.25C29.5833-10.15 27.0167-13.4833 23.45-14.65L23.45-53.7833C27.0167-54.95 29.5833-58.2833 29.5167-62.1833ZM18.35-7.31667C18.9833-8.58333 20.5167-9.11667 21.85-8.48333C23.1833-7.85 23.7167-6.31667 23.0833-4.98333C22.45-3.71667 20.85-3.18333 19.5167-3.81667C18.25-4.48333 17.6833-6.05 18.35-7.31667ZM24.1833-62.2167C24.1833-60.3167 22.5833-58.7167 20.6833-58.7167C18.7833-58.7167 17.1833-60.25 17.1833-62.2167C17.1833-64.1167 18.7167-65.7167 20.6833-65.7167C22.65-65.7167 24.25-64.1167 24.1833-62.2167Z"/>
  </g>
  <g id="Thin-S" transform="matrix(1 0 0 1 812.371 696)">
   <path class="hierarchical-0:primary SFSymbolsPreview212121" d="M67.3016-13.1532C65.6177-21.9597 60.35-36.0016 44.3339-36.0016C29.3855-36.0016 25.3048-50.7113 24.2145-58.1435L21.0629-57.9306C22.2661-49.1532 27.0339-32.9274 44.3339-32.9274C57.821-32.9274 62.4694-20.4242 63.9952-12.75C61.5468-11.8242 59.7339-9.40806 59.7339-6.56935C59.7339-2.9371 62.7306 0.0596774 66.3629 0.0596774C69.9952 0.0596774 72.9919-2.9371 72.9919-6.56935C72.9919-9.88871 70.4758-12.6952 67.3016-13.1532ZM69.8629-6.56935C69.8629-4.66935 68.2629-3.06935 66.3629-3.06935C64.4629-3.06935 62.8629-4.66935 62.8629-6.56935C62.8629-8.46935 64.4629-10.0694 66.3629-10.0694C68.2855-10.0694 69.8629-8.54677 69.8629-6.56935Z"/>
   <path class="hierarchical-1:secondary clearBehindLayer SFSymbolsPreview4D4D4D" d="M28.8113-62.6242C28.8113-66.2565 25.8145-69.2532 22.1823-69.2532C18.55-69.2532 15.5532-66.2565 15.5532-62.6242C15.5532-59.5177 17.679-56.9339 20.5403-56.2081L20.5403-13.0629C17.679-12.3597 15.5532-9.69839 15.5532-6.64677C15.5532-3.01452 18.55-0.0177419 22.1823-0.0177419C25.8371-0.0177419 28.8339-3.01452 28.8339-6.64677C28.8339-9.75323 26.7081-12.3371 23.8468-13.0629L23.8468-56.2081C26.7081-56.9339 28.8339-59.5177 28.8113-62.6242ZM21.3919-9.25645C22.8629-9.68548 24.4403-8.80806 24.8919-7.3371C25.3435-5.86613 24.4661-4.28871 22.9952-3.8371C21.5242-3.40806 19.9242-4.28548 19.4726-5.75645C19.0435-7.30484 19.8435-8.82742 21.3919-9.25645ZM25.6823-62.5694C25.6823-60.6694 24.0823-59.0694 22.1823-59.0694C20.2823-59.0694 18.6823-60.6468 18.6823-62.5694C18.6823-64.4694 20.2597-66.0694 22.1823-66.0694C24.1048-66.0694 25.7048-64.4694 25.6823-62.5694Z"/>
  </g>
  <g id="Ultralight-S" transform="matrix(1 0 0 1 516.111 696)">
   <path class="hierarchical-0:primary SFSymbolsPreview212121" d="M65.45-12.25C64.15-20.65 59.65-35.55 43.95-35.55C29.25-35.55 25.35-51.05 24.35-58.55L22.35-58.45C23.35-50.35 27.35-33.65 43.95-33.65C57.55-33.65 61.95-19.95 63.25-12.05C61.05-11.35 59.35-9.25 59.35-6.75C59.35-3.75 61.85-1.25 64.85-1.25C67.85-1.25 70.35-3.75 70.35-6.75C70.35-9.55 68.15-11.95 65.45-12.25ZM68.35-6.75C68.35-4.85 66.75-3.25 64.85-3.25C62.95-3.25 61.35-4.85 61.35-6.75C61.35-8.65 62.95-10.25 64.85-10.25C66.75-10.25 68.35-8.75 68.35-6.75Z"/>
   <path class="hierarchical-1:secondary clearBehindLayer SFSymbolsPreview4D4D4D" d="M28.45-62.85C28.45-65.85 25.95-68.35 22.95-68.35C19.95-68.35 17.45-65.85 17.45-62.85C17.45-60.15 19.35-57.95 21.85-57.45L21.85-12.25C19.35-11.75 17.45-9.45 17.45-6.85C17.45-3.85 19.95-1.35 22.95-1.35C25.95-1.35 28.45-3.85 28.45-6.85C28.45-9.55 26.55-11.75 24.05-12.25L24.05-57.45C26.55-57.95 28.45-60.15 28.45-62.85ZM22.95-10.25C24.85-10.25 26.45-8.65 26.45-6.75C26.45-4.85 24.85-3.25 22.95-3.25C21.05-3.25 19.45-4.85 19.45-6.75C19.45-8.75 20.95-10.25 22.95-10.25ZM26.45-62.75C26.45-60.85 24.85-59.25 22.95-59.25C21.05-59.25 19.45-60.85 19.45-62.75C19.45-64.65 21.05-66.25 22.95-66.25C24.85-66.25 26.45-64.65 26.45-62.75Z"/>
  </g>
 </g>
</svg>
