<svg xmlns="http://www.w3.org/2000/svg"  viewBox="0 0 48 48" width="30px" height="30px" fill-rule="evenodd" clip-rule="evenodd" baseProfile="basic"><path fill="#ededed" fill-rule="evenodd" d="M22.903,3.286c0.679-0.381,1.515-0.381,2.193,0 c3.355,1.883,13.451,7.551,16.807,9.434C42.582,13.1,43,13.804,43,14.566c0,3.766,0,15.101,0,18.867 c0,0.762-0.418,1.466-1.097,1.847c-3.355,1.883-13.451,7.551-16.807,9.434c-0.679,0.381-1.515,0.381-2.193,0 c-3.355-1.883-13.451-7.551-16.807-9.434C5.418,34.899,5,34.196,5,33.434c0-3.766,0-15.101,0-18.867 c0-0.762,0.418-1.466,1.097-1.847C9.451,10.837,19.549,5.169,22.903,3.286z" clip-rule="evenodd"/><path fill="#434345" d="M23.987,46.221c-1.085,0-2.171-0.252-3.165-0.757c-2.22-1.127-5.118-2.899-7.921-4.613 c-1.973-1.206-3.836-2.346-5.297-3.157C5.381,36.458,4,34.113,4,31.572V16.627c0-2.59,1.417-4.955,3.699-6.173 c3.733-1.989,9.717-5.234,12.878-7.01h0c2.11-1.184,4.733-1.184,6.844,0c3.576,2.007,10.369,6.064,14.252,8.513 C43.13,12.874,44,14.453,44,16.182V32c0,2.4-0.859,4.048-2.553,4.895c-0.944,0.531-2.628,1.576-4.578,2.787 c-3.032,1.882-6.806,4.225-9.564,5.705C26.27,45.942,25.128,46.221,23.987,46.221z M21.556,5.188 C18.384,6.97,12.382,10.226,8.64,12.22C7.012,13.088,6,14.776,6,16.627v14.945c0,1.814,0.987,3.49,2.576,4.373 c1.498,0.832,3.378,1.981,5.369,3.199c2.77,1.693,5.634,3.445,7.783,4.536c1.458,0.739,3.188,0.717,4.631-0.056 c2.703-1.451,6.447-3.775,9.456-5.643c1.97-1.223,3.671-2.279,4.696-2.854C41.835,34.464,42,33.109,42,32V16.182 c0-1.037-0.521-1.983-1.392-2.532c-3.862-2.435-10.613-6.467-14.165-8.461C24.913,4.331,23.086,4.331,21.556,5.188L21.556,5.188z"/><path fill="#434345" d="M22.977,41.654l-0.057-13.438c-0.011-2.594,1.413-4.981,3.701-6.204l12.01-6.416 c1.998-1.068,4.414,0.38,4.414,2.646v14.73c0,1.041-0.54,2.008-1.426,2.554l-14.068,8.668 C25.557,45.424,22.987,43.996,22.977,41.654z"/><path fill="#ededed" d="M28.799,26.274c0.123-0.063,0.225,0.014,0.227,0.176l0.013,1.32 c0.552-0.219,1.032-0.278,1.467-0.177c0.095,0.024,0.136,0.153,0.098,0.306l-0.291,1.169c-0.024,0.089-0.072,0.178-0.132,0.233 c-0.026,0.025-0.052,0.044-0.077,0.057c-0.04,0.02-0.078,0.026-0.114,0.019c-0.199-0.045-0.671-0.148-1.413,0.228 c-0.778,0.395-1.051,1.071-1.046,1.573c0.007,0.601,0.315,0.783,1.377,0.802c1.416,0.023,2.027,0.643,2.042,2.067 c0.016,1.402-0.733,2.905-1.876,3.826l0.025,1.308c0.001,0.157-0.1,0.338-0.225,0.4l-0.775,0.445 c-0.123,0.063-0.225-0.014-0.227-0.172l-0.013-1.286c-0.664,0.276-1.334,0.342-1.763,0.17c-0.082-0.032-0.117-0.152-0.084-0.288 l0.28-1.181c0.022-0.092,0.071-0.186,0.138-0.246c0.023-0.023,0.048-0.04,0.072-0.053c0.044-0.022,0.087-0.027,0.124-0.013 c0.462,0.155,1.053,0.082,1.622-0.206c0.722-0.365,1.206-1.102,1.198-1.834c-0.007-0.664-0.366-0.939-1.241-0.946 c-1.113,0.002-2.151-0.216-2.168-1.855c-0.014-1.35,0.688-2.753,1.799-3.641l-0.013-1.319c-0.001-0.162,0.098-0.34,0.225-0.405 L28.799,26.274z"/><path fill="#4da925" d="M37.226,34.857l-3.704,2.185c-0.109,0.061-0.244-0.019-0.244-0.143v-1.252 c0-0.113,0.061-0.217,0.16-0.273l3.704-2.185c0.111-0.061,0.246,0.019,0.246,0.145v1.248 C37.388,34.697,37.326,34.801,37.226,34.857"/></svg>