<svg xmlns="http://www.w3.org/2000/svg"  viewBox="0 0 48 48" width="30px" height="30px"><path fill="#9B1010" d="M42 14L40 40 14 42z"/><path fill="#B71C1C" d="M28 28L40 40 42 14z"/><path fill="#C62828" d="M24 12.336A22.621 11.664 0 1 0 24 35.664A22.621 11.664 0 1 0 24 12.336Z" transform="rotate(-45.001 24 24)"/><path fill="#E53935" d="M10 17L17 10 25 6 31 10 28 19 19 27 10 30 6 24z"/><path fill="#FF5252" d="M31,10l-6-4h11L31,10z M42,15l-11-5l-3,9L42,15z M19,27l13.235,5.235L28,19L19,27z M10,30l4,12l5-15L10,30z M6,24v11l4-5L6,24z"/></svg>