<?xml version="1.0" encoding="UTF-8"?>
<!--Generator: Apple Native CoreSVG 149-->
<!DOCTYPE svg
PUBLIC "-//W3C//DTD SVG 1.1//EN"
       "http://www.w3.org/Graphics/SVG/1.1/DTD/svg11.dtd">
<svg version="1.1" xmlns="http://www.w3.org/2000/svg" xmlns:xlink="http://www.w3.org/1999/xlink" width="3300" height="2200">
 <!--glyph: "", point size: 100.0, font version: "17.0d9e1", template writer version: "59"-->
 <style>.hierarchical-0:secondary {fill:#4D4D4D}
.hierarchical-1:primary {fill:#212121}

.SFSymbolsPreview212121 {fill:#212121;opacity:1.0}
.SFSymbolsPreview4D4D4D {fill:#4D4D4D;opacity:1.0}
</style>
 <g id="Notes">
  <rect height="2200" id="artboard" style="fill:white;opacity:1" width="3300" x="0" y="0"/>
  <line style="fill:none;stroke:black;opacity:1;stroke-width:0.5;" x1="263" x2="3036" y1="292" y2="292"/>
  <text style="stroke:none;fill:black;font-family:sans-serif;font-size:13;font-weight:bold;" transform="matrix(1 0 0 1 263 322)">Weight/Scale Variations</text>
  <text style="stroke:none;fill:black;font-family:sans-serif;font-size:13;text-anchor:middle;" transform="matrix(1 0 0 1 559.711 322)">Ultralight</text>
  <text style="stroke:none;fill:black;font-family:sans-serif;font-size:13;text-anchor:middle;" transform="matrix(1 0 0 1 856.422 322)">Thin</text>
  <text style="stroke:none;fill:black;font-family:sans-serif;font-size:13;text-anchor:middle;" transform="matrix(1 0 0 1 1153.13 322)">Light</text>
  <text style="stroke:none;fill:black;font-family:sans-serif;font-size:13;text-anchor:middle;" transform="matrix(1 0 0 1 1449.84 322)">Regular</text>
  <text style="stroke:none;fill:black;font-family:sans-serif;font-size:13;text-anchor:middle;" transform="matrix(1 0 0 1 1746.56 322)">Medium</text>
  <text style="stroke:none;fill:black;font-family:sans-serif;font-size:13;text-anchor:middle;" transform="matrix(1 0 0 1 2043.27 322)">Semibold</text>
  <text style="stroke:none;fill:black;font-family:sans-serif;font-size:13;text-anchor:middle;" transform="matrix(1 0 0 1 2339.98 322)">Bold</text>
  <text style="stroke:none;fill:black;font-family:sans-serif;font-size:13;text-anchor:middle;" transform="matrix(1 0 0 1 2636.69 322)">Heavy</text>
  <text style="stroke:none;fill:black;font-family:sans-serif;font-size:13;text-anchor:middle;" transform="matrix(1 0 0 1 2933.4 322)">Black</text>
  <line style="fill:none;stroke:black;opacity:1;stroke-width:0.5;" x1="263" x2="3036" y1="1903" y2="1903"/>
  <g transform="matrix(1 0 0 1 263 1933)">
   <path d="M9.24805 0.830078Q10.8691 0.830078 12.2949 0.214844Q13.7207-0.400391 14.8096-1.49414Q15.8984-2.58789 16.5186-4.01367Q17.1387-5.43945 17.1387-7.05078Q17.1387-8.66211 16.5186-10.0879Q15.8984-11.5137 14.8047-12.6074Q13.7109-13.7012 12.2852-14.3164Q10.8594-14.9316 9.23828-14.9316Q7.62695-14.9316 6.20117-14.3164Q4.77539-13.7012 3.69141-12.6074Q2.60742-11.5137 1.9873-10.0879Q1.36719-8.66211 1.36719-7.05078Q1.36719-5.43945 1.9873-4.01367Q2.60742-2.58789 3.69629-1.49414Q4.78516-0.400391 6.21094 0.214844Q7.63672 0.830078 9.24805 0.830078ZM9.24805-0.654297Q7.91992-0.654297 6.7627-1.14746Q5.60547-1.64062 4.73145-2.51953Q3.85742-3.39844 3.36426-4.56055Q2.87109-5.72266 2.87109-7.05078Q2.87109-8.37891 3.35938-9.54102Q3.84766-10.7031 4.72168-11.582Q5.5957-12.4609 6.75293-12.9541Q7.91016-13.4473 9.23828-13.4473Q10.5762-13.4473 11.7334-12.9541Q12.8906-12.4609 13.7695-11.582Q14.6484-10.7031 15.1465-9.54102Q15.6445-8.37891 15.6445-7.05078Q15.6445-5.72266 15.1514-4.56055Q14.6582-3.39844 13.7842-2.51953Q12.9102-1.64062 11.748-1.14746Q10.5859-0.654297 9.24805-0.654297ZM5.83984-7.04102Q5.83984-6.71875 6.04492-6.51855Q6.25-6.31836 6.5918-6.31836L8.50586-6.31836L8.50586-4.39453Q8.50586-4.0625 8.70605-3.85742Q8.90625-3.65234 9.22852-3.65234Q9.56055-3.65234 9.76562-3.85742Q9.9707-4.0625 9.9707-4.39453L9.9707-6.31836L11.8945-6.31836Q12.2266-6.31836 12.4316-6.51855Q12.6367-6.71875 12.6367-7.04102Q12.6367-7.37305 12.4316-7.57812Q12.2266-7.7832 11.8945-7.7832L9.9707-7.7832L9.9707-9.69727Q9.9707-10.0391 9.76562-10.2441Q9.56055-10.4492 9.22852-10.4492Q8.90625-10.4492 8.70605-10.2441Q8.50586-10.0391 8.50586-9.69727L8.50586-7.7832L6.5918-7.7832Q6.25-7.7832 6.04492-7.57812Q5.83984-7.37305 5.83984-7.04102Z"/>
  </g>
  <g transform="matrix(1 0 0 1 281.867 1933)">
   <path d="M11.709 2.91016Q13.75 2.91016 15.5518 2.12891Q17.3535 1.34766 18.7305-0.0292969Q20.1074-1.40625 20.8887-3.20801Q21.6699-5.00977 21.6699-7.05078Q21.6699-9.0918 20.8887-10.8936Q20.1074-12.6953 18.7305-14.0723Q17.3535-15.4492 15.5469-16.2305Q13.7402-17.0117 11.6992-17.0117Q9.6582-17.0117 7.85645-16.2305Q6.05469-15.4492 4.68262-14.0723Q3.31055-12.6953 2.5293-10.8936Q1.74805-9.0918 1.74805-7.05078Q1.74805-5.00977 2.5293-3.20801Q3.31055-1.40625 4.6875-0.0292969Q6.06445 1.34766 7.86621 2.12891Q9.66797 2.91016 11.709 2.91016ZM11.709 1.25Q9.98047 1.25 8.47656 0.605469Q6.97266-0.0390625 5.83496-1.17676Q4.69727-2.31445 4.05762-3.81836Q3.41797-5.32227 3.41797-7.05078Q3.41797-8.7793 4.05762-10.2832Q4.69727-11.7871 5.83008-12.9297Q6.96289-14.0723 8.4668-14.7119Q9.9707-15.3516 11.6992-15.3516Q13.4277-15.3516 14.9316-14.7119Q16.4355-14.0723 17.5781-12.9297Q18.7207-11.7871 19.3652-10.2832Q20.0098-8.7793 20.0098-7.05078Q20.0098-5.32227 19.3701-3.81836Q18.7305-2.31445 17.5928-1.17676Q16.4551-0.0390625 14.9463 0.605469Q13.4375 1.25 11.709 1.25ZM7.39258-7.04102Q7.39258-6.68945 7.62695-6.46484Q7.86133-6.24023 8.23242-6.24023L10.8789-6.24023L10.8789-3.57422Q10.8789-3.21289 11.1035-2.9834Q11.3281-2.75391 11.6797-2.75391Q12.0508-2.75391 12.2852-2.9834Q12.5195-3.21289 12.5195-3.57422L12.5195-6.24023L15.1758-6.24023Q15.5371-6.24023 15.7715-6.46484Q16.0059-6.68945 16.0059-7.04102Q16.0059-7.41211 15.7715-7.6416Q15.5371-7.87109 15.1758-7.87109L12.5195-7.87109L12.5195-10.5176Q12.5195-10.8984 12.2852-11.1279Q12.0508-11.3574 11.6797-11.3574Q11.3281-11.3574 11.1035-11.1279Q10.8789-10.8984 10.8789-10.5176L10.8789-7.87109L8.23242-7.87109Q7.85156-7.87109 7.62207-7.6416Q7.39258-7.41211 7.39258-7.04102Z"/>
  </g>
  <g transform="matrix(1 0 0 1 305.646 1933)">
   <path d="M14.9707 5.66406Q17.0605 5.66406 18.96 5.01465Q20.8594 4.36523 22.4512 3.19336Q24.043 2.02148 25.2197 0.429688Q26.3965-1.16211 27.0459-3.06641Q27.6953-4.9707 27.6953-7.05078Q27.6953-9.14062 27.0459-11.04Q26.3965-12.9395 25.2197-14.5312Q24.043-16.123 22.4512-17.2998Q20.8594-18.4766 18.9551-19.126Q17.0508-19.7754 14.9609-19.7754Q12.8711-19.7754 10.9717-19.126Q9.07227-18.4766 7.48535-17.2998Q5.89844-16.123 4.72168-14.5312Q3.54492-12.9395 2.90039-11.04Q2.25586-9.14062 2.25586-7.05078Q2.25586-4.9707 2.90527-3.06641Q3.55469-1.16211 4.72656 0.429688Q5.89844 2.02148 7.49023 3.19336Q9.08203 4.36523 10.9814 5.01465Q12.8809 5.66406 14.9707 5.66406ZM14.9707 3.84766Q13.1641 3.84766 11.5283 3.2959Q9.89258 2.74414 8.53516 1.74805Q7.17773 0.751953 6.17676-0.610352Q5.17578-1.97266 4.62891-3.6084Q4.08203-5.24414 4.08203-7.05078Q4.08203-8.86719 4.62891-10.5029Q5.17578-12.1387 6.17188-13.501Q7.16797-14.8633 8.52539-15.8594Q9.88281-16.8555 11.5186-17.4023Q13.1543-17.9492 14.9609-17.9492Q16.7773-17.9492 18.4131-17.4023Q20.0488-16.8555 21.4111-15.8594Q22.7734-14.8633 23.7695-13.501Q24.7656-12.1387 25.3174-10.5029Q25.8691-8.86719 25.8691-7.05078Q25.8789-5.24414 25.332-3.6084Q24.7852-1.97266 23.7842-0.610352Q22.7832 0.751953 21.4209 1.74805Q20.0586 2.74414 18.4229 3.2959Q16.7871 3.84766 14.9707 3.84766ZM9.45312-7.04102Q9.45312-6.66016 9.71191-6.41113Q9.9707-6.16211 10.3711-6.16211L14.0625-6.16211L14.0625-2.46094Q14.0625-2.06055 14.3115-1.80664Q14.5605-1.55273 14.9414-1.55273Q15.3516-1.55273 15.6055-1.80664Q15.8594-2.06055 15.8594-2.46094L15.8594-6.16211L19.5605-6.16211Q19.9609-6.16211 20.2148-6.41113Q20.4688-6.66016 20.4688-7.04102Q20.4688-7.45117 20.2148-7.70508Q19.9609-7.95898 19.5605-7.95898L15.8594-7.95898L15.8594-11.6504Q15.8594-12.0605 15.6055-12.3145Q15.3516-12.5684 14.9414-12.5684Q14.5605-12.5684 14.3115-12.3096Q14.0625-12.0508 14.0625-11.6504L14.0625-7.95898L10.3711-7.95898Q9.96094-7.95898 9.70703-7.70508Q9.45312-7.45117 9.45312-7.04102Z"/>
  </g>
  <text style="stroke:none;fill:black;font-family:sans-serif;font-size:13;font-weight:bold;" transform="matrix(1 0 0 1 263 1953)">Design Variations</text>
  <text style="stroke:none;fill:black;font-family:sans-serif;font-size:13;" transform="matrix(1 0 0 1 263 1971)">Symbols are supported in up to nine weights and three scales.</text>
  <text style="stroke:none;fill:black;font-family:sans-serif;font-size:13;" transform="matrix(1 0 0 1 263 1989)">For optimal layout with text and other symbols, vertically align</text>
  <text style="stroke:none;fill:black;font-family:sans-serif;font-size:13;" transform="matrix(1 0 0 1 263 2007)">symbols with the adjacent text.</text>
  <line style="fill:none;stroke:#00AEEF;stroke-width:0.5;opacity:1.0;" x1="776" x2="776" y1="1919" y2="1933"/>
  <g transform="matrix(1 0 0 1 776 1933)">
   <path d="M3.31055 0.15625Q3.70117 0.15625 3.91602-0.00976562Q4.13086-0.175781 4.26758-0.585938L5.52734-4.0332L11.2891-4.0332L12.5488-0.585938Q12.6855-0.175781 12.9004-0.00976562Q13.1152 0.15625 13.4961 0.15625Q13.8867 0.15625 14.1162-0.0585938Q14.3457-0.273438 14.3457-0.644531Q14.3457-0.869141 14.2383-1.17188L9.6582-13.3691Q9.48242-13.8184 9.17969-14.043Q8.87695-14.2676 8.4082-14.2676Q7.5-14.2676 7.17773-13.3789L2.59766-1.16211Q2.49023-0.859375 2.49023-0.634766Q2.49023-0.263672 2.70996-0.0537109Q2.92969 0.15625 3.31055 0.15625ZM6.00586-5.51758L8.37891-12.0898L8.42773-12.0898L10.8008-5.51758Z"/>
  </g>
  <line style="fill:none;stroke:#00AEEF;stroke-width:0.5;opacity:1.0;" x1="793.197" x2="793.197" y1="1919" y2="1933"/>
  <text style="stroke:none;fill:black;font-family:sans-serif;font-size:13;font-weight:bold;" transform="matrix(1 0 0 1 776 1953)">Margins</text>
  <text style="stroke:none;fill:black;font-family:sans-serif;font-size:13;" transform="matrix(1 0 0 1 776 1971)">Leading and trailing margins on the left and right side of each symbol</text>
  <text style="stroke:none;fill:black;font-family:sans-serif;font-size:13;" transform="matrix(1 0 0 1 776 1989)">can be adjusted by modifying the x-location of the margin guidelines.</text>
  <text style="stroke:none;fill:black;font-family:sans-serif;font-size:13;" transform="matrix(1 0 0 1 776 2007)">Modifications are automatically applied proportionally to all</text>
  <text style="stroke:none;fill:black;font-family:sans-serif;font-size:13;" transform="matrix(1 0 0 1 776 2025)">scales and weights.</text>
  <g transform="matrix(1 0 0 1 1289 1933)">
   <path d="M2.8418 1.86523L4.54102 3.57422Q5.18555 4.22852 5.90332 4.17969Q6.62109 4.13086 7.31445 3.35938L18.0078-8.42773L17.041-9.4043L6.42578 2.27539Q6.16211 2.57812 5.89355 2.61719Q5.625 2.65625 5.27344 2.30469L4.10156 1.14258Q3.75 0.791016 3.79395 0.522461Q3.83789 0.253906 4.14062-0.0195312L15.6152-10.8203L14.6387-11.7871L3.04688-0.898438Q2.30469-0.214844 2.25098 0.498047Q2.19727 1.21094 2.8418 1.86523ZM9.25781-16.3281Q8.94531-16.0254 8.90625-15.6348Q8.86719-15.2441 9.04297-14.9512Q9.21875-14.6777 9.55566-14.541Q9.89258-14.4043 10.3809-14.5215Q11.4746-14.7754 12.5977-14.7314Q13.7207-14.6875 14.7949-13.9844L14.209-12.5293Q13.9551-11.9043 14.0674-11.4404Q14.1797-10.9766 14.5801-10.5664L16.875-8.25195Q17.2363-7.88086 17.5781-7.82227Q17.9199-7.76367 18.3398-7.8418L19.4043-8.03711L20.0684-7.36328L20.0293-6.80664Q20-6.43555 20.1221-6.12305Q20.2441-5.81055 20.6055-5.44922L21.3672-4.70703Q21.7285-4.3457 22.1533-4.33105Q22.5781-4.31641 22.9297-4.66797L25.8398-7.58789Q26.1914-7.93945 26.1816-8.35449Q26.1719-8.76953 25.8105-9.13086L25.0391-9.89258Q24.6875-10.2539 24.3799-10.3857Q24.0723-10.5176 23.7109-10.4883L23.1348-10.4395L22.4902-11.0742L22.7344-12.1973Q22.832-12.6172 22.6953-12.9834Q22.5586-13.3496 22.1191-13.7891L19.9219-15.9766Q18.6719-17.2168 17.2607-17.8369Q15.8496-18.457 14.4189-18.4814Q12.9883-18.5059 11.665-17.959Q10.3418-17.4121 9.25781-16.3281ZM10.752-15.957Q11.6602-16.6211 12.7002-16.9043Q13.7402-17.1875 14.8047-17.085Q15.8691-16.9824 16.8701-16.5137Q17.8711-16.0449 18.7012-15.2051L21.1328-12.793Q21.3086-12.6172 21.3525-12.4512Q21.3965-12.2852 21.3379-12.0312L21.0156-10.5469L22.5195-9.0625L23.5059-9.12109Q23.6914-9.13086 23.7891-9.09668Q23.8867-9.0625 24.0332-8.91602L24.6094-8.33984L22.168-5.89844L21.5918-6.47461Q21.4453-6.62109 21.4062-6.71875Q21.3672-6.81641 21.377-7.01172L21.4453-7.98828L19.9512-9.47266L18.4277-9.21875Q18.1836-9.16992 18.042-9.2041Q17.9004-9.23828 17.7148-9.41406L15.7129-11.416Q15.5176-11.5918 15.4932-11.7529Q15.4688-11.9141 15.5859-12.1875L16.4648-14.2773Q15.293-15.3711 13.8281-15.791Q12.3633-16.2109 10.8398-15.7617Q10.7227-15.7324 10.6885-15.8057Q10.6543-15.8789 10.752-15.957Z"/>
  </g>
  <text style="stroke:none;fill:black;font-family:sans-serif;font-size:13;font-weight:bold;" transform="matrix(1 0 0 1 1289 1953)">Exporting</text>
  <text style="stroke:none;fill:black;font-family:sans-serif;font-size:13;" transform="matrix(1 0 0 1 1289 1971)">Symbols should be outlined when exporting to ensure the</text>
  <text style="stroke:none;fill:black;font-family:sans-serif;font-size:13;" transform="matrix(1 0 0 1 1289 1989)">design is preserved when submitting to Xcode.</text>
  <text id="template-version" style="stroke:none;fill:black;font-family:sans-serif;font-size:13;text-anchor:end;" transform="matrix(1 0 0 1 3036 1933)">Template v.3.0</text>
  <text style="stroke:none;fill:black;font-family:sans-serif;font-size:13;text-anchor:end;" transform="matrix(1 0 0 1 3036 1951)">Requires Xcode 13 or greater</text>
  <text id="descriptive-name" style="stroke:none;fill:black;font-family:sans-serif;font-size:13;text-anchor:end;" transform="matrix(1 0 0 1 3036 1969)">Generated from git.pullrequest</text>
  <text style="stroke:none;fill:black;font-family:sans-serif;font-size:13;text-anchor:end;" transform="matrix(1 0 0 1 3036 1987)">Typeset at 100 points</text>
  <text style="stroke:none;fill:black;font-family:sans-serif;font-size:13;" transform="matrix(1 0 0 1 263 726)">Small</text>
  <text style="stroke:none;fill:black;font-family:sans-serif;font-size:13;" transform="matrix(1 0 0 1 263 1156)">Medium</text>
  <text style="stroke:none;fill:black;font-family:sans-serif;font-size:13;" transform="matrix(1 0 0 1 263 1586)">Large</text>
 </g>
 <g id="Guides">
  <g id="H-reference" style="fill:#27AAE1;stroke:none;" transform="matrix(1 0 0 1 339 696)">
   <path d="M0.976562 0L3.66211 0L29.3457-67.1387L30.0293-67.1387L30.0293-70.459L28.125-70.459ZM11.6699-24.4629L46.9727-24.4629L46.2402-26.709L12.4512-26.709ZM55.127 0L57.7637 0L30.6152-70.459L29.4434-70.459L29.4434-67.1387Z"/>
  </g>
  <line id="Baseline-S" style="fill:none;stroke:#27AAE1;opacity:1;stroke-width:0.5;" x1="263" x2="3036" y1="696" y2="696"/>
  <line id="Capline-S" style="fill:none;stroke:#27AAE1;opacity:1;stroke-width:0.5;" x1="263" x2="3036" y1="625.541" y2="625.541"/>
  <g id="H-reference" style="fill:#27AAE1;stroke:none;" transform="matrix(1 0 0 1 339 1126)">
   <path d="M0.976562 0L3.66211 0L29.3457-67.1387L30.0293-67.1387L30.0293-70.459L28.125-70.459ZM11.6699-24.4629L46.9727-24.4629L46.2402-26.709L12.4512-26.709ZM55.127 0L57.7637 0L30.6152-70.459L29.4434-70.459L29.4434-67.1387Z"/>
  </g>
  <line id="Baseline-M" style="fill:none;stroke:#27AAE1;opacity:1;stroke-width:0.5;" x1="263" x2="3036" y1="1126" y2="1126"/>
  <line id="Capline-M" style="fill:none;stroke:#27AAE1;opacity:1;stroke-width:0.5;" x1="263" x2="3036" y1="1055.54" y2="1055.54"/>
  <g id="H-reference" style="fill:#27AAE1;stroke:none;" transform="matrix(1 0 0 1 339 1556)">
   <path d="M0.976562 0L3.66211 0L29.3457-67.1387L30.0293-67.1387L30.0293-70.459L28.125-70.459ZM11.6699-24.4629L46.9727-24.4629L46.2402-26.709L12.4512-26.709ZM55.127 0L57.7637 0L30.6152-70.459L29.4434-70.459L29.4434-67.1387Z"/>
  </g>
  <line id="Baseline-L" style="fill:none;stroke:#27AAE1;opacity:1;stroke-width:0.5;" x1="263" x2="3036" y1="1556" y2="1556"/>
  <line id="Capline-L" style="fill:none;stroke:#27AAE1;opacity:1;stroke-width:0.5;" x1="263" x2="3036" y1="1485.54" y2="1485.54"/>
  <line id="left-margin-Regular-M" style="fill:none;stroke:#00AEEF;stroke-width:0.5;opacity:1.0;" x1="1392.13" x2="1392.13" y1="1030.73" y2="1150.14"/>
  <line id="right-margin-Regular-M" style="fill:none;stroke:#00AEEF;stroke-width:0.5;opacity:1.0;" x1="1507.55" x2="1507.55" y1="1030.73" y2="1150.14"/>
 </g>
 <g id="Symbols">
  <g id="Black-L" transform="matrix(1 0 0 1 2848.12 1556)">
   <path class="hierarchical-0:secondary SFSymbolsPreview4D4D4D" d="M47.3517-22.1542L47.3517-46.4441C58.9665-49.8452 67.4246-60.5299 67.4246-73.1571C67.4246-88.6168 54.957-101.084 39.4549-101.084C23.9952-101.084 11.5276-88.7364 11.5276-73.2768C11.5276-60.6097 19.9857-49.9224 31.6005-46.5637L31.6005-22.2738C19.9857-18.7531 11.5276-8.06841 11.5276 4.5588C11.5276 20.0185 23.9952 32.4861 39.4549 32.4861C54.9146 32.4861 67.3822 20.0185 67.3822 4.5588C67.4246-8.06841 58.9665-18.7531 47.3517-22.1542ZM39.4051-82.58C44.5603-82.63 48.7505-78.5241 48.8006-73.4114C48.8506-68.2562 44.7447-64.1085 39.5895-64.0584C34.4344-64.0084 30.2866-68.1143 30.2365-73.227C30.1414-78.3397 34.25-82.5299 39.4051-82.58ZM39.4973 13.9542C34.2921 13.9542 30.1443 9.76403 30.1443 4.60125C30.1443-0.603987 34.3346-4.75175 39.4973-4.75175C44.6601-4.75175 48.8503-0.561538 48.8503 4.60125C48.8503 9.76403 44.6601 13.9542 39.4973 13.9542Z"/>
   <path class="hierarchical-1:primary SFSymbolsPreview212121" d="M139.069-22.1542L139.069-50.9625L139.069-51.4168L139.069-67.0672C139.069-71.8745 137.831-75.5187 135.194-78.0367C132.676-80.5548 128.872-81.9148 123.948-81.9148L107.385-81.9148L107.385-91.1615C107.385-93.6483 106.405-95.2822 104.322-95.9781C102.239-96.6741 100.278-96.2304 98.3629-94.4345L81.27-78.967C79.6285-77.53 78.7678-75.8537 78.7678-73.9356C78.7678-72.137 79.6285-70.4608 81.27-68.9041L98.3629-53.4366C100.281-51.6832 102.242-51.1944 104.322-51.893C106.405-52.7086 107.385-54.3 107.385-56.6671L107.385-65.9616L119.238-65.9616C120.538-65.9616 121.409-65.5394 122.134-64.8544C122.859-64.127 123.161-63.0145 123.161-61.6714L123.161-51.3396L123.161-51.005L123.161-22.2391C111.666-18.8805 103.165-8.15331 103.165 4.4739C103.165 19.8139 115.753 32.4012 131.093 32.4012C146.433 32.4012 159.02 19.8139 159.02 4.4739C159.023-8.06841 150.522-18.7531 139.069-22.1542ZM131.053 13.9542C125.848 13.9542 121.7 9.76403 121.7 4.60125C121.7-0.603987 125.89-4.75175 131.053-4.75175C136.258-4.75175 140.406-0.561538 140.406 4.60125C140.448 9.76403 136.258 13.9542 131.053 13.9542Z"/>
  </g>
  <g id="Heavy-L" transform="matrix(1 0 0 1 2554.03 1556)">
   <path class="hierarchical-0:secondary SFSymbolsPreview4D4D4D" d="M45.2267-17.2011L45.2267-50.732C55.5285-53.81 63.0142-63.3131 63.0142-74.5232C63.0142-88.299 51.8897-99.4235 38.0529-99.4235C24.277-99.4235 13.1526-88.3904 13.1526-74.6146C13.1526-63.3559 20.6383-53.8405 30.9401-50.8234L30.9401-17.2925C20.6383-14.1231 13.1526-4.62001 13.1526 6.59003C13.1526 20.3659 24.277 31.4903 38.0529 31.4903C51.8288 31.4903 62.9532 20.3659 62.9532 6.59003C63.0142-4.62001 55.5285-14.1231 45.2267-17.2011ZM37.6812-82.749C42.1902-82.9839 46.0134-79.5562 46.2483-75.1081C46.4831-70.5992 43.0555-66.8369 38.5465-66.602C34.0375-66.3672 30.2752-69.7949 30.0404-74.2429C29.7322-78.6909 33.1722-82.5142 37.6812-82.749ZM38.1138 15.1571C33.37 15.1571 29.6077 11.3339 29.6077 6.65098C29.6077 1.90715 33.431-1.85513 38.1138-1.85513C42.7967-1.85513 46.62 1.9681 46.62 6.65098C46.62 11.3339 42.7967 15.1571 38.1138 15.1571Z"/>
   <path class="hierarchical-1:primary SFSymbolsPreview212121" d="M134.466-17.2011L134.466-50.2934L134.466-50.7389L134.466-66.9838C134.466-72.0716 133.191-75.9026 130.489-78.5132C127.878-81.1237 123.907-82.5023 118.741-82.5023L102.084-82.5023L102.084-91.8911C102.084-94.2446 101.132-95.8298 99.1265-96.5248C97.1205-97.2198 95.2182-96.8238 93.3893-95.0862L76.7879-80.2242C75.1113-78.7608 74.2515-77.1146 74.2515-75.2734C74.2515-73.5235 75.1113-71.8773 76.7879-70.3226L93.3893-55.4605C95.2306-53.7839 97.1328-53.3145 99.1265-54.0219C101.132-54.8083 102.084-56.3326 102.084-58.5947L102.084-68.0692L115.103-68.0692C116.783-68.0692 117.938-67.5808 118.824-66.744C119.709-65.8462 120.106-64.4963 120.106-62.7551L120.106-50.7085L120.106-50.3544L120.106-17.323C109.896-14.306 102.349-4.74192 102.349 6.46812C102.349 20.1526 113.565 31.3684 127.249 31.3684C140.934 31.3684 152.15 20.1526 152.15 6.46812C152.162-4.62001 144.615-14.1231 134.466-17.2011ZM127.201 15.1571C122.457 15.1571 118.694 11.3339 118.694 6.65098C118.694 1.90715 122.518-1.85513 127.201-1.85513C131.944-1.85513 135.707 1.9681 135.707 6.65098C135.768 11.3339 131.944 15.1571 127.201 15.1571Z"/>
  </g>
  <g id="Bold-L" transform="matrix(1 0 0 1 2260.36 1556)">
   <path class="hierarchical-0:secondary SFSymbolsPreview4D4D4D" d="M42.879-11.3205L42.879-55.7252C51.6176-58.3828 57.9567-66.4639 57.9567-75.9826C57.9567-87.7098 48.4644-97.2021 36.6614-97.2021C24.9342-97.2021 15.4419-87.7696 15.4419-76.0424C15.4419-66.4771 21.7809-58.3669 30.5196-55.785L30.5196-11.3803C21.7809-8.66289 15.4419-0.581786 15.4419 8.93685C15.4419 20.6641 24.9342 30.1563 36.6614 30.1563C48.3886 30.1563 57.8809 20.6641 57.8809 8.93685C57.9567-0.581786 51.6176-8.66289 42.879-11.3205ZM35.7174-82.6572C39.3857-83.2107 42.7984-80.7304 43.3519-77.1379C43.9055-73.4696 41.4251-70.1327 37.7569-69.5791C34.0886-69.0256 30.7517-71.5059 30.1981-75.0984C29.5397-78.6909 32.0492-82.1036 35.7174-82.6572ZM36.7372 16.5714C32.5154 16.5714 29.1784 13.1586 29.1784 9.01261C29.1784 4.79081 32.5911 1.45386 36.7372 1.45386C40.8832 1.45386 44.2959 4.86657 44.2959 9.01261C44.2959 13.1586 40.8832 16.5714 36.7372 16.5714Z"/>
   <path class="hierarchical-1:primary SFSymbolsPreview212121" d="M128.75-11.3205L128.75-49.2522L128.75-49.6997L128.75-66.8159C128.75-72.182 127.446-76.1986 124.701-78.8831C122.017-81.5677 117.894-82.9611 112.497-82.9611L95.5578-82.9611L95.5578-92.5266C95.5578-94.7014 94.657-96.2027 92.7665-96.879C90.8759-97.5553 89.0743-97.2244 87.3776-95.5875L71.3674-81.4616C69.6986-80.0041 68.8576-78.427 68.8576-76.7012C68.8576-75.0352 69.6986-73.4581 71.3674-71.9408L87.3776-57.8149C89.1035-56.2538 90.9051-55.8179 92.7665-56.5234C94.657-57.2595 95.5578-58.685 95.5578-60.8001L95.5578-70.4996L110.06-70.4996C112.223-70.4996 113.731-69.9313 114.808-68.901C115.885-67.7951 116.394-66.1383 116.394-63.8988L116.394-49.7157L116.394-49.328L116.394-11.472C107.715-8.89016 101.3-0.733299 101.3 8.78534C101.3 20.4528 110.852 30.0048 122.519 30.0048C134.187 30.0048 143.739 20.4528 143.739 8.78534C143.768-0.581786 137.353-8.66289 128.75-11.3205ZM122.473 16.5714C118.251 16.5714 114.914 13.1586 114.914 9.01261C114.914 4.79081 118.327 1.45386 122.473 1.45386C126.695 1.45386 130.032 4.86657 130.032 9.01261C130.107 13.1586 126.695 16.5714 122.473 16.5714Z"/>
  </g>
  <g id="Semibold-L" transform="matrix(1 0 0 1 1965.74 1556)">
   <path class="hierarchical-0:secondary SFSymbolsPreview4D4D4D" d="M41.2605-7.26646L41.2605-59.1675C48.9216-61.5353 54.47-68.6361 54.47-76.9887C54.47-87.3036 46.103-95.6707 35.7021-95.6707C25.3872-95.6707 17.0201-87.3417 17.0201-77.0267C17.0201-68.6289 22.5686-61.4874 30.2297-59.2055L30.2297-7.30449C22.5686-4.89864 17.0201 2.20214 17.0201 10.5547C17.0201 20.8697 25.3872 29.2367 35.7021 29.2367C46.017 29.2367 54.3841 20.8697 54.3841 10.5547C54.47 2.20214 48.9216-4.89864 41.2605-7.26646ZM34.3636-82.5939C37.4522-83.3671 40.5819-81.5398 41.3552-78.5372C42.1285-75.4485 40.3012-72.4048 37.2125-71.6315C34.1239-70.8582 31.0802-72.6856 30.3069-75.6882C29.407-78.6909 31.275-81.8206 34.3636-82.5939ZM35.7881 17.5463C31.9262 17.5463 28.8824 14.4166 28.8824 10.6407C28.8824 6.77879 32.0121 3.73506 35.7881 3.73506C39.564 3.73506 42.6937 6.86475 42.6937 10.6407C42.6937 14.4166 39.564 17.5463 35.7881 17.5463Z"/>
   <path class="hierarchical-1:primary SFSymbolsPreview212121" d="M124.81-7.26646L124.81-48.5345L124.81-48.9833L124.81-66.7001C124.81-72.2581 123.485-76.4026 120.711-79.1382C117.976-81.8738 113.748-83.2774 108.193-83.2774L91.059-83.2774L91.059-92.9646C91.059-95.0163 90.1929-96.4598 88.3819-97.1232C86.571-97.7866 84.8388-97.5005 83.2332-95.933L67.6305-82.3146C65.9671-80.8612 65.139-79.3318 65.139-77.6855C65.139-76.0773 65.9671-74.5479 67.6305-73.0564L83.2332-59.438C84.8795-57.9565 86.6117-57.5438 88.3819-58.2479C90.1929-58.9493 91.059-60.3068 91.059-62.3205L91.059-72.1751L106.583-72.1751C109.08-72.1751 110.831-71.5517 112.04-70.3881C113.249-69.1386 113.834-67.2702 113.834-64.6872L113.834-49.0312L113.834-48.6204L113.834-7.43838C106.211-5.15653 100.577 2.03022 100.577 10.3828C100.577 20.6597 108.982 29.0648 119.259 29.0648C129.536 29.0648 137.941 20.6597 137.941 10.3828C137.981 2.20214 132.347-4.89864 124.81-7.26646ZM119.213 17.5463C115.352 17.5463 112.308 14.4166 112.308 10.6407C112.308 6.77879 115.438 3.73506 119.213 3.73506C123.075 3.73506 126.119 6.86475 126.119 10.6407C126.205 14.4166 123.075 17.5463 119.213 17.5463Z"/>
  </g>
  <g id="Medium-L" transform="matrix(1 0 0 1 1670.62 1556)">
   <path class="hierarchical-0:secondary SFSymbolsPreview4D4D4D" d="M40.0333-4.1925L40.0333-61.7776C46.8773-63.9256 51.8264-70.2831 51.8264-77.7516C51.8264-86.9956 44.3125-94.5095 34.9747-94.5095C25.7307-94.5095 18.2168-87.0172 18.2168-77.7731C18.2168-70.2604 23.1659-63.8535 30.0099-61.7991L30.0099-4.21403C23.1659-2.04443 18.2168 4.31304 18.2168 11.7815C18.2168 21.0255 25.7307 28.5394 34.9747 28.5394C44.2188 28.5394 51.7326 21.0255 51.7326 11.7815C51.8264 4.31304 46.8773-2.04443 40.0333-4.1925ZM33.3371-82.5459C35.9862-83.4857 38.9013-82.1536 39.8412-79.5982C40.7811-76.949 39.4489-74.1276 36.7998-73.1877C34.1507-72.2478 31.3293-73.58 30.3894-76.1354C29.3063-78.6909 30.6879-81.606 33.3371-82.5459ZM35.0684 18.2856C31.4794 18.2856 28.658 15.3705 28.658 11.8752C28.658 8.28616 31.5731 5.46476 35.0684 5.46476C38.5638 5.46476 41.4789 8.37986 41.4789 11.8752C41.4789 15.3705 38.5638 18.2856 35.0684 18.2856Z"/>
   <path class="hierarchical-1:primary SFSymbolsPreview212121" d="M121.822-4.1925L121.822-47.9902L121.822-48.4401L121.822-66.6124C121.822-72.3158 120.482-76.5573 117.686-79.3316C114.912-82.1059 110.604-83.5172 104.929-83.5172L87.6478-83.5172L87.6478-93.2968C87.6478-95.2551 86.808-96.6548 85.0574-97.3084C83.3068-97.9619 81.6272-97.7099 80.0908-96.195L64.797-82.9615C63.1377-81.5112 62.3195-80.0178 62.3195-78.4319C62.3195-76.8675 63.1377-75.3742 64.797-73.9023L80.0908-60.6688C81.6767-59.2476 83.3563-58.8524 85.0574-59.5554C86.808-60.2305 87.6478-61.5365 87.6478-63.4733L87.6478-73.4455L103.946-73.4455C106.696-73.4455 108.632-72.7803 109.941-71.5157C111.25-70.1573 111.894-68.1285 111.894-65.285L111.894-48.5123L111.894-48.0839L111.894-4.37991C105.071-2.32554 100.028 4.12563 100.028 11.5941C100.028 20.8166 107.564 28.352 116.786 28.352C126.009 28.352 133.544 20.8166 133.544 11.5941C133.594 4.31304 128.551-2.04443 121.822-4.1925ZM116.742 18.2856C113.153 18.2856 110.332 15.3705 110.332 11.8752C110.332 8.28616 113.247 5.46476 116.742 5.46476C120.331 5.46476 123.153 8.37986 123.153 11.8752C123.246 15.3705 120.331 18.2856 116.742 18.2856Z"/>
  </g>
  <g id="Regular-L" transform="matrix(1 0 0 1 1375.99 1556)">
   <path class="hierarchical-0:secondary SFSymbolsPreview4D4D4D" d="M38.4326-0.183002L38.4326-65.182C44.2108-67.0435 48.3781-72.4314 48.3781-78.7466C48.3781-86.5939 41.9771-92.9949 34.026-92.9949C26.1787-92.9949 19.7777-86.5939 19.7777-78.7466C19.7777-72.3885 23.945-66.9397 29.7232-65.182L29.7232-0.183002C23.945 1.67845 19.7777 7.06637 19.7777 13.3816C19.7777 21.2289 26.1787 27.6299 34.026 27.6299C41.8733 27.6299 48.2743 21.2289 48.2743 13.3816C48.3781 7.06637 44.2108 1.67845 38.4326-0.183002ZM31.9981-82.4832C34.074-83.6404 36.7092-82.9542 37.8664-80.9821C39.0236-78.9062 38.3374-76.3748 36.2614-75.2176C34.1855-74.0604 31.6541-74.7466 30.4969-76.7187C29.1751-78.6909 29.9222-81.3261 31.9981-82.4832ZM34.1298 19.2499C30.8967 19.2499 28.3653 16.6147 28.3653 13.4854C28.3653 10.2523 31.0005 7.72089 34.1298 7.72089C37.2591 7.72089 39.8943 10.3561 39.8943 13.4854C39.8943 16.6147 37.2591 19.2499 34.1298 19.2499Z"/>
   <path class="hierarchical-1:primary SFSymbolsPreview212121" d="M117.925-0.183002L117.925-47.2803L117.925-47.7315L117.925-66.4979C117.925-72.3911 116.565-76.7591 113.74-79.5838C110.915-82.4086 106.504-83.83 100.672-83.83L83.1984-83.83L83.1984-93.73C83.1984-95.5666 82.3929-96.9091 80.721-97.5499C79.0491-98.1907 77.4382-97.9831 75.9919-96.5368L61.1011-83.8051C59.4473-82.3589 58.6418-80.9126 58.6418-79.4054C58.6418-77.8982 59.4473-76.452 61.1011-75.0057L75.9919-62.274C77.4991-60.9316 79.11-60.5593 80.721-61.261C82.3929-61.9017 83.1984-63.1404 83.1984-64.977L83.1984-75.1026L100.507-75.1026C103.587-75.1026 105.764-74.3829 107.203-72.9864C108.643-71.4861 109.363-69.2481 109.363-66.0647L109.363-47.8353L109.363-47.3841L109.363-0.390593C103.584 1.36707 99.3132 6.85878 99.3132 13.174C99.3132 21.0213 105.714 27.4223 113.562 27.4223C121.409 27.4223 127.81 21.0213 127.81 13.174C127.871 7.06637 123.6 1.67845 117.925-0.183002ZM113.519 19.2499C110.286 19.2499 107.754 16.6147 107.754 13.4854C107.754 10.2523 110.389 7.72089 113.519 7.72089C116.752 7.72089 119.283 10.3561 119.283 13.4854C119.387 16.6147 116.752 19.2499 113.519 19.2499Z"/>
  </g>
  <g id="Light-L" transform="matrix(1 0 0 1 1080.14 1556)">
   <path class="hierarchical-0:secondary SFSymbolsPreview4D4D4D" d="M38.6427 2.24021L38.6427-66.5834C43.7485-68.0246 47.4954-72.698 47.4954-78.2567C47.4954-84.9272 42.0191-90.4036 35.2869-90.4036C28.6164-90.4036 23.14-84.9272 23.14-78.2567C23.14-72.7392 26.887-67.9628 31.9928-66.5834L31.9928 2.24021C26.887 3.68137 23.14 8.3548 23.14 13.9135C23.14 20.584 28.6164 26.0603 35.2869 26.0603C41.9573 26.0603 47.4337 20.584 47.4337 13.9135C47.4954 8.3548 43.7485 3.68137 38.6427 2.24021ZM31.7459-80.4803C32.9813-82.4361 35.6165-83.0947 37.5722-81.9212C39.528-80.6859 40.1866-78.1124 38.9513-76.1567C37.716-74.2009 35.1425-73.5423 33.1868-74.7158C31.0664-75.8894 30.5106-78.5246 31.7459-80.4803ZM35.3486 19.7398C32.1576 19.7398 29.5841 17.1046 29.5841 13.9753C29.5841 10.7842 32.2193 8.21076 35.3486 8.21076C38.4779 8.21076 41.1131 10.846 41.1131 13.9753C41.1131 17.1046 38.4779 19.7398 35.3486 19.7398Z"/>
   <path class="hierarchical-1:primary SFSymbolsPreview212121" d="M113.89 2.24021L113.89-45.1934L113.89-45.7286L113.89-65.966C113.89-71.607 112.614-75.8069 109.999-78.4215C107.385-81.0361 103.226-82.4155 97.688-82.4155L78.9535-82.4155L78.9535-92.4416C78.9535-94.068 78.2741-95.2004 76.8123-95.7151C75.3506-96.2298 73.9918-96.1062 72.7977-94.9121L58.2011-82.6008C56.8835-81.4067 56.2041-80.2126 56.2041-78.9155C56.2041-77.6185 56.8835-76.4244 58.2011-75.2303L72.7977-62.9189C74.0947-61.7866 75.4535-61.4984 76.8123-62.116C78.2741-62.6307 78.9535-63.7013 78.9535-65.3277L78.9535-75.6214L97.5233-75.6214C101.023-75.6214 103.452-74.8597 104.976-73.2951C106.499-71.6687 107.261-69.1364 107.261-65.5748L107.261-45.7904L107.261-45.2551L107.261 2.11668C102.155 3.49607 98.3466 8.23127 98.3466 13.79C98.3466 20.4604 103.823 25.9368 110.493 25.9368C117.164 25.9368 122.64 20.4604 122.64 13.79C122.743 8.3548 118.934 3.68137 113.89 2.24021ZM110.535 19.7398C107.343 19.7398 104.77 17.1046 104.77 13.9753C104.77 10.7842 107.405 8.21076 110.535 8.21076C113.726 8.21076 116.299 10.846 116.299 13.9753C116.361 17.1046 113.726 19.7398 110.535 19.7398Z"/>
  </g>
  <g id="Thin-L" transform="matrix(1 0 0 1 784.566 1556)">
   <path class="hierarchical-0:secondary SFSymbolsPreview4D4D4D" d="M38.9207 5.4451L38.9207-68.4369C43.137-69.3222 46.3281-73.0507 46.3281-77.6088C46.3281-82.7229 42.0747-86.9763 36.9545-86.9763C31.8404-86.9763 27.587-82.7229 27.587-77.6088C27.587-73.203 30.7781-69.3161 34.9944-68.4369L34.9944 5.4451C30.7781 6.3304 27.587 10.0589 27.587 14.617C27.587 19.731 31.8404 23.9845 36.9545 23.9845C42.0685 23.9845 46.3219 19.731 46.3219 14.617C46.3281 10.0589 43.137 6.3304 38.9207 5.4451ZM31.4124-77.8313C31.536-80.8432 34.1712-83.2806 37.1831-83.1632C40.195-83.0396 42.6324-80.4106 42.5089-77.3987C42.3853-74.3868 39.7562-71.9494 36.7444-72.0668C33.5678-72.1842 31.2888-74.8194 31.4124-77.8313ZM36.9606 20.3877C33.8252 20.3877 31.1961 17.7525 31.1961 14.6232C31.1961 11.4877 33.8313 8.85867 36.9606 8.85867C40.0899 8.85867 42.7251 11.4939 42.7251 14.6232C42.7251 17.7525 40.0899 20.3877 36.9606 20.3877Z"/>
   <path class="hierarchical-1:primary SFSymbolsPreview212121" d="M108.554 5.4451L108.554-42.4332L108.554-43.0796L108.554-65.2625C108.554-70.57 107.389-74.5475 105.052-76.8842C102.715-79.2209 98.8903-80.5447 93.7413-80.5447L73.3392-80.5447L73.3392-90.7375C73.3392-92.086 72.8266-92.9404 71.6428-93.2884C70.459-93.6363 69.4337-93.624 68.5731-92.7634L54.3656-81.0079C53.4927-80.1473 52.9801-79.2867 52.9801-78.2676C52.9801-77.2485 53.4927-76.388 54.3656-75.5274L68.5731-63.7719C69.5922-62.9175 70.6175-62.7404 71.6428-63.2469C72.8266-63.5948 73.3392-64.443 73.3392-65.7915L73.3392-76.3076L93.5766-76.3076C97.6323-76.3076 100.395-75.4903 102.03-73.7033C103.664-71.9102 104.482-68.9888 104.482-64.9269L104.482-43.0858L104.482-42.4393L104.482 5.43274C100.265 6.31186 97.0681 10.0465 97.0681 14.6046C97.0681 19.7187 101.322 23.9721 106.436 23.9721C111.55 23.9721 115.803 19.7187 115.803 14.6046C115.962 10.0589 112.764 6.3304 108.554 5.4451ZM106.588 20.3877C103.452 20.3877 100.823 17.7525 100.823 14.6232C100.823 11.4877 103.459 8.85867 106.588 8.85867C109.723 8.85867 112.352 11.4939 112.352 14.6232C112.359 17.7525 109.723 20.3877 106.588 20.3877Z"/>
  </g>
  <g id="Ultralight-L" transform="matrix(1 0 0 1 488.438 1556)">
   <path class="hierarchical-0:secondary SFSymbolsPreview4D4D4D" d="M39.063 7.08663L39.063-69.3863C42.8238-69.9869 45.7302-73.2313 45.7302-77.277C45.7302-81.5938 42.1031-85.2209 37.8086-85.2209C33.4918-85.2209 29.8647-81.5938 29.8647-77.277C29.8647-73.4406 32.7711-70.0092 36.5319-69.3863L36.5319 7.08663C32.7711 7.68721 29.8647 10.9317 29.8647 14.9773C29.8647 19.2941 33.4918 22.9212 37.8086 22.9212C42.1254 22.9212 45.7525 19.2941 45.7525 14.9773C45.7302 10.9317 42.8238 7.68721 39.063 7.08663ZM31.2416-76.4745C30.7958-80.0273 33.431-83.3759 36.9838-83.7994C40.5366-84.2452 43.8852-81.5877 44.331-78.0349C44.7768-74.4821 42.1194-71.1335 38.5665-70.71C34.849-70.2864 31.6874-72.9216 31.2416-76.4745ZM37.7863 20.7195C34.6793 20.7195 32.0218 18.0843 32.0218 14.955C32.0218 11.848 34.657 9.19052 37.7863 9.19052C40.9156 9.19052 43.5508 11.8257 43.5508 14.955C43.5508 18.0843 40.9156 20.7195 37.7863 20.7195Z"/>
   <path class="hierarchical-1:primary SFSymbolsPreview212121" d="M105.821 7.08663L105.821-41.0194L105.821-41.7228L105.821-64.9022C105.821-70.0388 104.713-73.9025 102.518-76.0968C100.324-78.2912 96.6695-79.5865 91.7198-79.5865L70.4636-79.5865L70.4636-89.8647C70.4636-91.0709 70.0364-91.7829 68.9949-92.0455C67.9535-92.308 67.099-92.3526 66.4093-91.6628L52.4011-80.192C51.756-79.5023 51.3287-78.8125 51.3287-77.9358C51.3287-77.059 51.756-76.3693 52.4011-75.6795L66.4093-64.2088C67.286-63.4967 68.1405-63.3766 68.9949-63.8261C70.0364-64.0886 70.4636-64.823 70.4636-66.0291L70.4636-76.6591L91.5551-76.6591C95.8956-76.6591 98.8292-75.8133 100.521-73.9124C102.212-72.0338 103.058-68.9132 103.058-64.5951L103.058-41.7005L103.058-40.9971L103.058 7.13121C99.2973 7.75409 96.4132 10.9762 96.4132 15.0219C96.4132 19.3387 100.04 22.9658 104.357 22.9658C108.674 22.9658 112.301 19.3387 112.301 15.0219C112.488 10.9317 109.604 7.68721 105.821 7.08663ZM104.566 20.7195C101.459 20.7195 98.8019 18.0843 98.8019 14.955C98.8019 11.848 101.437 9.19052 104.566 9.19052C107.673 9.19052 110.331 11.8257 110.331 14.955C110.309 18.0843 107.673 20.7195 104.566 20.7195Z"/>
  </g>
  <g id="Black-M" transform="matrix(1 0 0 1 2865.2 1126)">
   <path class="hierarchical-0:secondary SFSymbolsPreview4D4D4D" d="M38.5401-29.0327L38.5401-40.4273C48.576-43.283 55.9076-52.4796 55.9076-63.3779C55.9076-76.6428 45.2193-87.331 31.9431-87.331C18.6782-87.331 7.98993-76.7597 7.98993-63.4948C7.98993-52.5846 15.3215-43.3886 25.3573-40.5442L25.3573-29.1496C15.3215-26.177 7.98993-16.9804 7.98993-6.08209C7.98993 7.18283 18.6782 17.8711 31.9431 17.8711C45.208 17.8711 55.8963 7.18283 55.8963-6.08209C55.9076-16.9804 48.576-26.177 38.5401-29.0327ZM31.9762-71.5019C36.4116-71.4901 39.9733-67.9084 39.9615-63.4843C39.9497-59.0489 36.368-55.4984 31.9326-55.5103C27.4972-55.5221 23.9467-59.1038 23.9586-63.5279C23.9597-67.952 27.5408-71.5137 31.9762-71.5019ZM31.9544 1.9032C27.5308 1.9032 23.9804-1.65853 23.9804-6.0708C23.9804-10.4944 27.5421-14.0448 31.9544-14.0448C36.3667-14.0448 39.9284-10.4831 39.9284-6.0708C39.9284-1.65853 36.3667 1.9032 31.9544 1.9032Z"/>
   <path class="hierarchical-1:primary SFSymbolsPreview212121" d="M111.153-29.0327L111.153-47.7154L111.153-48.0863L111.153-59.8997C111.153-63.349 110.237-65.9889 108.277-67.8317C106.434-69.6746 103.665-70.7066 100.099-70.7066L87.1768-70.7066L87.1768-77.7654C87.1768-79.7782 86.4093-81.0573 84.758-81.5802C83.1068-82.1031 81.5718-81.7298 80.0476-80.3224L66.4224-67.8758C65.2264-66.8193 64.5758-65.5288 64.5758-64.0052C64.5758-62.5985 65.2264-61.3081 66.4224-60.1346L80.0476-47.688C81.5712-46.2919 83.1062-45.9079 84.758-46.4302C86.4093-47.0701 87.1768-48.3379 87.1768-50.2337L87.1768-57.3025L95.5275-57.3025C96.266-57.3025 96.7304-57.0266 97.1652-56.6036C97.6001-56.1694 97.7591-55.4717 97.7591-54.722L97.7591-47.9807L97.7591-47.7267L97.7591-29.0553C87.8402-26.2108 80.4973-17.003 80.4973-6.10467C80.4973 7.04332 91.3025 17.8485 104.451 17.8485C117.598 17.8485 128.404 7.04332 128.404-6.10467C128.403-16.9804 121.06-26.177 111.153-29.0327ZM104.439 1.9032C100.015 1.9032 96.4646-1.65853 96.4646-6.0708C96.4646-10.4944 100.026-14.0448 104.439-14.0448C108.862-14.0448 112.413-10.4831 112.413-6.0708C112.424-1.65853 108.862 1.9032 104.439 1.9032Z"/>
  </g>
  <g id="Heavy-M" transform="matrix(1 0 0 1 2570.97 1126)">
   <path class="hierarchical-0:secondary SFSymbolsPreview4D4D4D" d="M36.4434-24.4142L36.4434-44.4897C45.2577-47.0683 51.6775-55.1758 51.6775-64.7585C51.6775-76.4859 42.2169-85.9464 30.4562-85.9464C18.7288-85.9464 9.26827-76.5752 9.26827-64.8478C9.26827-55.2368 15.688-47.1244 24.5023-44.5791L24.5023-24.5036C15.688-21.8356 9.26827-13.7282 9.26827-4.14549C9.26827 7.58196 18.7288 17.0425 30.4562 17.0425C42.1837 17.0425 51.6442 7.58196 51.6442-4.14549C51.6775-13.7282 45.2577-21.8356 36.4434-24.4142ZM30.3142-71.8519C34.1955-71.947 37.3985-68.9043 37.4936-65.0563C37.5887-61.1751 34.546-58.0053 30.6648-57.9102C26.7835-57.815 23.6138-60.8578 23.5186-64.7058C23.3852-68.5538 26.433-71.7568 30.3142-71.8519ZM30.4895 3.03388C26.5131 3.03388 23.3434-0.169107 23.3434-4.11224C23.3434-8.08862 26.5464-11.2583 30.4895-11.2583C34.4326-11.2583 37.6356-8.05537 37.6356-4.11224C37.6356-0.169107 34.4326 3.03388 30.4895 3.03388Z"/>
   <path class="hierarchical-1:primary SFSymbolsPreview212121" d="M107.025-24.4142L107.025-47.2539L107.025-47.6084L107.025-59.8672C107.025-63.6139 106.065-66.452 104.023-68.4047C102.07-70.3574 99.1145-71.4114 95.2834-71.4114L82.3858-71.4114L82.3858-78.5975C82.3858-80.4993 81.6353-81.7502 80.0398-82.2839C78.4443-82.8175 76.9431-82.483 75.4802-81.1094L62.3084-69.2159C61.047-68.1103 60.3858-66.8261 60.3858-65.3582C60.3858-63.9796 61.047-62.6954 62.3084-61.5005L75.4802-49.6069C76.9481-48.2666 78.4493-47.8938 80.0398-48.4325C81.6353-49.0555 82.3858-50.2732 82.3858-52.0856L82.3858-59.315L91.761-59.315C92.8317-59.315 93.5507-58.9782 94.1348-58.4223C94.7189-57.8332 94.9663-56.9306 94.9663-55.8266L94.9663-47.5523L94.9663-47.2871L94.9663-24.4807C86.2413-21.9354 79.7883-13.7947 79.7883-4.212C79.7883 7.42611 89.3382 16.976 100.976 16.976C112.614 16.976 122.164 7.42611 122.164-4.212C122.169-13.7282 115.716-21.8356 107.025-24.4142ZM100.948 3.03388C96.9717 3.03388 93.8019-0.169107 93.8019-4.11224C93.8019-8.08862 97.0049-11.2583 100.948-11.2583C104.924-11.2583 108.094-8.05537 108.094-4.11224C108.127-0.169107 104.924 3.03388 100.948 3.03388Z"/>
  </g>
  <g id="Bold-M" transform="matrix(1 0 0 1 2277.02 1126)">
   <path class="hierarchical-0:secondary SFSymbolsPreview4D4D4D" d="M34.0979-19.2478L34.0979-49.0341C41.5457-51.3028 46.9455-58.1918 46.9455-66.3028C46.9455-76.3104 38.8584-84.3975 28.793-84.3975C18.7854-84.3975 10.6983-76.3689 10.6983-66.3613C10.6983-58.2038 16.0981-51.3034 23.5459-49.0926L23.5459-19.3063C16.0981-16.9792 10.6983-10.0902 10.6983-1.97913C10.6983 8.02844 18.7854 16.1156 28.793 16.1156C38.8005 16.1156 46.8877 8.02844 46.8877-1.97913C46.9455-10.0902 41.5457-16.9792 34.0979-19.2478ZM28.4551-72.2434C31.7164-72.4582 34.5181-70.0184 34.7329-66.8148C34.9477-63.5535 32.5079-60.8097 29.2465-60.5948C25.9852-60.38 23.2413-62.8199 23.0265-66.0234C22.7426-69.2269 25.1937-72.0286 28.4551-72.2434ZM28.8508 4.2987C25.3746 4.2987 22.6308 1.49703 22.6308-1.9213C22.6308-5.39746 25.4325-8.1413 28.8508-8.1413C32.2691-8.1413 35.0708-5.33964 35.0708-1.9213C35.0708 1.49703 32.2691 4.2987 28.8508 4.2987Z"/>
   <path class="hierarchical-1:primary SFSymbolsPreview212121" d="M102.407-19.2478L102.407-46.7375L102.407-47.0738L102.407-59.8309C102.407-63.9103 101.398-66.9701 99.2638-69.0457C97.1883-71.1212 94.0235-72.1998 89.8969-72.1998L77.0265-72.1998L77.0265-79.5283C77.0265-81.306 76.2948-82.5254 74.7617-83.071C73.2285-83.6167 71.7652-83.3256 70.371-81.9898L57.7063-70.7149C56.3718-69.5545 55.6986-68.2772 55.6986-66.8717C55.6986-65.5246 56.3718-64.2473 57.7063-63.0285L70.371-51.7536C71.7765-50.4756 73.2399-50.1154 74.7617-50.6724C76.2948-51.2764 77.0265-52.4381 77.0265-54.1573L77.0265-61.5662L87.5476-61.5662C88.99-61.5662 89.9937-61.1614 90.7448-60.4568C91.4959-59.6945 91.8422-58.5625 91.8422-57.0623L91.8422-47.0732L91.8422-46.7954L91.8422-19.3635C84.4528-17.1526 78.9952-10.2058 78.9952-2.09479C78.9952 7.85432 87.1408 15.9999 97.0899 15.9999C107.039 15.9999 115.185 7.85432 115.185-2.09479C115.196-10.0902 109.738-16.9792 102.407-19.2478ZM97.0433 4.2987C93.5672 4.2987 90.8233 1.49703 90.8233-1.9213C90.8233-5.39746 93.625-8.1413 97.0433-8.1413C100.52-8.1413 103.263-5.33964 103.263-1.9213C103.321 1.49703 100.52 4.2987 97.0433 4.2987Z"/>
  </g>
  <g id="Semibold-M" transform="matrix(1 0 0 1 1982.22 1126)">
   <path class="hierarchical-0:secondary SFSymbolsPreview4D4D4D" d="M32.4809-15.6862L32.4809-52.167C38.9867-54.222 43.6833-60.2711 43.6833-67.3675C43.6833-76.1894 36.543-83.3298 27.6463-83.3298C18.8244-83.3298 11.6841-76.2266 11.6841-67.4047C11.6841-60.2491 16.3808-54.1844 22.8866-52.2042L22.8866-15.7233C16.3808-13.6312 11.6841-7.58212 11.6841-0.485655C11.6841 8.33624 18.8244 15.4766 27.6463 15.4766C36.4682 15.4766 43.6086 8.33624 43.6086-0.485655C43.6833-7.58212 38.9867-13.6312 32.4809-15.6862ZM27.1734-72.5133C30.0074-72.8107 32.5324-70.7864 32.8297-68.0272C33.127-65.1932 31.1028-62.7429 28.2688-62.4456C25.4348-62.1483 22.9846-64.1726 22.6872-66.9318C22.2995-69.691 24.3394-72.216 27.1734-72.5133ZM27.7211 5.17066C24.5898 5.17066 22.1396 2.64565 22.1396-0.410888C22.1396-3.5422 24.6646-5.99243 27.7211-5.99243C30.7776-5.99243 33.3026-3.46743 33.3026-0.410888C33.3026 2.64565 30.7776 5.17066 27.7211 5.17066Z"/>
   <path class="hierarchical-1:primary SFSymbolsPreview212121" d="M99.2232-15.6862L99.2232-46.3816L99.2232-46.7053L99.2232-59.8059C99.2232-64.1146 98.1805-67.3273 95.983-69.4876C93.8228-71.6478 90.5138-72.7434 86.1835-72.7434L73.3318-72.7434L73.3318-80.17C73.3318-81.8621 72.6132-83.0598 71.123-83.6137C69.6329-84.1676 68.1956-83.9065 66.8487-82.5968L54.5336-71.7483C53.1487-70.5502 52.4673-69.2777 52.4673-67.9151C52.4673-66.5898 53.1487-65.3172 54.5336-64.0819L66.8487-53.2334C68.2112-51.9985 69.6485-51.647 71.123-52.2165C72.6132-52.8076 73.3318-53.9306 73.3318-55.5855L73.3318-63.1182L84.6429-63.1182C86.3416-63.1182 87.5416-62.6665 88.4077-61.8594C89.2739-60.9776 89.6884-59.6876 89.6884-57.9142L89.6884-46.7429L89.6884-46.4564L89.6884-15.8357C83.2198-13.8555 78.4484-7.73165 78.4484-0.635189C78.4484 8.14952 85.6259 15.327 94.4106 15.327C103.195 15.327 110.373 8.14952 110.373-0.635189C110.388-7.58212 105.617-13.6312 99.2232-15.6862ZM94.3515 5.17066C91.2202 5.17066 88.7699 2.64565 88.7699-0.410888C88.7699-3.5422 91.2949-5.99243 94.3515-5.99243C97.4828-5.99243 99.933-3.46743 99.933-0.410888C100.008 2.64565 97.4828 5.17066 94.3515 5.17066Z"/>
  </g>
  <g id="Medium-M" transform="matrix(1 0 0 1 1686.96 1126)">
   <path class="hierarchical-0:secondary SFSymbolsPreview4D4D4D" d="M31.2548-12.9855L31.2548-54.5425C37.0463-56.4355 41.2098-61.8476 41.2098-68.1748C41.2098-76.0977 34.7874-82.5201 26.7769-82.5201C18.854-82.5201 12.4316-76.1187 12.4316-68.1959C12.4316-61.8 16.5951-56.3689 22.3866-54.5636L22.3866-13.0066C16.5951-11.0926 12.4316-5.68042 12.4316 0.646762C12.4316 8.56962 18.854 14.9921 26.7769 14.9921C34.6998 14.9921 41.1222 8.56962 41.1222 0.646762C41.2098-5.68042 37.0463-11.0926 31.2548-12.9855ZM26.2016-72.718C28.7115-73.0779 31.0268-71.3687 31.3866-68.9464C31.7465-66.4364 30.0374-64.2088 27.5274-63.849C25.0175-63.4891 22.7899-65.1982 22.43-67.6206C21.9636-70.0429 23.6916-72.3581 26.2016-72.718ZM26.8645 5.83181C23.9947 5.83181 21.7671 3.51659 21.7671 0.734373C21.7671-2.13545 24.0823-4.36307 26.8645-4.36307C29.6467-4.36307 31.962-2.04784 31.962 0.734373C31.962 3.51659 29.6467 5.83181 26.8645 5.83181Z"/>
   <path class="hierarchical-1:primary SFSymbolsPreview212121" d="M96.8093-12.9855L96.8093-46.1117L96.8093-46.4258L96.8093-59.7869C96.8093-64.2695 95.7409-67.5982 93.4954-69.8226C91.271-72.0471 87.8526-73.1555 83.3679-73.1555L70.5303-73.1555L70.5303-80.6565C70.5303-82.2838 69.8216-83.4651 68.364-84.0252C66.9065-84.5853 65.4889-84.3469 64.1779-83.057L52.128-72.5319C50.7049-71.3051 50.0172-70.0362 50.0172-68.7063C50.0172-67.3974 50.7049-66.1285 52.128-64.8806L64.1779-54.3555C65.5079-53.1532 66.9254-52.8083 68.364-53.3874C69.8216-53.9685 70.5303-55.0622 70.5303-56.6684L70.5303-64.2949L82.4405-64.2949C84.3334-64.2949 85.6823-63.8077 86.6357-62.9229C87.5891-61.9505 88.0553-60.5406 88.0553-58.5601L88.0553-46.4924L88.0553-46.1993L88.0553-13.1608C82.2849-11.3554 78.0338-5.85564 78.0338 0.471539C78.0338 8.37335 84.4772 14.8168 92.3791 14.8168C100.281 14.8168 106.724 8.37335 106.724 0.471539C106.743-5.68042 102.492-11.0926 96.8093-12.9855ZM92.3104 5.83181C89.4406 5.83181 87.213 3.51659 87.213 0.734373C87.213-2.13545 89.5282-4.36307 92.3104-4.36307C95.1802-4.36307 97.4078-2.04784 97.4078 0.734373C97.4954 3.51659 95.1802 5.83181 92.3104 5.83181Z"/>
  </g>
  <g id="Regular-M" transform="matrix(1 0 0 1 1392.13 1126)">
   <path class="hierarchical-0:secondary SFSymbolsPreview4D4D4D" d="M29.6556-9.46299L29.6556-57.641C34.5154-59.3226 37.9835-63.904 37.9835-69.2278C37.9835-75.978 32.4974-81.4641 25.6429-81.4641C18.8926-81.4641 13.4066-75.978 13.4066-69.2278C13.4066-63.8229 16.8747-59.2183 21.7345-57.641L21.7345-9.46299C16.8747-7.78134 13.4066-3.19994 13.4066 2.12383C13.4066 8.87404 18.8926 14.3601 25.6429 14.3601C32.3931 14.3601 37.8791 8.87404 37.8791 2.12383C37.9835-3.19994 34.5154-7.78134 29.6556-9.46299ZM24.934-72.9849C27.0213-73.4264 29.0629-72.1283 29.5044-70.1454C29.9458-68.0581 28.6477-66.1209 26.5604-65.6794C24.4732-65.2379 22.5359-66.536 22.0944-68.5189C21.5254-70.5019 22.8467-72.5435 24.934-72.9849ZM25.7472 6.69419C23.2185 6.69419 21.2812 4.65259 21.2812 2.22819C21.2812-0.300574 23.3228-2.23781 25.7472-2.23781C28.1716-2.23781 30.2132-0.196209 30.2132 2.22819C30.2132 4.65259 28.1716 6.69419 25.7472 6.69419Z"/>
   <path class="hierarchical-1:primary SFSymbolsPreview212121" d="M93.6608-9.46299L93.6608-45.7597L93.6608-46.0613L93.6608-59.7622C93.6608-64.4716 92.5589-67.9514 90.2507-70.2596C87.9424-72.5679 84.3815-73.693 79.6953-73.693L66.8762-73.693L66.8762-81.2911C66.8762-82.8338 66.1804-83.9936 64.7653-84.5619C63.3503-85.1302 61.9585-84.9214 60.6943-83.6573L48.9902-73.554C47.5173-72.2898 46.8214-71.0256 46.8214-69.7382C46.8214-68.4508 47.5173-67.1866 48.9902-65.9224L60.6943-55.8192C61.9818-54.6593 63.3735-54.323 64.7653-54.9145C66.1804-55.4828 66.8762-56.5383 66.8762-58.0809L66.8762-65.8299L79.5677-65.8299C81.7141-65.8299 83.2571-65.2962 84.3243-64.3101C85.3916-63.2196 85.9252-61.6533 85.9252-59.4026L85.9252-46.1657L85.9252-45.864L85.9252-9.67172C81.0654-8.09444 77.493-3.40867 77.493 1.9151C77.493 8.66531 82.979 14.1513 89.7292 14.1513C96.4794 14.1513 101.965 8.66531 101.965 1.9151C101.989-3.19994 98.4163-7.78134 93.6608-9.46299ZM89.6481 6.69419C87.1193 6.69419 85.1821 4.65259 85.1821 2.22819C85.1821-0.300574 87.2237-2.23781 89.6481-2.23781C92.1769-2.23781 94.1141-0.196209 94.1141 2.22819C94.2185 4.65259 92.1769 6.69419 89.6481 6.69419Z"/>
  </g>
  <g id="Light-M" transform="matrix(1 0 0 1 1096.2 1126)">
   <path class="hierarchical-0:secondary SFSymbolsPreview4D4D4D" d="M29.844-7.29046L29.844-58.8974C34.1009-60.2023 37.1922-64.1431 37.1922-68.7886C37.1922-74.4838 32.5351-79.1408 26.7733-79.1408C21.0781-79.1408 16.4211-74.4838 16.4211-68.7886C16.4211-64.1373 19.5123-60.1356 23.7693-58.8974L23.7693-7.29046C19.5123-5.98562 16.4211-2.0448 16.4211 2.60071C16.4211 8.29585 21.0781 12.9529 26.7733 12.9529C32.4684 12.9529 37.1255 8.29585 37.1255 2.60071C37.1922-2.0448 34.1009-5.98562 29.844-7.29046ZM24.7079-71.1892C26.0416-72.3466 28.0832-72.2544 29.2406-70.9874C30.398-69.6537 30.3057-67.6788 28.972-66.5214C27.6384-65.364 25.6635-65.4562 24.506-66.7232C23.221-67.9902 23.3742-70.0318 24.7079-71.1892ZM26.84 7.13339C24.3489 7.13339 22.374 5.09179 22.374 2.66739C22.374 0.176308 24.4156-1.79861 26.84-1.79861C29.2644-1.79861 31.306 0.242992 31.306 2.66739C31.306 5.09179 29.2644 7.13339 26.84 7.13339Z"/>
   <path class="hierarchical-1:primary SFSymbolsPreview212121" d="M90.0434-7.29046L90.0434-43.8886L90.0434-44.2656L90.0434-59.2853C90.0434-63.7686 89.0169-67.0977 86.897-69.2175C84.7772-71.3374 81.4423-72.4248 77.0199-72.4248L63.0705-72.4248L63.0705-80.136C63.0705-81.4902 62.4876-82.4616 61.261-82.9169C60.0344-83.3721 58.8687-83.2388 57.8306-82.2007L46.3902-72.4742C45.2187-71.4361 44.6359-70.398 44.6359-69.299C44.6359-68.2 45.2187-67.1619 46.3902-66.1238L57.8306-56.3973C58.9296-55.4259 60.0953-55.165 61.261-55.6811C62.4876-56.1364 63.0705-57.0411 63.0705-58.3953L63.0705-66.295L76.8923-66.295C79.4155-66.295 81.1846-65.7237 82.3272-64.5868C83.4699-63.3833 84.0412-61.5533 84.0412-58.9634L84.0412-44.3323L84.0412-43.9553L84.0412-7.42383C79.7842-6.18567 76.6263-2.17817 76.6263 2.46734C76.6263 8.16248 81.2834 12.8195 86.9785 12.8195C92.6737 12.8195 97.3307 8.16248 97.3307 2.46734C97.3916-2.0448 94.2337-5.98562 90.0434-7.29046ZM86.9727 7.13339C84.4817 7.13339 82.5067 5.09179 82.5067 2.66739C82.5067 0.176308 84.5483-1.79861 86.9727-1.79861C89.4638-1.79861 91.4387 0.242992 91.4387 2.66739C91.5054 5.09179 89.4638 7.13339 86.9727 7.13339Z"/>
  </g>
  <g id="Thin-M" transform="matrix(1 0 0 1 800.505 1126)">
   <path class="hierarchical-0:secondary SFSymbolsPreview4D4D4D" d="M30.0932-4.41711L30.0932-60.5592C33.5527-61.3657 36.1456-64.4593 36.1456-68.2077C36.1456-72.5075 32.585-76.0681 28.2684-76.0681C23.9687-76.0681 20.408-72.5075 20.408-68.2077C20.408-64.5532 23.0009-61.3488 26.4604-60.5592L26.4604-4.41711C23.0009-3.61063 20.408-0.517029 20.408 3.23142C20.408 7.53115 23.9687 11.0918 28.2684 11.0918C32.5681 11.0918 36.1287 7.53115 36.1287 3.23142C36.1456-0.517029 33.5527-3.61063 30.0932-4.41711ZM24.4089-68.8142C24.7458-70.9185 26.7874-72.421 28.8917-72.1009C30.996-71.764 32.4985-69.7392 32.1616-67.6349C31.8246-65.5306 29.7999-64.0281 27.6956-64.3482C25.4637-64.6683 24.0719-66.7099 24.4089-68.8142ZM28.2852 7.71427C25.844 7.71427 23.8192 5.67267 23.8192 3.24827C23.8192 0.807022 25.8608-1.21773 28.2852-1.21773C30.7096-1.21773 32.7512 0.82387 32.7512 3.24827C32.7512 5.67267 30.7096 7.71427 28.2852 7.71427Z"/>
   <path class="hierarchical-1:primary SFSymbolsPreview212121" d="M85.2591-4.41711L85.2591-41.4139L85.2591-41.8906L85.2591-58.6546C85.2591-62.8389 84.3322-65.9687 82.4616-67.8393C80.591-69.7099 77.5551-70.7476 73.4816-70.7476L58.037-70.7476L58.037-78.6082C58.037-79.7133 57.6036-80.4355 56.6262-80.7412C55.6488-81.047 54.7821-81.0133 54.043-80.2742L42.9515-71.0461C42.1787-70.3071 41.7453-69.568 41.7453-68.7181C41.7453-67.8683 42.1787-67.1292 42.9515-66.3901L54.043-57.1621C54.8928-56.4398 55.7595-56.2785 56.6262-56.695C57.6036-57.0008 58.037-57.7061 58.037-58.8112L58.037-66.9102L73.354-66.9102C76.3755-66.9102 78.4436-66.289 79.6859-64.9528C80.9282-63.5998 81.5494-61.4209 81.5494-58.3825L81.5494-41.9075L81.5494-41.4308L81.5494-4.4508C78.0898-3.66118 75.4801-0.550724 75.4801 3.19773C75.4801 7.49745 79.0407 11.0581 83.3405 11.0581C87.6402 11.0581 91.2008 7.49745 91.2008 3.19773C91.3116-0.517029 88.7019-3.61063 85.2591-4.41711ZM83.4344 7.71427C80.9931 7.71427 78.9684 5.67267 78.9684 3.24827C78.9684 0.807022 81.01-1.21773 83.4344-1.21773C85.8756-1.21773 87.9004 0.82387 87.9004 3.24827C87.9172 5.67267 85.8756 7.71427 83.4344 7.71427Z"/>
  </g>
  <g id="Ultralight-M" transform="matrix(1 0 0 1 504.317 1126)">
   <path class="hierarchical-0:secondary SFSymbolsPreview4D4D4D" d="M30.2208-2.94539L30.2208-61.4103C33.2719-61.9616 35.6095-64.6212 35.6095-67.9102C35.6095-71.4952 32.6105-74.4943 29.0342-74.4943C25.4492-74.4943 22.4501-71.4952 22.4501-67.9102C22.4501-64.7662 24.7877-61.9702 27.8388-61.4103L27.8388-2.94539C24.7877-2.39418 22.4501 0.265487 22.4501 3.55447C22.4501 7.13947 25.4492 10.1385 29.0342 10.1385C32.6192 10.1385 35.6182 7.13947 35.6182 3.55447C35.6095 0.265487 33.2719-2.39418 30.2208-2.94539ZM24.2557-67.5978C24.0822-70.1871 26.1238-72.5064 28.713-72.6713C31.3023-72.8449 33.6217-70.7946 33.7952-68.2053C33.9688-65.616 31.9185-63.2967 29.3292-63.1318C26.6123-62.9669 24.4293-65.0085 24.2557-67.5978ZM29.0255 8.01179C26.6098 8.01179 24.5595 5.97019 24.5595 3.54579C24.5595 1.13007 26.6011-0.920207 29.0255-0.920207C31.4499-0.920207 33.4915 1.12139 33.4915 3.54579C33.4915 5.97019 31.4499 8.01179 29.0255 8.01179Z"/>
   <path class="hierarchical-1:primary SFSymbolsPreview212121" d="M82.8087-2.94539L82.8087-40.1464L82.8087-40.6742L82.8087-58.3315C82.8087-62.3627 81.9328-65.3903 80.1898-67.1333C78.4468-68.8764 75.5641-69.8885 71.6692-69.8885L55.4589-69.8885L55.4589-77.8257C55.4589-78.8031 55.1021-79.3977 54.2523-79.6269C53.4025-79.8561 52.689-79.8734 52.103-79.2875L41.1902-70.3147C40.6216-69.7287 40.2648-69.1428 40.2648-68.4206C40.2648-67.6984 40.6216-67.1125 41.1902-66.5265L52.103-57.5537C52.8252-56.9591 53.5388-56.8489 54.2523-57.2143C55.1021-57.4435 55.4589-58.0468 55.4589-59.0242L55.4589-67.2253L71.5416-67.2253C74.8184-67.2253 77.0397-66.5786 78.333-65.1403C79.6264-63.7107 80.2731-61.3531 80.2731-58.085L80.2731-40.6655L80.2731-40.1377L80.2731-2.92803C77.2219-2.36814 74.893 0.282844 74.893 3.57183C74.893 7.15683 77.8921 10.1559 81.4771 10.1559C85.0621 10.1559 88.0611 7.15683 88.0611 3.57183C88.1974 0.265487 85.8685-2.39418 82.8087-2.94539ZM81.622 8.01179C79.2063 8.01179 77.156 5.97019 77.156 3.54579C77.156 1.13007 79.1976-0.920207 81.622-0.920207C84.0377-0.920207 86.088 1.12139 86.088 3.54579C86.0793 5.97019 84.0377 8.01179 81.622 8.01179Z"/>
  </g>
  <g id="Black-S" transform="matrix(1 0 0 1 2879.25 696)">
   <path class="hierarchical-0:secondary SFSymbolsPreview4D4D4D" d="M30.85-31.65L30.85-38.15C39.05-40.45 45.05-47.95 45.05-56.85C45.05-67.65 36.35-76.35 25.55-76.35C14.75-76.35 6.05-67.75 6.05-56.95C6.05-48.05 12.05-40.55 20.25-38.25L20.25-31.75C12.05-29.35 6.05-21.85 6.05-12.95C6.05-2.15 14.75 6.55 25.55 6.55C36.35 6.55 45.05-2.15 45.05-12.95C45.05-21.85 39.05-29.35 30.85-31.65ZM25.55-63.45C29.15-63.45 32.05-60.55 32.05-56.95C32.05-53.35 29.15-50.45 25.55-50.45C21.95-50.45 19.05-53.35 19.05-56.95C19.05-60.55 21.95-63.45 25.55-63.45ZM25.55-6.45C21.95-6.45 19.05-9.35 19.05-12.95C19.05-16.55 21.95-19.45 25.55-19.45C29.15-19.45 32.05-16.55 32.05-12.95C32.05-9.35 29.15-6.45 25.55-6.45Z"/>
   <path class="hierarchical-1:primary SFSymbolsPreview212121" d="M88.15-31.65L88.15-45.05L88.15-45.35L88.15-54.55C88.15-57.15 87.45-59.15 85.95-60.55C84.55-61.95 82.45-62.75 79.75-62.75L69.55-62.75L69.55-68.25C69.55-69.85 68.95-70.85 67.65-71.25C66.35-71.65 65.15-71.35 63.95-70.25L53.15-60.35C52.25-59.55 51.75-58.55 51.75-57.35C51.75-56.25 52.25-55.25 53.15-54.35L63.95-44.45C65.15-43.35 66.35-43.05 67.65-43.45C68.95-43.95 69.55-44.95 69.55-46.45L69.55-51.95L75.85-51.95C76.35-51.95 76.65-51.75 76.95-51.45C77.25-51.15 77.35-50.65 77.35-50.15L77.35-45.25L77.35-45.05L77.35-31.65C69.25-29.35 63.25-21.85 63.25-12.95C63.25-2.25 72.05 6.55 82.75 6.55C93.45 6.55 102.25-2.25 102.25-12.95C102.25-21.85 96.25-29.35 88.15-31.65ZM82.75-6.45C79.15-6.45 76.25-9.35 76.25-12.95C76.25-16.55 79.15-19.45 82.75-19.45C86.35-19.45 89.25-16.55 89.25-12.95C89.25-9.35 86.35-6.45 82.75-6.45Z"/>
  </g>
  <g id="Heavy-S" transform="matrix(1 0 0 1 2584.56 696)">
   <path class="hierarchical-0:secondary SFSymbolsPreview4D4D4D" d="M29.0326-27.9777L29.0326-41.4639C36.265-43.5751 41.5333-50.2254 41.5333-58.0869C41.5333-67.7068 33.7774-75.4627 24.1339-75.4627C14.514-75.4627 6.75806-67.7832 6.75806-58.1633C6.75806-50.2782 12.0264-43.6279 19.2587-41.5403L19.2587-28.0541C12.0264-25.8665 6.75806-19.2162 6.75806-11.3546C6.75806-1.73475 14.514 6.02117 24.1339 6.02117C33.7538 6.02117 41.5097-1.73475 41.5097-11.3546C41.5333-19.2162 36.265-25.8665 29.0326-27.9777ZM24.1575-63.9788C27.3798-63.9788 29.973-61.3857 29.973-58.1869C29.973-54.9645 27.3798-52.395 24.1575-52.395C20.9351-52.395 18.3655-54.9881 18.3655-58.1869C18.3419-61.3857 20.9351-63.9788 24.1575-63.9788ZM24.1575-5.53911C20.9351-5.53911 18.3655-8.13228 18.3655-11.331C18.3655-14.5534 20.9587-17.123 24.1575-17.123C27.3562-17.123 29.9494-14.5298 29.9494-11.331C29.9494-8.13228 27.3562-5.53911 24.1575-5.53911Z"/>
   <path class="hierarchical-1:primary SFSymbolsPreview212121" d="M85.0817-27.9777L85.0817-44.8944L85.0817-45.1708L85.0817-54.5832C85.0817-57.4664 84.3345-59.6552 82.7401-61.1732C81.2221-62.6913 78.9333-63.5149 75.9737-63.5149L65.9389-63.5149L65.9389-69.1093C65.9389-70.6385 65.3389-71.6385 64.0625-72.0621C62.7861-72.4857 61.5861-72.2093 60.4097-71.1093L49.9637-61.6341C48.9693-60.7633 48.4457-59.7397 48.4457-58.5633C48.4457-57.4633 48.9693-56.4397 49.9637-55.4925L60.4097-46.0173C61.5861-44.9409 62.7861-44.6409 64.0625-45.0645C65.3389-45.5645 65.9389-46.5409 65.9389-47.9937L65.9389-53.6117L72.9705-53.6117C73.7066-53.6117 74.1954-53.3645 74.6134-52.9701C75.0314-52.5521 75.2022-51.9105 75.2022-51.1509L75.2022-45.118L75.2022-44.918L75.2022-28.0249C68.0463-25.9373 62.7544-19.2634 62.7544-11.4018C62.7544-1.85835 70.5867 5.97396 80.1302 5.97396C89.6737 5.97396 97.506-1.85835 97.506-11.4018C97.506-19.2162 92.214-25.8665 85.0817-27.9777ZM80.1066-5.53911C76.8842-5.53911 74.3146-8.13228 74.3146-11.331C74.3146-14.5534 76.9078-17.123 80.1066-17.123C83.3289-17.123 85.8985-14.5298 85.8985-11.331C85.9221-8.13228 83.3289-5.53911 80.1066-5.53911Z"/>
  </g>
  <g id="Bold-S" transform="matrix(1 0 0 1 2290.1 696)">
   <path class="hierarchical-0:secondary SFSymbolsPreview4D4D4D" d="M27-23.8703L27-45.1703C33.15-47.0703 37.6-52.7703 37.6-59.4703C37.6-67.7703 30.9-74.4703 22.55-74.4703C14.25-74.4703 7.55-67.8203 7.55-59.5203C7.55-52.7703 12-47.0703 18.15-45.2203L18.15-23.9203C12-21.9703 7.55-16.2703 7.55-9.57031C7.55-1.27031 14.25 5.42969 22.55 5.42969C30.85 5.42969 37.55-1.27031 37.55-9.57031C37.6-16.2703 33.15-21.9703 27-23.8703ZM22.6-64.5703C25.4-64.5703 27.65-62.3203 27.65-59.5703C27.65-56.7703 25.4-54.5703 22.6-54.5703C19.8-54.5703 17.6-56.8203 17.6-59.5703C17.55-62.3203 19.8-64.5703 22.6-64.5703ZM22.6-4.52031C19.8-4.52031 17.6-6.77031 17.6-9.52031C17.6-12.3203 19.85-14.5203 22.6-14.5203C25.35-14.5203 27.6-12.2703 27.6-9.52031C27.6-6.77031 25.35-4.52031 22.6-4.52031Z"/>
   <path class="hierarchical-1:primary SFSymbolsPreview212121" d="M81.65-23.8703L81.65-44.7203L81.65-44.9703L81.65-54.6203C81.65-57.8203 80.85-60.2203 79.15-61.8703C77.5-63.5203 75-64.3703 71.75-64.3703L61.9-64.3703L61.9-70.0703C61.9-71.5203 61.3-72.5203 60.05-72.9703C58.8-73.4203 57.6-73.1703 56.45-72.0703L46.4-63.0703C45.3-62.1203 44.75-61.0703 44.75-59.9203C44.75-58.8203 45.3-57.7703 46.4-56.7703L56.45-47.7703C57.6-46.7203 58.8-46.4203 60.05-46.8703C61.3-47.3703 61.9-48.3203 61.9-49.7203L61.9-55.4703L69.75-55.4703C70.75-55.4703 71.45-55.1703 72-54.6703C72.55-54.1203 72.8-53.3203 72.8-52.2703L72.8-44.9703L72.8-44.7703L72.8-23.9703C66.7-22.1203 62.2-16.3703 62.2-9.67031C62.2-1.42031 68.95 5.32969 77.2 5.32969C85.45 5.32969 92.2-1.42031 92.2-9.67031C92.2-16.2703 87.7-21.9703 81.65-23.8703ZM77.15-4.52031C74.35-4.52031 72.15-6.77031 72.15-9.52031C72.15-12.3203 74.4-14.5203 77.15-14.5203C79.95-14.5203 82.15-12.2703 82.15-9.52031C82.2-6.77031 79.95-4.52031 77.15-4.52031Z"/>
  </g>
  <g id="Semibold-S" transform="matrix(1 0 0 1 1994.95 696)">
   <path class="hierarchical-0:secondary SFSymbolsPreview4D4D4D" d="M25.5986-21.0385L25.5986-47.7257C31.0024-49.4801 34.8882-54.5249 34.8882-60.4241C34.8882-67.8141 28.9162-73.7861 21.458-73.7861C14.068-73.7861 8.096-67.8459 8.096-60.4559C8.096-54.4885 11.9818-49.4437 17.3856-47.7575L17.3856-21.0703C11.9818-19.2841 8.096-14.2393 8.096-8.3401C8.096-0.950103 14.068 5.0219 21.458 5.0219C28.848 5.0219 34.82-0.950103 34.82-8.3401C34.8882-14.2393 31.0024-19.2841 25.5986-21.0385ZM21.5262-64.9781C24.035-64.9781 26.0484-62.9647 26.0484-60.5241C26.0484-58.0153 24.035-56.0701 21.5262-56.0701C19.0174-56.0701 17.0722-58.0835 17.0722-60.5241C17.004-62.9647 19.0174-64.9781 21.5262-64.9781ZM21.5262-3.8179C19.0174-3.8179 17.0722-5.8313 17.0722-8.2719C17.0722-10.7807 19.0856-12.7259 21.5262-12.7259C23.9668-12.7259 25.9802-10.7125 25.9802-8.2719C25.9802-5.8313 23.9668-3.8179 21.5262-3.8179Z"/>
   <path class="hierarchical-1:primary SFSymbolsPreview212121" d="M79.284-21.0385L79.284-44.6003L79.284-44.8321L79.284-54.6459C79.284-58.0643 78.4476-60.6099 76.6748-62.3509C74.9338-64.0919 72.2882-64.9601 68.838-64.9601L59.1154-64.9601L59.1154-70.7329C59.1154-72.1283 58.5154-73.1283 57.2836-73.5965C56.0518-74.0647 54.8518-73.8329 53.72-72.7329L43.943-64.0605C42.7702-63.0559 42.202-61.9877 42.202-60.8559C42.202-59.7559 42.7702-58.6877 43.943-57.6513L53.72-48.9789C54.8518-47.9471 56.0518-47.6471 57.2836-48.1153C58.5154-48.6153 59.1154-49.5471 59.1154-50.9107L59.1154-56.7517L67.5296-56.7517C68.7116-56.7517 69.5572-56.4153 70.1982-55.8425C70.8392-55.2015 71.1438-54.2923 71.1438-53.0421L71.1438-44.8685L71.1438-44.6685L71.1438-21.1749C65.7718-19.4887 61.8178-14.3757 61.8178-8.4765C61.8178-1.1183 67.8216 4.8855 75.1798 4.8855C82.538 4.8855 88.5418-1.1183 88.5418-8.4765C88.5418-14.2393 84.5878-19.2841 79.284-21.0385ZM75.1116-3.8179C72.6028-3.8179 70.6576-5.8313 70.6576-8.2719C70.6576-10.7807 72.671-12.7259 75.1116-12.7259C77.6204-12.7259 79.5656-10.7125 79.5656-8.2719C79.6338-5.8313 77.6204-3.8179 75.1116-3.8179Z"/>
  </g>
  <g id="Medium-S" transform="matrix(1 0 0 1 1699.42 696)">
   <path class="hierarchical-0:secondary SFSymbolsPreview4D4D4D" d="M24.536-18.8913L24.536-49.6633C29.374-51.3073 32.832-55.8553 32.832-61.1473C32.832-67.8473 27.412-73.2673 20.63-73.2673C13.93-73.2673 8.51-67.8653 8.51-61.1653C8.51-55.7913 11.968-51.2433 16.806-49.6813L16.806-18.9093C11.968-17.2473 8.51-12.6993 8.51-7.40731C8.51-0.707308 13.93 4.71269 20.63 4.71269C27.33 4.71269 32.75-0.707308 32.75-7.40731C32.832-12.6993 29.374-17.2473 24.536-18.8913ZM20.712-65.2873C23-65.2873 24.834-63.4533 24.834-61.2473C24.834-58.9593 23-57.2073 20.712-57.2073C18.424-57.2073 16.672-59.0413 16.672-61.2473C16.59-63.4533 18.424-65.2873 20.712-65.2873ZM20.712-3.28531C18.424-3.28531 16.672-5.11931 16.672-7.32531C16.672-9.61331 18.506-11.3653 20.712-11.3653C22.918-11.3653 24.752-9.53131 24.752-7.32531C24.752-5.11931 22.918-3.28531 20.712-3.28531Z"/>
   <path class="hierarchical-1:primary SFSymbolsPreview212121" d="M77.49-18.8913L77.49-44.5093L77.49-44.7273L77.49-54.6653C77.49-58.2493 76.626-60.9053 74.798-62.7153C72.988-64.5253 70.232-65.4073 66.63-65.4073L57.004-65.4073L57.004-71.2353C57.004-72.5893 56.404-73.5893 55.186-74.0713C53.968-74.5533 52.768-74.3353 51.65-73.2353L42.08-64.8113C40.852-63.7653 40.27-62.6833 40.27-61.5653C40.27-60.4653 40.852-59.3833 42.08-58.3193L51.65-49.8953C52.768-48.8773 53.968-48.5773 55.186-49.0593C56.404-49.5593 57.004-50.4773 57.004-51.8133L57.004-57.7233L65.846-57.7233C67.166-57.7233 68.122-57.3593 68.832-56.7313C69.542-56.0213 69.888-55.0293 69.888-53.6273L69.888-44.7913L69.888-44.5913L69.888-19.0553C65.068-17.4933 61.528-12.8633 61.528-7.57131C61.528-0.889308 66.966 4.54869 73.648 4.54869C80.33 4.54869 85.768-0.889308 85.768-7.57131C85.768-12.6993 82.228-17.2473 77.49-18.8913ZM73.566-3.28531C71.278-3.28531 69.526-5.11931 69.526-7.32531C69.526-9.61331 71.36-11.3653 73.566-11.3653C75.854-11.3653 77.606-9.53131 77.606-7.32531C77.688-5.11931 75.854-3.28531 73.566-3.28531Z"/>
  </g>
  <g id="Regular-S" transform="matrix(1 0 0 1 1404.24 696)">
   <path class="hierarchical-0:secondary SFSymbolsPreview4D4D4D" d="M23.15-16.0906L23.15-52.1906C27.25-53.6906 30.15-57.5906 30.15-62.0906C30.15-67.8906 25.45-72.5906 19.55-72.5906C13.75-72.5906 9.05-67.8906 9.05-62.0906C9.05-57.4906 11.95-53.5906 16.05-52.1906L16.05-16.0906C11.95-14.5906 9.05-10.6906 9.05-6.19062C9.05-0.39062 13.75 4.30938 19.55 4.30938C25.35 4.30938 30.05-0.39062 30.05-6.19062C30.15-10.6906 27.25-14.5906 23.15-16.0906ZM19.65-65.6906C21.65-65.6906 23.25-64.0906 23.25-62.1906C23.25-60.1906 21.65-58.6906 19.65-58.6906C17.65-58.6906 16.15-60.2906 16.15-62.1906C16.05-64.0906 17.65-65.6906 19.65-65.6906ZM19.65-2.59062C17.65-2.59062 16.15-4.19062 16.15-6.09062C16.15-8.09062 17.75-9.59062 19.65-9.59062C21.55-9.59062 23.15-7.99062 23.15-6.09062C23.15-4.19062 21.55-2.59062 19.65-2.59062Z"/>
   <path class="hierarchical-1:primary SFSymbolsPreview212121" d="M75.15-16.0906L75.15-44.3906L75.15-44.5906L75.15-54.6906C75.15-58.4906 74.25-61.2906 72.35-63.1906C70.45-65.0906 67.55-65.9906 63.75-65.9906L54.25-65.9906L54.25-71.8906C54.25-73.1906 53.65-74.1906 52.45-74.6906C51.25-75.1906 50.05-74.9906 48.95-73.8906L39.65-65.7906C38.35-64.6906 37.75-63.5906 37.75-62.4906C37.75-61.3906 38.35-60.2906 39.65-59.1906L48.95-51.0906C50.05-50.0906 51.25-49.7906 52.45-50.2906C53.65-50.7906 54.25-51.6906 54.25-52.9906L54.25-58.9906L63.65-58.9906C65.15-58.9906 66.25-58.5906 67.05-57.8906C67.85-57.0906 68.25-55.9906 68.25-54.3906L68.25-44.6906L68.25-44.4906L68.25-16.2906C64.15-14.8906 61.15-10.8906 61.15-6.39062C61.15-0.59062 65.85 4.10938 71.65 4.10938C77.45 4.10938 82.15-0.59062 82.15-6.39062C82.15-10.6906 79.15-14.5906 75.15-16.0906ZM71.55-2.59062C69.55-2.59062 68.05-4.19062 68.05-6.09062C68.05-8.09062 69.65-9.59062 71.55-9.59062C73.55-9.59062 75.05-7.99062 75.05-6.09062C75.15-4.19062 73.55-2.59062 71.55-2.59062Z"/>
  </g>
  <g id="Light-S" transform="matrix(1 0 0 1 1108.22 696)">
   <path class="hierarchical-0:secondary SFSymbolsPreview4D4D4D" d="M23.3167-14.1688L23.3167-53.3021C26.8833-54.4688 29.45-57.8021 29.45-61.7021C29.45-66.5688 25.4833-70.5354 20.55-70.5354C15.6833-70.5354 11.7167-66.5688 11.7167-61.7021C11.7167-57.7688 14.2833-54.4021 17.85-53.3021L17.85-14.1688C14.2833-13.0021 11.7167-9.66876 11.7167-5.76876C11.7167-0.902096 15.6833 3.06457 20.55 3.06457C25.4167 3.06457 29.3833-0.902096 29.3833-5.76876C29.45-9.66876 26.8833-13.0021 23.3167-14.1688ZM19.45-64.1021C20.7833-64.7354 22.3833-64.2021 23.0167-62.9354C23.65-61.6021 23.1167-60.0688 21.7833-59.4354C20.45-58.8021 18.9167-59.3354 18.2833-60.6021C17.55-61.8688 18.1167-63.4688 19.45-64.1021ZM20.6167-2.2021C18.65-2.2021 17.1167-3.8021 17.1167-5.7021C17.1167-7.66876 18.7167-9.2021 20.6167-9.2021C22.5167-9.2021 24.1167-7.6021 24.1167-5.7021C24.1167-3.8021 22.5167-2.2021 20.6167-2.2021Z"/>
   <path class="hierarchical-1:primary SFSymbolsPreview212121" d="M71.95-14.1688L71.95-42.7354L71.95-43.0021L71.95-54.2688C71.95-57.8688 71.1167-60.5354 69.3833-62.2688C67.65-64.0021 64.95-64.8688 61.3833-64.8688L50.8833-64.8688L50.8833-70.8688C50.8833-72.0021 50.3833-72.8354 49.35-73.2354C48.3167-73.6354 47.3167-73.5021 46.4167-72.6021L37.35-64.8354C36.3167-63.9354 35.8167-63.0354 35.8167-62.1021C35.8167-61.1688 36.3167-60.2688 37.35-59.3688L46.4167-51.6021C47.35-50.7688 48.35-50.5354 49.35-50.9688C50.3833-51.3688 50.8833-52.1354 50.8833-53.2688L50.8833-59.4021L61.2833-59.4021C63.1167-59.4021 64.4167-58.9688 65.2833-58.1354C66.15-57.2354 66.5833-55.9021 66.5833-54.0021L66.5833-43.0688L66.5833-42.8021L66.5833-14.3021C63.0167-13.2021 60.3833-9.8021 60.3833-5.9021C60.3833-1.03543 64.35 2.93124 69.2167 2.93124C74.0833 2.93124 78.05-1.03543 78.05-5.9021C78.0833-9.66876 75.45-13.0021 71.95-14.1688ZM69.1833-2.2021C67.2167-2.2021 65.6833-3.8021 65.6833-5.7021C65.6833-7.66876 67.2833-9.2021 69.1833-9.2021C71.15-9.2021 72.6833-7.6021 72.6833-5.7021C72.75-3.8021 71.15-2.2021 69.1833-2.2021Z"/>
  </g>
  <g id="Thin-S" transform="matrix(1 0 0 1 812.408 696)">
   <path class="hierarchical-0:secondary SFSymbolsPreview4D4D4D" d="M23.5371-11.627L23.5371-54.7721C26.3984-55.4979 28.5242-58.0818 28.5242-61.1882C28.5242-64.8205 25.5274-67.8173 21.8726-67.8173C18.2403-67.8173 15.2435-64.8205 15.2435-61.1882C15.2435-58.1366 17.3694-55.4753 20.2306-54.7721L20.2306-11.627C17.3694-10.9011 15.2435-8.31728 15.2435-5.21082C15.2435-1.57857 18.2403 1.41821 21.8726 1.41821C25.5048 1.41821 28.5016-1.57857 28.5016-5.21082C28.5242-8.31728 26.3984-10.9011 23.5371-11.627ZM19.1855-62.0011C19.6371-63.4721 21.2371-64.3495 22.7081-63.9205C24.179-63.4689 25.0565-61.8915 24.6048-60.4205C24.1532-58.9495 22.5758-58.0721 21.1048-58.5011C19.5339-58.9302 18.7339-60.5302 19.1855-62.0011ZM21.8952-1.68824C19.9726-1.68824 18.3952-3.28824 18.3952-5.18824C18.3952-7.11082 19.9952-8.68824 21.8952-8.68824C23.7952-8.68824 25.3952-7.08824 25.3952-5.18824C25.3952-3.28824 23.7952-1.68824 21.8952-1.68824Z"/>
   <path class="hierarchical-1:primary SFSymbolsPreview212121" d="M67.7177-11.627L67.7177-40.5463L67.7177-40.9011L67.7177-53.7108C67.7177-57.0463 66.9726-59.5366 65.4597-61.0495C63.9468-62.5624 61.5113-63.385 58.2532-63.385L46.4306-63.385L46.4306-69.5173C46.4306-70.4302 46.0629-71.0431 45.25-71.3108C44.4371-71.5786 43.7016-71.5334 43.0661-70.8979L34.3081-63.5721C33.6274-62.9366 33.2597-62.3011 33.2597-61.5882C33.2597-60.8753 33.6274-60.2399 34.3081-59.6044L43.0661-52.2786C43.779-51.6657 44.5145-51.5205 45.25-51.8657C46.0629-52.1334 46.4306-52.7237 46.4306-53.6366L46.4306-59.9463L58.1532-59.9463C60.4274-59.9463 61.9919-59.4689 62.9468-58.4592C63.9016-57.427 64.379-55.785 64.379-53.4882L64.379-40.9237L64.379-40.5689L64.379-11.6721C61.5177-10.9689 59.3694-8.36244 59.3694-5.25598C59.3694-1.62373 62.3661 1.37305 65.9984 1.37305C69.6306 1.37305 72.6274-1.62373 72.6274-5.25598C72.7048-8.31728 70.5565-10.9011 67.7177-11.627ZM66.0532-1.68824C64.1306-1.68824 62.5532-3.28824 62.5532-5.18824C62.5532-7.11082 64.1532-8.68824 66.0532-8.68824C67.9758-8.68824 69.5532-7.08824 69.5532-5.18824C69.5758-3.28824 67.9758-1.68824 66.0532-1.68824Z"/>
  </g>
  <g id="Ultralight-S" transform="matrix(1 0 0 1 516.159 696)">
   <path class="hierarchical-0:secondary SFSymbolsPreview4D4D4D" d="M23.65-10.325L23.65-55.525C26.15-56.025 28.05-58.225 28.05-60.925C28.05-63.925 25.55-66.425 22.55-66.425C19.55-66.425 17.05-63.925 17.05-60.925C17.05-58.325 18.95-56.025 21.45-55.525L21.45-10.325C18.95-9.82505 17.05-7.62505 17.05-4.92505C17.05-1.92505 19.55 0.574951 22.55 0.574951C25.55 0.574951 28.05-1.92505 28.05-4.92505C28.05-7.62505 26.15-9.82505 23.65-10.325ZM19.05-60.925C19.05-62.825 20.65-64.425 22.55-64.425C24.45-64.425 26.05-62.825 26.05-60.925C26.05-59.025 24.45-57.425 22.55-57.425C20.55-57.425 19.05-59.025 19.05-60.925ZM22.55-1.42505C20.65-1.42505 19.05-3.02505 19.05-4.92505C19.05-6.82505 20.65-8.42505 22.55-8.42505C24.45-8.42505 26.05-6.82505 26.05-4.92505C26.05-3.02505 24.45-1.42505 22.55-1.42505Z"/>
   <path class="hierarchical-1:primary SFSymbolsPreview212121" d="M65.55-10.325L65.55-39.425L65.55-39.825L65.55-53.425C65.55-56.625 64.85-59.025 63.45-60.425C62.05-61.825 59.75-62.625 56.65-62.625L44.15-62.625L44.15-68.825C44.15-69.625 43.85-70.125 43.15-70.325C42.45-70.525 41.85-70.525 41.35-70.025L32.75-62.925C32.25-62.425 31.95-61.925 31.95-61.325C31.95-60.725 32.25-60.225 32.75-59.725L41.35-52.625C41.95-52.125 42.55-52.025 43.15-52.325C43.85-52.525 44.15-53.025 44.15-53.825L44.15-60.225L56.55-60.225C59.05-60.225 60.75-59.725 61.75-58.625C62.75-57.525 63.25-55.725 63.25-53.225L63.25-39.825L63.25-39.425L63.25-10.325C60.75-9.82505 58.85-7.62505 58.85-4.92505C58.85-1.92505 61.35 0.574951 64.35 0.574951C67.35 0.574951 69.85-1.92505 69.85-4.92505C69.95-7.62505 68.05-9.82505 65.55-10.325ZM64.45-1.42505C62.55-1.42505 60.95-3.02505 60.95-4.92505C60.95-6.82505 62.55-8.42505 64.45-8.42505C66.35-8.42505 67.95-6.82505 67.95-4.92505C67.95-3.02505 66.35-1.42505 64.45-1.42505Z"/>
  </g>
 </g>
</svg>
