<svg xmlns="http://www.w3.org/2000/svg"  viewBox="0 0 48 48" width="30px" height="30px"><path fill="none" stroke="#d32f2f" stroke-linecap="round" stroke-linejoin="round" stroke-miterlimit="10" stroke-width="4" d="M29,19h-7c-2.209,0-4,1.791-4,4v0c0,2.209,1.791,4,4,4h2c2.209,0,4,1.791,4,4v0c0,2.209-1.791,4-4,4H10c-2.209,0-4-1.791-4-4V16"/><path fill="none" stroke="#d32f2f" stroke-linecap="round" stroke-linejoin="round" stroke-miterlimit="10" stroke-width="4" d="M11.938,29V17c0-2.209,1.791-4,4-4h22C40.181,13,42,14.819,42,17.062v0c0,2.244-1.819,4.062-4.062,4.062h0 c-2.175,0-3.937,1.763-3.937,3.937v7.875"/></svg>