<svg fill="#000000" xmlns="http://www.w3.org/2000/svg"  viewBox="0 0 50 50" width="50px" height="50px"><path d="M 25 3 C 13.941406 3 5 5.523438 5 8.742188 L 5.117188 9.3125 L 8 28 C 8 31.214844 15.941406 34 25 34 C 34.058594 34 42 31.214844 42 28 L 44.882813 9.3125 L 45 8.742188 C 45 5.523438 36.058594 3 25 3 Z M 25 6 C 32.710938 6 39 7.515625 39 9.5 C 39 11.484375 32.710938 13 25 13 C 17.289063 13 11 11.484375 11 9.5 C 11 7.515625 17.289063 6 25 6 Z M 25 18 C 28.359375 18 31 20.640625 31 24 C 31 27.359375 28.359375 30 25 30 C 21.640625 30 19 27.359375 19 24 C 19 20.640625 21.640625 18 25 18 Z M 25 21 C 23.34375 21 22 22.34375 22 24 C 22 25.65625 23.34375 27 25 27 C 26.65625 27 28 25.65625 28 24 C 28 22.34375 26.65625 21 25 21 Z M 10.761719 33.410156 L 12.058594 42.617188 C 12.058594 44.996094 17.894531 46.941406 24.714844 46.996094 C 31.53125 46.941406 37.363281 44.992188 37.363281 42.617188 L 38.625 33.671875 C 34.957031 35.199219 29.902344 36 25 36 C 19.820313 36 14.464844 35.109375 10.761719 33.410156 Z"/></svg>