<svg width="22" height="22" viewBox="0 0 22 22" fill="none" xmlns="http://www.w3.org/2000/svg">
<path d="M6.37404 18.4814H6.83205V17.21H6.5381C5.64259 17.21 5.29396 16.8135 5.29396 15.8018V13.8057C5.29396 12.8213 4.71291 12.2607 3.60548 12.1445V11.9463C4.71291 11.8232 5.29396 11.2627 5.29396 10.2783V8.31641C5.29396 7.30469 5.64259 6.9082 6.5381 6.9082H6.83205V5.63672H6.37404C4.49416 5.63672 3.67384 6.39551 3.67384 8.11133V9.78613C3.67384 10.8252 3.25002 11.2012 2.09474 11.2012V12.8828C3.25685 12.8896 3.67384 13.2656 3.67384 14.2979V15.9863C3.67384 17.709 4.49416 18.4814 6.37404 18.4814ZM15.6191 18.4814C17.499 18.4814 18.3193 17.709 18.3193 15.9863V14.2979C18.3193 13.2656 18.7363 12.8896 19.8984 12.8828V11.2012C18.7431 11.2012 18.3193 10.8252 18.3193 9.78613V8.11133C18.3193 6.39551 17.499 5.63672 15.6191 5.63672H15.1611V6.9082H15.4551C16.3574 6.9082 16.706 7.30469 16.706 8.31641V10.2783C16.706 11.2627 17.2803 11.8232 18.3877 11.9463V12.1445C17.2803 12.2607 16.706 12.8213 16.706 13.8057V15.8018C16.706 16.8135 16.3506 17.21 15.4551 17.21H15.1611V18.4814H15.6191Z" fill="black"/>
<rect x="7" y="9" width="4.05182" height="1.03262" rx="0.51631" fill="black"/>
<rect x="11.499" y="9" width="3.13208" height="1.03262" rx="0.51631" fill="black"/>
<rect x="7" y="10.8813" width="2.01348" height="1.03262" rx="0.51631" fill="black"/>
<rect x="9.53564" y="10.8813" width="5.09585" height="1.03262" rx="0.51631" fill="black"/>
<rect x="7" y="12.7632" width="7.63135" height="1.03262" rx="0.51631" fill="black"/>
<rect x="7" y="14.3003" width="4.82241" height="1.03262" rx="0.51631" fill="black"/>
<rect x="12.3442" y="14.3003" width="2.28692" height="1.03262" rx="0.51631" fill="black"/>
</svg>
