<svg xmlns="http://www.w3.org/2000/svg" viewBox="0 0 48 48" width="30px" height="30px">
    <path fill="#FFFFFF"
        d="M6.28,31.32c-0.801-0.63-1.655-1.233-2.238-2.083 c-1.228-1.499-2.173-3.235-2.82-5.059c-0.391-1.186-0.524-2.458-1.028-3.598c-0.527-0.828,0.09-1.733,0.997-1.997 c0.404-0.078,1.114-0.458,0.257-0.186c-0.768,0.564-0.843-0.512-0.055-0.58c0.538-0.071,0.736-0.512,0.552-0.908 c-0.577-0.376,1.4-0.79,0.405-1.352c-1.036-1.118,1.45-1.333,0.836-0.064c-0.147,0.976,1.737-0.179,1.3,0.949 c0.444,0.541,1.664,0.123,1.633,0.883c0.647,0.044,0.869,0.589,1.477,0.631c0.63,0.284,1.771,0.508,1.985,1.218 c-0.625,0.495-2.071-1.022-2.141,0.347c0.189,2.022,0.141,4.106,0.881,6.031c0.35,1.166,1.198,2.084,1.965,2.992 c0.733,0.889,1.726,1.516,2.738,2.043c0.888,0.419,1.845,0.696,2.813,0.871c0.392-0.3,1.085-1.416,1.698-0.946 c0.029,0.529-1.215,1.105-0.059,1.047c0.679-0.205,1.15,0.525,1.71-0.133c0.515,0.61,2.142-0.39,1.775,0.858 c-0.496,0.32-1.219,0.127-1.715,0.567c-0.819-0.409-1.471,0.366-2.377,0.268c-1.007,0.18-2.031,0.253-3.051,0.255 c-1.674-0.132-3.384-0.188-4.977-0.771C7.944,32.342,7.068,31.831,6.28,31.32L6.28,31.32z M7.694,31.932 c0.876,0.379,1.733,0.778,2.693,0.899c1.523,0.212,3.096,0.538,4.625,0.24c-0.692-0.312-1.407,0.122-2.097-0.223 c-0.827,0.178-1.714-0.045-2.554-0.155c-0.956-0.426-1.987-0.718-2.882-1.271c-1.118-0.408,0.578,0.524,0.88,0.599 c0.699,0.397-0.769-0.203-0.976-0.368c-0.586-0.328-0.66-0.26-0.058,0.074C7.447,31.797,7.567,31.872,7.694,31.932L7.694,31.932z M6.027,30.754c0.849,0.314-0.004-0.597-0.393-0.544c-0.172-0.299-0.659-0.488-0.316-0.649c-0.617,0.214-0.646-0.814-0.936-0.667 c-0.653-0.206-0.254-0.936-1.031-1.384c-0.071-0.472-0.772-0.882-0.996-1.595c-0.099-0.365-0.792-1.412-0.366-0.437 c0.363,0.939,1.001,1.742,1.532,2.545c0.412,0.764,0.9,1.563,1.651,2.04C5.425,30.306,5.669,30.678,6.027,30.754L6.027,30.754z M3.581,28.069 M7.043,31.131 M7.504,31.299 M8.081,31.54 M9.07,32.091 M7.171,30.767 M7.604,30.983 M9.767,32.333 c0.348,0.219,2.03,0.481,0.977,0.09C10.567,32.46,8.79,31.92,9.767,32.333z M6.333,29.659 M7.34,30.246 M8.187,30.765 M5.924,29.213c0.408,0.313,1.645,0.04,0.625-0.187c-0.465-0.248-1.511-0.417-0.798,0.149L5.924,29.213L5.924,29.213z M8.761,30.944 M7.899,30.259c0.998,0.282-0.839-0.631-0.246-0.104l0.131,0.059L7.899,30.259L7.899,30.259z M9.627,31.258 C10.572,31.267,8.774,31.128,9.627,31.258L9.627,31.258z M5.56,28.666 M11.225,32.155 M7.172,29.653 M5.65,28.556 M3.846,27.39 M8.581,30.395 M11.529,32.204 M8.321,30.126 M6.125,28.734 M9.839,31.042 M7.907,29.731c0.725,0.093-0.862-0.493-0.159-0.052 L7.907,29.731L7.907,29.731z M10.426,31.279c0.677-0.405,0.454,0.947,1.148,0.114c0.685-0.5-0.592,0.618,0.253,0.089 c0.611-0.408,1.512,0.194,2.082,0.39c0.41-0.02,0.808,0.354,1.228,0.126c0.808-0.218-1.581-0.323-0.955-0.709 c-0.74,0.215-1.286-0.257-1.65-0.731c-0.83-0.192-1.789-0.616-2.203-1.35c-0.169-0.276,0.244,0.039-0.146-0.412 c-0.5-0.445-0.75-0.95-1.085-1.49c-0.401-0.214-0.448-0.844-0.488-0.021c0.003-0.519-0.484-0.868-0.603-0.723 c-0.002-0.5,0.522-0.249,0.155-0.619c-0.079-0.518-0.339-1.058-0.417-1.643c-0.121-0.282-0.017-0.886-0.414-0.248 c-0.145,0.675-0.048-0.829,0.177-0.333c0.295-0.506-0.106-0.446-0.122-0.376c0.192-0.427,0.122-1.032-0.05-0.801 c0.102-0.452,0.162-1.665-0.153-1.45c0.191-0.473,0.362-2.165-0.467-1.52c-0.336,0.005-0.918,0.122-1.194,0.259 c0.863,0.476-0.087,0.172-0.438,0.096c-0.046,0.44-0.394,0.25-0.828,0.254c0.694,0.086-0.338,0.71-0.736,0.468 C3,20.896,3.964,21.513,3.528,21.704c0.054,0.288-0.792-0.104-0.726,0.56c-0.502-0.211-0.069,0.788,0.182,0.45 c0.854,0.231,0.601,0.758,0.623,1.259c-0.139,0.292-0.687-0.686-0.122-0.64c-0.446-0.724-0.493-0.262-0.863,0.075 c-0.086,0.024,0.945,0.479,0.298,0.703c0.569,0.088,0.585,0.586,0.701,0.901c0.342,0.356,0.272-0.393,0.681,0.035 c-0.259-0.382-1.372-1.075-0.476-0.853C3.821,23.81,3.664,23.5,3.938,23.508c0.272-0.492-0.285,1.214,0.328,0.588 c0.17-0.074,0.212-0.493,0.517,0.04c0.443,0.436,0.16,0.751-0.465,0.352c0.112,0.379,0.836,0.515,0.7,1.108 c0.144,0.522,0.346,0.329,0.522,0.299c0.138,0.507,0.216,0.134,0.223-0.107c0.632,0.135,0.484,0.509,0.682,0.77 c0.435,0.197-0.623-1.332,0.124-0.46c0.786,0.71,0.295,1.006-0.411,0.893c0.447-0.036,0.591,0.604,1.149,0.581 c0.509,0.242,0.854,1.173-0.024,0.786c-0.305-0.275-1.382-0.613-0.502-0.091c0.813,0.377,1.459,0.602,2.243,1.074 c0.561,0.401,0.804,0.86,1.016,0.95c-0.472,0.225-1.422-0.18-0.716-0.304c-0.44-0.08-0.935-0.303-0.513,0.246 c0.358,0.299,1.269,0.267,1.433,0.301c-0.138,0.305-0.376,0.329,0.006,0.353C9.824,31.115,10.387,31.15,10.426,31.279 L10.426,31.279z M9.555,28.82c-0.259-0.271-0.326-0.778-0.046-0.337C9.653,28.541,9.969,29.313,9.555,28.82L9.555,28.82z M12.391,30.622 M9.146,28.156 M8.864,27.777 M5.448,25.419 M8.167,26.893 M6.246,25.557 M7.895,26.085 c-0.309-0.692,0.219-0.378,0.068,0.113L7.895,26.085L7.895,26.085z M5.052,24.19c-0.138-0.227-0.366-0.893-0.293-1.096 c0.067,0.331,0.704,1.425,0.313,0.453c-0.432-0.815,0.517,0.264,0.615,0.468c0.045,0.202-0.267-0.055-0.055,0.419 C5.246,23.894,5.404,24.731,5.052,24.19z M4.174,23.585 M4.569,23.721 M3.618,22.985c-0.327-0.325-0.564-0.625,0.015-0.202 c0.223,0.009-0.496-0.681,0.054-0.219C4.265,22.67,3.973,23.512,3.618,22.985z M4.118,22.972 M4.425,23.071 M3.814,22.487 c-0.951-0.846,1.195,0.442,0.155,0.157L3.814,22.487L3.814,22.487z M6.538,24.07c-0.411-0.247-0.109-1.737,0.031-0.718 c0.4-0.129-0.022,0.526,0.276,0.52C6.799,24.286,6.665,24.435,6.538,24.07z M7.546,24.665 M7.371,24.492 M4.001,22.209 c-0.611-0.843,1.775,0.852,0.391,0.214C4.247,22.385,4.073,22.372,4.001,22.209z M5.941,23.238 C5.883,22.528,6.07,23.355,5.941,23.238L5.941,23.238z M7.414,24.183 M4.094,21.888c0.363-0.078,1.504,0.638,0.456,0.204 C4.434,21.963,4.186,22.021,4.094,21.888z M7.212,23.441c0.039-0.726,0.217-0.433,0.001,0.104L7.212,23.441L7.212,23.441 L7.212,23.441z M4.365,21.635c0.148-0.217-0.393-0.981,0.078-0.274c0.203,0.162,0.589,0.271,0.248,0.339 C5.226,22.172,4.56,21.828,4.365,21.635z M7.057,23.215 M4.056,20.872 M4.758,21.29 M6.739,22.392 M6.625,22.138 M6.456,21.693 C6.41,21.413,6.613,22.045,6.456,21.693L6.456,21.693z M6.731,21.246c-0.189-0.333,0.238-1.466,0.286-0.763 c-0.199,0.547-0.057,0.854,0.081,0.119C7.355,20.025,7.043,21.743,6.731,21.246L6.731,21.246z M7.013,19.561 M6.541,28.854 M7.513,29.346c0.54,0.139,0.538-0.084,0.049-0.15c-0.263-0.244-1.092-0.504-0.35-0.03C7.262,29.29,7.417,29.287,7.513,29.346 L7.513,29.346z M5.594,28.072c0.298,0.222,1.121,0.629,0.424,0.085c0.235-0.273-0.45-0.419-0.223-0.601 c-0.578-0.354-0.456-0.322-0.051-0.311c-0.695-0.311,0.1-0.287,0.063-0.446c-0.268-0.053-1.331-0.472-0.705,0.034 c-0.636-0.324-0.151,0.121-0.344,0.074c-0.65-0.177,0.579,0.495-0.103,0.328c0.373,0.295,1.004,0.757,0.158,0.313 C4.701,27.707,5.418,27.95,5.594,28.072L5.594,28.072z M6.61,28.655 M11.812,31.806 M12.347,32.031 c0.285-0.276,0.012,0.44,0.472-0.068c0.005-0.363-0.014-0.578-0.529-0.137C12.148,31.906,12.084,32.241,12.347,32.031 L12.347,32.031z M3.86,26.702 M4.431,27.076 M7.679,29.034c0.317,0.282,1.456,0.207,0.385,0.035 C7.905,28.835,7.056,28.891,7.679,29.034z M12.143,31.792 M13.158,32.489 M13.16,32.305C13.7,31.733,12.636,32.339,13.16,32.305 L13.16,32.305z M2.456,25.526c-0.461-0.657-0.286-0.953-0.731-1.489c-0.084-0.41-0.762-1.342-0.351-0.355 C1.751,24.259,1.863,25.152,2.456,25.526z M12.99,32.123 M13.749,32.421 M3.691,25.975 M13.591,32.218 c0.482-0.311-0.111-0.263-0.087,0.029L13.591,32.218L13.591,32.218z M7.048,28.094 M7.453,28.326 M14.364,32.428 c0.618-0.446-0.374-0.085-0.13,0.084L14.364,32.428L14.364,32.428z M14.128,32.313 M15.336,33.118 M4.001,25.822 c0.453,0.101,1.81,1.115,1.009,0.07c-0.41-0.121-0.164-1.123-0.582-0.946c0.281,0.469,0.231,0.668-0.358,0.373 c-0.741-0.362-0.416,0.179-0.271,0.328C3.6,25.692,4.059,25.819,4.001,25.822L4.001,25.822z M1.938,24.193 c0.081-0.335-0.746-1.845-0.391-0.756C1.675,23.665,1.662,24.097,1.938,24.193z M5.724,26.528 M6.298,26.661 M11.274,29.798 C11.179,29.555,10.899,29.792,11.274,29.798L11.274,29.798z M11.513,29.972 M13.485,31.215 M2.968,24.456 M10.836,29.413 M2.754,23.957 M3.765,24.447 M16.103,32.012c0.448-0.091,1.469,0.228,1.634-0.119c-0.544-0.013-1.883-0.384-1.946,0.088 l0.119,0.019L16.103,32.012L16.103,32.012L16.103,32.012z M4.087,24.528 M1.427,22.683 M2.061,22.842 M2.424,23.02 M4.704,24.483 M2.182,22.619 M0.882,21.775 M1.075,21.629 M2.144,22.267c0.452-0.178-0.823-0.367-0.092-0.034L2.144,22.267z M16.446,31.101 M18.174,31.997 M2.253,21.707 M0.733,20.688c-0.082-0.468-0.071-1.29,0.711-1.012c-1.043,0.207,0.722,1.296,0.499,0.436 c0.438,0.021,0.858-0.259,0.628,0.167c0.864-0.095,1.463-0.845,2.297-0.74c0.65-0.086,1.361-0.151,2.061-0.413 c0.576-0.041,1.13-0.662,0.815-1.029c-0.785-0.066-1.608,0.032-2.476,0.204c-0.962,0.2-1.836,0.58-2.806,0.743 c-0.946,0.127,0.19,0.35-0.081,0.4c-0.494,0.171,0.589,0.287-0.064,0.467c-0.403-0.077-0.823-0.215-0.651-0.64 c-0.906,0.118-1.703,0.494-0.987,1.416L0.733,20.688L0.733,20.688L0.733,20.688z M2.917,19.576 c0.212-0.783,1.138,0.644,0.348,0.104C3.171,19.609,3.015,19.552,2.917,19.576z M2.958,19.196 M3.347,19.203 c0.028-0.36,0.891,0.191,0.142,0.13L3.347,19.203L3.347,19.203z M3.88,18.988 M4.016,18.897c0.324-0.389,1.834-0.248,0.729-0.038 C4.449,18.636,4.222,18.991,4.016,18.897z M5.987,18.593 M6.547,18.59c0.204-0.536,0.794-0.215,0.095-0.108 C6.657,18.54,6.621,18.759,6.547,18.59z M2.033,21.432C2.644,21.058,1.384,21.107,2.033,21.432L2.033,21.432z M2.485,21.557 M1.153,20.613 M19.194,31.899 M17.361,30.648 M19.698,32.019c0.488,0.002,1.479-0.152,0.417-0.151 C19.948,31.894,19.144,31.889,19.698,32.019L19.698,32.019z M2.882,21.338c0.395-0.027,0.618-0.436-0.076-0.412 c-1.076-0.111,0.95,0.369-0.138,0.231C2.521,21.254,2.873,21.364,2.882,21.338z M3.23,21.514 M3.642,20.413 M2.329,18.217 c0.705-0.24,1.669-0.509,2.002,0.118c-0.339-0.408-0.137-0.809,0.183-0.213c0.452,0.603,0.679-0.274,0.385-0.477 c0.335,0.417,0.717,0.614,0.225,0.026c0.535-0.643-1.071,0.084-1.436,0.077C3.511,17.828,1.874,18.167,2.329,18.217z M2.742,17.426 c0.402-0.303,1.391,0.181,0.756-0.302C3.436,17.07,2.109,17.49,2.742,17.426z M4.208,17.487c0.471,0.012-0.203-0.632,0.358-0.34 c-0.092-0.301-0.653-0.357-0.927-0.477C3.483,16.944,3.954,17.49,4.208,17.487z M2.999,16.156 M3.598,16.299 c0.758-0.101-0.193-0.327-0.153-0.008L3.598,16.299L3.598,16.299z M2.479,15.424c-0.534-0.697,1.004,0.117,0.462-0.613 C2.484,14.448,2.046,15.221,2.479,15.424z M9.332,19.115c0.245-0.434-1.011-0.585-0.165-0.154 C9.244,18.987,9.227,19.145,9.332,19.115z" />
    <path fill="#FFFFFF"
        d="M20.891,16.121c-0.088,0.345-0.142,0.925-0.162,1.739c0,0.16-0.072,0.24-0.216,0.24 c-0.144,0-0.245-0.07-0.301-0.209c-0.155-0.376-0.301-0.639-0.441-0.788c-0.165-0.175-0.384-0.281-0.657-0.317 c-0.294-0.046-1.025-0.07-2.195-0.07c-0.268,0-0.443,0.028-0.526,0.085c-0.052,0.036-0.077,0.113-0.077,0.232v3.502 c0,0.119,0.075,0.175,0.224,0.17c0.459-0.005,1.123-0.036,1.994-0.093c0.17-0.021,0.285-0.076,0.344-0.166 c0.059-0.09,0.117-0.323,0.174-0.7c0.036-0.206,0.157-0.286,0.363-0.24c0.175,0.036,0.25,0.116,0.224,0.24 c-0.144,0.701-0.191,1.613-0.139,2.736c0.005,0.134-0.08,0.206-0.255,0.216c-0.144,0.015-0.234-0.062-0.271-0.232 c-0.134-0.644-0.383-0.988-0.746-1.032c-0.363-0.044-0.955-0.066-1.774-0.066c-0.093,0-0.139,0.034-0.139,0.1v3.478 c0,0.258,0.095,0.433,0.286,0.526c0.149,0.077,0.472,0.147,0.966,0.209c0.252,0.026,0.363,0.137,0.332,0.332 c-0.031,0.17-0.258,0.237-0.68,0.201c-1.221-0.098-2.229-0.093-3.022,0.015c-0.222,0.031-0.332-0.059-0.332-0.271 c0-0.134,0.111-0.211,0.332-0.232c0.505-0.057,0.758-0.5,0.758-1.33v-6.617c0-0.34-0.061-0.602-0.182-0.785 c-0.121-0.183-0.347-0.349-0.676-0.499c-0.206-0.093-0.283-0.219-0.232-0.379c0.026-0.098,0.067-0.152,0.124-0.162 c0.052-0.015,0.188-0.005,0.41,0.031c0.325,0.052,1.09,0.077,2.296,0.077c1.422,0,2.651-0.031,3.687-0.093 c0.345-0.021,0.518,0.008,0.518,0.085C20.898,16.08,20.896,16.1,20.891,16.121L20.891,16.121z" />
    <path fill="#FFFFFF"
        d="M25.915,25.945c0,0.206-0.116,0.296-0.348,0.271 c-0.711-0.067-1.592-0.057-2.644,0.031c-0.211,0.021-0.341,0.015-0.39-0.015c-0.049-0.031-0.073-0.116-0.073-0.255 c0-0.124,0.14-0.228,0.421-0.313c0.281-0.085,0.421-0.339,0.421-0.761v-6.995c0-0.417-0.061-0.724-0.182-0.92 c-0.121-0.196-0.334-0.348-0.638-0.456c-0.16-0.057-0.24-0.137-0.24-0.24c0-0.155,0.116-0.271,0.348-0.348 c0.35-0.113,0.714-0.289,1.09-0.526c0.309-0.186,0.505-0.278,0.587-0.278c0.191,0,0.286,0.131,0.286,0.394 c0-0.021-0.01,0.237-0.031,0.773c-0.015,0.51-0.021,1.013-0.015,1.507l0.031,6.903c0,0.314,0.077,0.542,0.232,0.684 c0.155,0.142,0.42,0.236,0.796,0.282C25.799,25.708,25.915,25.796,25.915,25.945z" />
    <path fill="#FFFFFF"
        d="M32.964,25.427c0,0.108-0.197,0.272-0.591,0.491 c-0.394,0.219-0.71,0.329-0.947,0.329c-0.201,0-0.379-0.098-0.533-0.294c-0.155-0.196-0.263-0.294-0.325-0.294 c-0.046,0-0.291,0.106-0.734,0.317c-0.443,0.211-0.889,0.317-1.337,0.317c-0.423,0-0.776-0.124-1.059-0.371 c-0.309-0.273-0.464-0.644-0.464-1.113c0-0.891,1.02-1.53,3.061-1.917c0.35-0.067,0.528-0.209,0.533-0.425l0.015-0.495 c0.031-0.845-0.343-1.268-1.121-1.268c-0.222,0-0.432,0.198-0.63,0.595c-0.198,0.397-0.483,0.611-0.854,0.642 c-0.423,0.041-0.634-0.137-0.634-0.533c0-0.247,0.314-0.536,0.943-0.866c0.66-0.345,1.293-0.518,1.901-0.518 c1.046,0,1.564,0.497,1.554,1.492l-0.031,3.185c-0.005,0.335,0.137,0.502,0.425,0.502c0.057,0,0.165-0.013,0.325-0.039 c0.16-0.026,0.252-0.039,0.278-0.039C32.89,25.126,32.964,25.226,32.964,25.427L32.964,25.427z M30.584,23.665 c0.005-0.129-0.024-0.214-0.089-0.255c-0.064-0.041-0.166-0.049-0.305-0.023c-1.242,0.222-1.863,0.626-1.863,1.214 c0,0.593,0.322,0.889,0.966,0.889c0.258,0,0.523-0.049,0.796-0.147c0.319-0.113,0.479-0.25,0.479-0.41L30.584,23.665z" />
    <path fill="#FFFFFF"
        d="M38.731,24.507c0,0.546-0.21,0.98-0.63,1.302c-0.42,0.322-0.993,0.483-1.72,0.483 c-0.484,0-0.969-0.052-1.453-0.155c-0.417-0.093-0.66-0.178-0.727-0.255c-0.041-0.072-0.062-0.425-0.062-1.059 c0-0.273,0.062-0.415,0.186-0.425c0.124-0.015,0.229,0.052,0.317,0.201c0.386,0.675,1.01,1.013,1.871,1.013 c0.727,0,1.09-0.253,1.09-0.758c0-0.222-0.082-0.407-0.247-0.557c-0.18-0.17-0.531-0.368-1.051-0.595 c-0.752-0.335-1.255-0.629-1.507-0.881c-0.273-0.268-0.41-0.629-0.41-1.082c0-0.557,0.214-0.989,0.642-1.299 c0.397-0.299,0.928-0.448,1.592-0.448c0.417,0,0.799,0.034,1.144,0.1c0.371,0.067,0.564,0.149,0.58,0.247 c0.041,0.289,0.126,0.706,0.255,1.252c0.015,0.067-0.057,0.121-0.216,0.162c-0.17,0.036-0.283,0.008-0.34-0.085 c-0.407-0.665-0.922-0.997-1.546-0.997c-0.706,0-1.059,0.227-1.059,0.68c0,0.253,0.095,0.453,0.286,0.603 c0.17,0.129,0.569,0.33,1.198,0.603c0.66,0.283,1.108,0.539,1.345,0.765C38.576,23.619,38.731,24.013,38.731,24.507z" />
    <path fill="#FFFFFF"
        d="M47.697,25.899c0,0.18-0.121,0.276-0.363,0.286 c-0.361,0.005-0.832,0.031-1.415,0.077c-0.289,0.057-0.495,0.021-0.618-0.108c-0.814-0.876-1.505-1.793-2.072-2.752 c-0.046-0.082-0.106-0.124-0.178-0.124c-0.088,0-0.24,0.077-0.456,0.232c-0.242,0.134-0.363,0.325-0.363,0.572 c0,0.175,0.005,0.428,0.015,0.758c0.01,0.33,0.093,0.546,0.247,0.649c0.108,0.072,0.358,0.129,0.75,0.17 c0.242,0.031,0.363,0.121,0.363,0.271c0,0.119-0.019,0.192-0.058,0.22c-0.039,0.028-0.14,0.035-0.305,0.019 c-0.515-0.046-1.386-0.021-2.613,0.077c-0.309,0.026-0.477-0.013-0.502-0.116c-0.01-0.036-0.015-0.088-0.015-0.155 c0-0.16,0.157-0.281,0.472-0.363c0.283-0.072,0.425-0.405,0.425-0.997V17.86c0-0.423-0.041-0.716-0.124-0.881 c-0.113-0.211-0.35-0.376-0.711-0.495c-0.17-0.057-0.255-0.137-0.255-0.24c0-0.149,0.121-0.265,0.363-0.348 c0.386-0.129,0.755-0.307,1.105-0.533c0.283-0.186,0.459-0.278,0.526-0.278c0.211,0,0.317,0.134,0.317,0.402 c0-0.036-0.003,0.219-0.008,0.765c-0.005,0.376-0.008,0.881-0.008,1.515l0.015,4.839c0,0.134,0.036,0.201,0.108,0.201 c0.077,0,0.196-0.067,0.356-0.201c0.428-0.335,0.953-0.773,1.577-1.314c0.124-0.129,0.186-0.232,0.186-0.309 c0-0.139-0.209-0.237-0.626-0.294c-0.18-0.021-0.265-0.121-0.255-0.301c0.015-0.18,0.106-0.258,0.271-0.232 c0.371,0.052,0.912,0.08,1.623,0.085c0.495,0.005,0.987,0.008,1.476,0.008c0.16,0.005,0.24,0.1,0.24,0.286 c0,0.175-0.126,0.271-0.379,0.286c-0.397,0.015-0.77,0.106-1.121,0.271c-0.49,0.222-1.013,0.611-1.569,1.167 c-0.041,0.031-0.062,0.07-0.062,0.116c0,0.072,0.088,0.245,0.263,0.518c0.644,0.979,1.252,1.719,1.824,2.218 c0.366,0.314,0.709,0.472,1.028,0.472c0.237,0,0.384,0.017,0.441,0.05C47.669,25.666,47.697,25.755,47.697,25.899L47.697,25.899z" />
</svg>