<?xml version="1.0" encoding="UTF-8"?>
<!--Generator: Apple Native CoreSVG 149-->
<!DOCTYPE svg
PUBLIC "-//W3C//DTD SVG 1.1//EN"
       "http://www.w3.org/Graphics/SVG/1.1/DTD/svg11.dtd">
<svg version="1.1" xmlns="http://www.w3.org/2000/svg" xmlns:xlink="http://www.w3.org/1999/xlink" width="3300" height="2200">
 <!--glyph: "", point size: 100.0, font version: "17.0d9e1", template writer version: "59"-->
 <style>.hierarchical-0:primary {fill:#212121}
.hierarchical-1:secondary {fill:#4D4D4D}

.clearBehindLayer {}
.SFSymbolsPreview212121 {fill:#212121;opacity:1.0}
.SFSymbolsPreview4D4D4D {fill:#4D4D4D;opacity:1.0}
</style>
 <g id="Notes">
  <rect height="2200" id="artboard" style="fill:white;opacity:1" width="3300" x="0" y="0"/>
  <line style="fill:none;stroke:black;opacity:1;stroke-width:0.5;" x1="263" x2="3036" y1="292" y2="292"/>
  <text style="stroke:none;fill:black;font-family:sans-serif;font-size:13;font-weight:bold;" transform="matrix(1 0 0 1 263 322)">Weight/Scale Variations</text>
  <text style="stroke:none;fill:black;font-family:sans-serif;font-size:13;text-anchor:middle;" transform="matrix(1 0 0 1 559.711 322)">Ultralight</text>
  <text style="stroke:none;fill:black;font-family:sans-serif;font-size:13;text-anchor:middle;" transform="matrix(1 0 0 1 856.422 322)">Thin</text>
  <text style="stroke:none;fill:black;font-family:sans-serif;font-size:13;text-anchor:middle;" transform="matrix(1 0 0 1 1153.13 322)">Light</text>
  <text style="stroke:none;fill:black;font-family:sans-serif;font-size:13;text-anchor:middle;" transform="matrix(1 0 0 1 1449.84 322)">Regular</text>
  <text style="stroke:none;fill:black;font-family:sans-serif;font-size:13;text-anchor:middle;" transform="matrix(1 0 0 1 1746.56 322)">Medium</text>
  <text style="stroke:none;fill:black;font-family:sans-serif;font-size:13;text-anchor:middle;" transform="matrix(1 0 0 1 2043.27 322)">Semibold</text>
  <text style="stroke:none;fill:black;font-family:sans-serif;font-size:13;text-anchor:middle;" transform="matrix(1 0 0 1 2339.98 322)">Bold</text>
  <text style="stroke:none;fill:black;font-family:sans-serif;font-size:13;text-anchor:middle;" transform="matrix(1 0 0 1 2636.69 322)">Heavy</text>
  <text style="stroke:none;fill:black;font-family:sans-serif;font-size:13;text-anchor:middle;" transform="matrix(1 0 0 1 2933.4 322)">Black</text>
  <line style="fill:none;stroke:black;opacity:1;stroke-width:0.5;" x1="263" x2="3036" y1="1903" y2="1903"/>
  <g transform="matrix(1 0 0 1 263 1933)">
   <path d="M9.24805 0.830078Q10.8691 0.830078 12.2949 0.214844Q13.7207-0.400391 14.8096-1.49414Q15.8984-2.58789 16.5186-4.01367Q17.1387-5.43945 17.1387-7.05078Q17.1387-8.66211 16.5186-10.0879Q15.8984-11.5137 14.8047-12.6074Q13.7109-13.7012 12.2852-14.3164Q10.8594-14.9316 9.23828-14.9316Q7.62695-14.9316 6.20117-14.3164Q4.77539-13.7012 3.69141-12.6074Q2.60742-11.5137 1.9873-10.0879Q1.36719-8.66211 1.36719-7.05078Q1.36719-5.43945 1.9873-4.01367Q2.60742-2.58789 3.69629-1.49414Q4.78516-0.400391 6.21094 0.214844Q7.63672 0.830078 9.24805 0.830078ZM9.24805-0.654297Q7.91992-0.654297 6.7627-1.14746Q5.60547-1.64062 4.73145-2.51953Q3.85742-3.39844 3.36426-4.56055Q2.87109-5.72266 2.87109-7.05078Q2.87109-8.37891 3.35938-9.54102Q3.84766-10.7031 4.72168-11.582Q5.5957-12.4609 6.75293-12.9541Q7.91016-13.4473 9.23828-13.4473Q10.5762-13.4473 11.7334-12.9541Q12.8906-12.4609 13.7695-11.582Q14.6484-10.7031 15.1465-9.54102Q15.6445-8.37891 15.6445-7.05078Q15.6445-5.72266 15.1514-4.56055Q14.6582-3.39844 13.7842-2.51953Q12.9102-1.64062 11.748-1.14746Q10.5859-0.654297 9.24805-0.654297ZM5.83984-7.04102Q5.83984-6.71875 6.04492-6.51855Q6.25-6.31836 6.5918-6.31836L8.50586-6.31836L8.50586-4.39453Q8.50586-4.0625 8.70605-3.85742Q8.90625-3.65234 9.22852-3.65234Q9.56055-3.65234 9.76562-3.85742Q9.9707-4.0625 9.9707-4.39453L9.9707-6.31836L11.8945-6.31836Q12.2266-6.31836 12.4316-6.51855Q12.6367-6.71875 12.6367-7.04102Q12.6367-7.37305 12.4316-7.57812Q12.2266-7.7832 11.8945-7.7832L9.9707-7.7832L9.9707-9.69727Q9.9707-10.0391 9.76562-10.2441Q9.56055-10.4492 9.22852-10.4492Q8.90625-10.4492 8.70605-10.2441Q8.50586-10.0391 8.50586-9.69727L8.50586-7.7832L6.5918-7.7832Q6.25-7.7832 6.04492-7.57812Q5.83984-7.37305 5.83984-7.04102Z"/>
  </g>
  <g transform="matrix(1 0 0 1 281.867 1933)">
   <path d="M11.709 2.91016Q13.75 2.91016 15.5518 2.12891Q17.3535 1.34766 18.7305-0.0292969Q20.1074-1.40625 20.8887-3.20801Q21.6699-5.00977 21.6699-7.05078Q21.6699-9.0918 20.8887-10.8936Q20.1074-12.6953 18.7305-14.0723Q17.3535-15.4492 15.5469-16.2305Q13.7402-17.0117 11.6992-17.0117Q9.6582-17.0117 7.85645-16.2305Q6.05469-15.4492 4.68262-14.0723Q3.31055-12.6953 2.5293-10.8936Q1.74805-9.0918 1.74805-7.05078Q1.74805-5.00977 2.5293-3.20801Q3.31055-1.40625 4.6875-0.0292969Q6.06445 1.34766 7.86621 2.12891Q9.66797 2.91016 11.709 2.91016ZM11.709 1.25Q9.98047 1.25 8.47656 0.605469Q6.97266-0.0390625 5.83496-1.17676Q4.69727-2.31445 4.05762-3.81836Q3.41797-5.32227 3.41797-7.05078Q3.41797-8.7793 4.05762-10.2832Q4.69727-11.7871 5.83008-12.9297Q6.96289-14.0723 8.4668-14.7119Q9.9707-15.3516 11.6992-15.3516Q13.4277-15.3516 14.9316-14.7119Q16.4355-14.0723 17.5781-12.9297Q18.7207-11.7871 19.3652-10.2832Q20.0098-8.7793 20.0098-7.05078Q20.0098-5.32227 19.3701-3.81836Q18.7305-2.31445 17.5928-1.17676Q16.4551-0.0390625 14.9463 0.605469Q13.4375 1.25 11.709 1.25ZM7.39258-7.04102Q7.39258-6.68945 7.62695-6.46484Q7.86133-6.24023 8.23242-6.24023L10.8789-6.24023L10.8789-3.57422Q10.8789-3.21289 11.1035-2.9834Q11.3281-2.75391 11.6797-2.75391Q12.0508-2.75391 12.2852-2.9834Q12.5195-3.21289 12.5195-3.57422L12.5195-6.24023L15.1758-6.24023Q15.5371-6.24023 15.7715-6.46484Q16.0059-6.68945 16.0059-7.04102Q16.0059-7.41211 15.7715-7.6416Q15.5371-7.87109 15.1758-7.87109L12.5195-7.87109L12.5195-10.5176Q12.5195-10.8984 12.2852-11.1279Q12.0508-11.3574 11.6797-11.3574Q11.3281-11.3574 11.1035-11.1279Q10.8789-10.8984 10.8789-10.5176L10.8789-7.87109L8.23242-7.87109Q7.85156-7.87109 7.62207-7.6416Q7.39258-7.41211 7.39258-7.04102Z"/>
  </g>
  <g transform="matrix(1 0 0 1 305.646 1933)">
   <path d="M14.9707 5.66406Q17.0605 5.66406 18.96 5.01465Q20.8594 4.36523 22.4512 3.19336Q24.043 2.02148 25.2197 0.429688Q26.3965-1.16211 27.0459-3.06641Q27.6953-4.9707 27.6953-7.05078Q27.6953-9.14062 27.0459-11.04Q26.3965-12.9395 25.2197-14.5312Q24.043-16.123 22.4512-17.2998Q20.8594-18.4766 18.9551-19.126Q17.0508-19.7754 14.9609-19.7754Q12.8711-19.7754 10.9717-19.126Q9.07227-18.4766 7.48535-17.2998Q5.89844-16.123 4.72168-14.5312Q3.54492-12.9395 2.90039-11.04Q2.25586-9.14062 2.25586-7.05078Q2.25586-4.9707 2.90527-3.06641Q3.55469-1.16211 4.72656 0.429688Q5.89844 2.02148 7.49023 3.19336Q9.08203 4.36523 10.9814 5.01465Q12.8809 5.66406 14.9707 5.66406ZM14.9707 3.84766Q13.1641 3.84766 11.5283 3.2959Q9.89258 2.74414 8.53516 1.74805Q7.17773 0.751953 6.17676-0.610352Q5.17578-1.97266 4.62891-3.6084Q4.08203-5.24414 4.08203-7.05078Q4.08203-8.86719 4.62891-10.5029Q5.17578-12.1387 6.17188-13.501Q7.16797-14.8633 8.52539-15.8594Q9.88281-16.8555 11.5186-17.4023Q13.1543-17.9492 14.9609-17.9492Q16.7773-17.9492 18.4131-17.4023Q20.0488-16.8555 21.4111-15.8594Q22.7734-14.8633 23.7695-13.501Q24.7656-12.1387 25.3174-10.5029Q25.8691-8.86719 25.8691-7.05078Q25.8789-5.24414 25.332-3.6084Q24.7852-1.97266 23.7842-0.610352Q22.7832 0.751953 21.4209 1.74805Q20.0586 2.74414 18.4229 3.2959Q16.7871 3.84766 14.9707 3.84766ZM9.45312-7.04102Q9.45312-6.66016 9.71191-6.41113Q9.9707-6.16211 10.3711-6.16211L14.0625-6.16211L14.0625-2.46094Q14.0625-2.06055 14.3115-1.80664Q14.5605-1.55273 14.9414-1.55273Q15.3516-1.55273 15.6055-1.80664Q15.8594-2.06055 15.8594-2.46094L15.8594-6.16211L19.5605-6.16211Q19.9609-6.16211 20.2148-6.41113Q20.4688-6.66016 20.4688-7.04102Q20.4688-7.45117 20.2148-7.70508Q19.9609-7.95898 19.5605-7.95898L15.8594-7.95898L15.8594-11.6504Q15.8594-12.0605 15.6055-12.3145Q15.3516-12.5684 14.9414-12.5684Q14.5605-12.5684 14.3115-12.3096Q14.0625-12.0508 14.0625-11.6504L14.0625-7.95898L10.3711-7.95898Q9.96094-7.95898 9.70703-7.70508Q9.45312-7.45117 9.45312-7.04102Z"/>
  </g>
  <text style="stroke:none;fill:black;font-family:sans-serif;font-size:13;font-weight:bold;" transform="matrix(1 0 0 1 263 1953)">Design Variations</text>
  <text style="stroke:none;fill:black;font-family:sans-serif;font-size:13;" transform="matrix(1 0 0 1 263 1971)">Symbols are supported in up to nine weights and three scales.</text>
  <text style="stroke:none;fill:black;font-family:sans-serif;font-size:13;" transform="matrix(1 0 0 1 263 1989)">For optimal layout with text and other symbols, vertically align</text>
  <text style="stroke:none;fill:black;font-family:sans-serif;font-size:13;" transform="matrix(1 0 0 1 263 2007)">symbols with the adjacent text.</text>
  <line style="fill:none;stroke:#00AEEF;stroke-width:0.5;opacity:1.0;" x1="776" x2="776" y1="1919" y2="1933"/>
  <g transform="matrix(1 0 0 1 776 1933)">
   <path d="M3.31055 0.15625Q3.70117 0.15625 3.91602-0.00976562Q4.13086-0.175781 4.26758-0.585938L5.52734-4.0332L11.2891-4.0332L12.5488-0.585938Q12.6855-0.175781 12.9004-0.00976562Q13.1152 0.15625 13.4961 0.15625Q13.8867 0.15625 14.1162-0.0585938Q14.3457-0.273438 14.3457-0.644531Q14.3457-0.869141 14.2383-1.17188L9.6582-13.3691Q9.48242-13.8184 9.17969-14.043Q8.87695-14.2676 8.4082-14.2676Q7.5-14.2676 7.17773-13.3789L2.59766-1.16211Q2.49023-0.859375 2.49023-0.634766Q2.49023-0.263672 2.70996-0.0537109Q2.92969 0.15625 3.31055 0.15625ZM6.00586-5.51758L8.37891-12.0898L8.42773-12.0898L10.8008-5.51758Z"/>
  </g>
  <line style="fill:none;stroke:#00AEEF;stroke-width:0.5;opacity:1.0;" x1="793.197" x2="793.197" y1="1919" y2="1933"/>
  <text style="stroke:none;fill:black;font-family:sans-serif;font-size:13;font-weight:bold;" transform="matrix(1 0 0 1 776 1953)">Margins</text>
  <text style="stroke:none;fill:black;font-family:sans-serif;font-size:13;" transform="matrix(1 0 0 1 776 1971)">Leading and trailing margins on the left and right side of each symbol</text>
  <text style="stroke:none;fill:black;font-family:sans-serif;font-size:13;" transform="matrix(1 0 0 1 776 1989)">can be adjusted by modifying the x-location of the margin guidelines.</text>
  <text style="stroke:none;fill:black;font-family:sans-serif;font-size:13;" transform="matrix(1 0 0 1 776 2007)">Modifications are automatically applied proportionally to all</text>
  <text style="stroke:none;fill:black;font-family:sans-serif;font-size:13;" transform="matrix(1 0 0 1 776 2025)">scales and weights.</text>
  <g transform="matrix(1 0 0 1 1289 1933)">
   <path d="M2.8418 1.86523L4.54102 3.57422Q5.18555 4.22852 5.90332 4.17969Q6.62109 4.13086 7.31445 3.35938L18.0078-8.42773L17.041-9.4043L6.42578 2.27539Q6.16211 2.57812 5.89355 2.61719Q5.625 2.65625 5.27344 2.30469L4.10156 1.14258Q3.75 0.791016 3.79395 0.522461Q3.83789 0.253906 4.14062-0.0195312L15.6152-10.8203L14.6387-11.7871L3.04688-0.898438Q2.30469-0.214844 2.25098 0.498047Q2.19727 1.21094 2.8418 1.86523ZM9.25781-16.3281Q8.94531-16.0254 8.90625-15.6348Q8.86719-15.2441 9.04297-14.9512Q9.21875-14.6777 9.55566-14.541Q9.89258-14.4043 10.3809-14.5215Q11.4746-14.7754 12.5977-14.7314Q13.7207-14.6875 14.7949-13.9844L14.209-12.5293Q13.9551-11.9043 14.0674-11.4404Q14.1797-10.9766 14.5801-10.5664L16.875-8.25195Q17.2363-7.88086 17.5781-7.82227Q17.9199-7.76367 18.3398-7.8418L19.4043-8.03711L20.0684-7.36328L20.0293-6.80664Q20-6.43555 20.1221-6.12305Q20.2441-5.81055 20.6055-5.44922L21.3672-4.70703Q21.7285-4.3457 22.1533-4.33105Q22.5781-4.31641 22.9297-4.66797L25.8398-7.58789Q26.1914-7.93945 26.1816-8.35449Q26.1719-8.76953 25.8105-9.13086L25.0391-9.89258Q24.6875-10.2539 24.3799-10.3857Q24.0723-10.5176 23.7109-10.4883L23.1348-10.4395L22.4902-11.0742L22.7344-12.1973Q22.832-12.6172 22.6953-12.9834Q22.5586-13.3496 22.1191-13.7891L19.9219-15.9766Q18.6719-17.2168 17.2607-17.8369Q15.8496-18.457 14.4189-18.4814Q12.9883-18.5059 11.665-17.959Q10.3418-17.4121 9.25781-16.3281ZM10.752-15.957Q11.6602-16.6211 12.7002-16.9043Q13.7402-17.1875 14.8047-17.085Q15.8691-16.9824 16.8701-16.5137Q17.8711-16.0449 18.7012-15.2051L21.1328-12.793Q21.3086-12.6172 21.3525-12.4512Q21.3965-12.2852 21.3379-12.0312L21.0156-10.5469L22.5195-9.0625L23.5059-9.12109Q23.6914-9.13086 23.7891-9.09668Q23.8867-9.0625 24.0332-8.91602L24.6094-8.33984L22.168-5.89844L21.5918-6.47461Q21.4453-6.62109 21.4062-6.71875Q21.3672-6.81641 21.377-7.01172L21.4453-7.98828L19.9512-9.47266L18.4277-9.21875Q18.1836-9.16992 18.042-9.2041Q17.9004-9.23828 17.7148-9.41406L15.7129-11.416Q15.5176-11.5918 15.4932-11.7529Q15.4688-11.9141 15.5859-12.1875L16.4648-14.2773Q15.293-15.3711 13.8281-15.791Q12.3633-16.2109 10.8398-15.7617Q10.7227-15.7324 10.6885-15.8057Q10.6543-15.8789 10.752-15.957Z"/>
  </g>
  <text style="stroke:none;fill:black;font-family:sans-serif;font-size:13;font-weight:bold;" transform="matrix(1 0 0 1 1289 1953)">Exporting</text>
  <text style="stroke:none;fill:black;font-family:sans-serif;font-size:13;" transform="matrix(1 0 0 1 1289 1971)">Symbols should be outlined when exporting to ensure the</text>
  <text style="stroke:none;fill:black;font-family:sans-serif;font-size:13;" transform="matrix(1 0 0 1 1289 1989)">design is preserved when submitting to Xcode.</text>
  <text id="template-version" style="stroke:none;fill:black;font-family:sans-serif;font-size:13;text-anchor:end;" transform="matrix(1 0 0 1 3036 1933)">Template v.3.0</text>
  <text style="stroke:none;fill:black;font-family:sans-serif;font-size:13;text-anchor:end;" transform="matrix(1 0 0 1 3036 1951)">Requires Xcode 13 or greater</text>
  <text id="descriptive-name" style="stroke:none;fill:black;font-family:sans-serif;font-size:13;text-anchor:end;" transform="matrix(1 0 0 1 3036 1969)">Generated from git.branch</text>
  <text style="stroke:none;fill:black;font-family:sans-serif;font-size:13;text-anchor:end;" transform="matrix(1 0 0 1 3036 1987)">Typeset at 100 points</text>
  <text style="stroke:none;fill:black;font-family:sans-serif;font-size:13;" transform="matrix(1 0 0 1 263 726)">Small</text>
  <text style="stroke:none;fill:black;font-family:sans-serif;font-size:13;" transform="matrix(1 0 0 1 263 1156)">Medium</text>
  <text style="stroke:none;fill:black;font-family:sans-serif;font-size:13;" transform="matrix(1 0 0 1 263 1586)">Large</text>
 </g>
 <g id="Guides">
  <g id="H-reference" style="fill:#27AAE1;stroke:none;" transform="matrix(1 0 0 1 339 696)">
   <path d="M0.976562 0L3.66211 0L29.3457-67.1387L30.0293-67.1387L30.0293-70.459L28.125-70.459ZM11.6699-24.4629L46.9727-24.4629L46.2402-26.709L12.4512-26.709ZM55.127 0L57.7637 0L30.6152-70.459L29.4434-70.459L29.4434-67.1387Z"/>
  </g>
  <line id="Baseline-S" style="fill:none;stroke:#27AAE1;opacity:1;stroke-width:0.5;" x1="263" x2="3036" y1="696" y2="696"/>
  <line id="Capline-S" style="fill:none;stroke:#27AAE1;opacity:1;stroke-width:0.5;" x1="263" x2="3036" y1="625.541" y2="625.541"/>
  <g id="H-reference" style="fill:#27AAE1;stroke:none;" transform="matrix(1 0 0 1 339 1126)">
   <path d="M0.976562 0L3.66211 0L29.3457-67.1387L30.0293-67.1387L30.0293-70.459L28.125-70.459ZM11.6699-24.4629L46.9727-24.4629L46.2402-26.709L12.4512-26.709ZM55.127 0L57.7637 0L30.6152-70.459L29.4434-70.459L29.4434-67.1387Z"/>
  </g>
  <line id="Baseline-M" style="fill:none;stroke:#27AAE1;opacity:1;stroke-width:0.5;" x1="263" x2="3036" y1="1126" y2="1126"/>
  <line id="Capline-M" style="fill:none;stroke:#27AAE1;opacity:1;stroke-width:0.5;" x1="263" x2="3036" y1="1055.54" y2="1055.54"/>
  <g id="H-reference" style="fill:#27AAE1;stroke:none;" transform="matrix(1 0 0 1 339 1556)">
   <path d="M0.976562 0L3.66211 0L29.3457-67.1387L30.0293-67.1387L30.0293-70.459L28.125-70.459ZM11.6699-24.4629L46.9727-24.4629L46.2402-26.709L12.4512-26.709ZM55.127 0L57.7637 0L30.6152-70.459L29.4434-70.459L29.4434-67.1387Z"/>
  </g>
  <line id="Baseline-L" style="fill:none;stroke:#27AAE1;opacity:1;stroke-width:0.5;" x1="263" x2="3036" y1="1556" y2="1556"/>
  <line id="Capline-L" style="fill:none;stroke:#27AAE1;opacity:1;stroke-width:0.5;" x1="263" x2="3036" y1="1485.54" y2="1485.54"/>
  <line id="left-margin-Regular-M" style="fill:none;stroke:#00AEEF;stroke-width:0.5;opacity:1.0;" x1="1392.12" x2="1392.12" y1="1030.73" y2="1150.14"/>
  <line id="right-margin-Regular-M" style="fill:none;stroke:#00AEEF;stroke-width:0.5;opacity:1.0;" x1="1507.57" x2="1507.57" y1="1030.73" y2="1150.14"/>
 </g>
 <g id="Symbols">
  <g id="Black-L" transform="matrix(1 0 0 1 2848.12 1556)">
   <path class="hierarchical-0:primary SFSymbolsPreview212121" d="M159.11-73.7038C159.11-89.0438 146.523-101.631 131.183-101.631C115.723-101.631 103.256-89.1635 103.256-73.7038C103.256-65.7199 106.627-58.5569 112.033-53.7499C105.998-49.0577 97.4473-44.0546 85.1886-44.0546C56.2932-44.0546 42.5204-29.5224 36.1851-16.3436L53.6057-9.14852C57.8148-16.4694 66.4916-25.4405 85.3082-25.4405C108.65-25.4405 124.443-35.3295 133.645-45.981C147.955-47.1311 159.11-59.025 159.11-73.7038ZM131.183-79.901C134.633-79.901 137.38-77.1534 137.38-73.7038C137.38-70.2542 134.633-67.5066 131.183-67.5066C127.733-67.5066 124.986-70.2542 124.986-73.7038C124.986-77.1508 127.776-79.901 131.183-79.901Z"/>
   <path class="hierarchical-1:secondary clearBehindLayer SFSymbolsPreview4D4D4D" d="M47.4819-22.5786L47.4819-46.8685C59.0967-50.2696 67.5548-60.9543 67.5548-73.5815C67.5548-89.0412 55.0872-101.509 39.585-101.509C24.1254-101.509 11.6578-89.0412 11.6578-73.5815C11.6578-60.9145 20.1158-50.2272 31.7307-46.8685L31.7307-22.5786C20.1158-19.1775 11.6578-8.49282 11.6578 4.13439C11.6578 19.5941 24.1254 32.0617 39.585 32.0617C55.0447 32.0617 67.5123 19.5941 67.5123 4.13439C67.4351-8.3732 58.9771-19.1775 47.4819-22.5786ZM39.3732-83.007C44.5284-83.0571 48.7186-78.9512 48.7687-73.8385C48.8187-68.6833 44.7128-64.5355 39.5576-64.4855C34.4025-64.4354 30.2547-68.5413 30.2046-73.654C30.1519-78.7668 34.2605-82.9543 39.3732-83.007ZM39.4654 13.5272C34.2602 13.5272 30.1124 9.33699 30.1124 4.1742C30.1124-1.03103 34.3026-5.1788 39.4654-5.1788C44.6282-5.1788 48.8184-0.988579 48.8184 4.1742C48.8609 9.33699 44.6707 13.5272 39.4654 13.5272Z"/>
  </g>
  <g id="Heavy-L" transform="matrix(1 0 0 1 2554.02 1556)">
   <path class="hierarchical-0:primary SFSymbolsPreview212121" d="M152.242-75.0714C152.242-88.7559 141.026-99.9717 127.341-99.9717C113.566-99.9717 102.441-88.8472 102.441-75.0714C102.441-67.5721 105.82-60.8841 111.119-56.6542C105.718-50.284 97.1612-42.6481 82.6519-42.6481C53.2394-42.6481 40.1925-25.6533 34.707-11.5806L50.2483-5.90212C53.9668-14.3249 62.3399-26.2053 82.7433-26.2053C107.078-26.2053 121.863-38.4682 129.884-50.3844C142.465-51.5793 152.242-62.1125 152.242-75.0714ZM127.341-78.4456C129.238-78.4456 130.716-76.9684 130.716-75.0714C130.716-73.1744 129.238-71.6972 127.341-71.6972C125.444-71.6972 123.967-73.1744 123.967-75.0714C123.967-76.956 125.505-78.4456 127.341-78.4456Z"/>
   <path class="hierarchical-1:secondary clearBehindLayer SFSymbolsPreview4D4D4D" d="M45.3675-17.6456L45.3675-51.1765C55.6693-54.2545 63.155-63.7576 63.155-74.9676C63.155-88.7435 52.0305-99.8679 38.1937-99.8679C24.4179-99.8679 13.2934-88.7435 13.2934-74.9676C13.2934-63.709 20.7791-54.1935 31.0809-51.1765L31.0809-17.6456C20.7791-14.5676 13.2934-5.06448 13.2934 6.14557C13.2934 19.9214 24.4179 31.0459 38.1937 31.0459C51.9696 31.0459 63.094 19.9214 63.094 6.14557C63.0636-4.97309 55.5779-14.5676 45.3675-17.6456ZM37.6697-83.2058C42.1787-83.4407 46.0019-80.013 46.2368-75.565C46.4716-71.056 43.0439-67.2937 38.535-67.0588C34.026-66.824 30.2637-70.2517 30.0288-74.6997C29.7816-79.1477 33.2217-82.9586 37.6697-83.2058ZM38.1023 14.7003C33.3585 14.7003 29.5962 10.877 29.5962 6.19416C29.5962 1.45032 33.4195-2.31196 38.1023-2.31196C42.7852-2.31196 46.6085 1.51128 46.6085 6.19416C46.6694 10.877 42.8462 14.7003 38.1023 14.7003Z"/>
  </g>
  <g id="Bold-L" transform="matrix(1 0 0 1 2260.34 1556)">
   <path class="hierarchical-0:primary SFSymbolsPreview212121" d="M143.869-76.6602C143.869-88.3276 134.317-97.8797 122.649-97.8797C110.922-97.8797 101.43-88.3874 101.43-76.6602C101.43-69.7915 104.788-63.7172 109.902-60.1919C105.269-51.8855 96.7705-40.9922 79.7142-40.9922C49.9059-40.9922 37.8714-21.1188 33.3894-6.22312L46.5279-2.27056C49.6741-11.9436 57.6603-27.2848 79.774-27.2848C105.137-27.2848 118.594-42.4273 125.192-55.652C135.716-56.8558 143.869-65.7607 143.869-76.6602ZM122.649-76.8765C122.809-76.8765 122.865-76.8203 122.865-76.6602C122.865-76.5 122.809-76.4438 122.649-76.4438C122.489-76.4438 122.433-76.5 122.433-76.6602C122.433-76.7912 122.565-76.8765 122.649-76.8765Z"/>
   <path class="hierarchical-1:secondary clearBehindLayer SFSymbolsPreview4D4D4D" d="M43.0553-11.9092L43.0553-56.3139C51.794-58.9715 58.133-67.0526 58.133-76.5712C58.133-88.2985 48.6407-97.7907 36.8377-97.7907C25.1105-97.7907 15.6182-88.2985 15.6182-76.5712C15.6182-67.006 21.9573-58.8957 30.6959-56.3139L30.6959-11.9092C21.9573-9.25154 15.6182-1.17043 15.6182 8.3482C15.6182 20.0754 25.1105 29.5677 36.8377 29.5677C48.565 29.5677 58.0572 20.0754 58.0572 8.3482C58.0732-1.11062 51.7342-9.25154 43.0553-11.9092ZM35.7582-83.275C39.4264-83.8285 42.8392-81.3481 43.3927-77.7557C43.9463-74.0874 41.4659-70.7505 37.7977-70.1969C34.1294-69.6433 30.7925-72.1237 30.2389-75.7162C29.6562-79.3087 32.1657-82.6923 35.7582-83.275ZM36.7779 15.9536C32.5561 15.9536 29.2192 12.5409 29.2192 8.39482C29.2192 4.17303 32.6319 0.836075 36.7779 0.836075C40.924 0.836075 44.3367 4.24878 44.3367 8.39482C44.4124 12.5409 40.9997 15.9536 36.7779 15.9536Z"/>
  </g>
  <g id="Semibold-L" transform="matrix(1 0 0 1 1965.73 1556)">
   <path class="hierarchical-0:primary SFSymbolsPreview212121" d="M138.096-77.7555C138.096-88.0324 129.691-96.4374 119.414-96.4374C109.099-96.4374 100.732-88.0704 100.732-77.7555C100.732-71.3215 104.076-65.6703 109.064-62.6308C104.96-52.9896 96.5011-39.8506 77.6889-39.8506C47.6077-39.8506 36.2712-17.9928 32.4811-2.52967L43.9631 0.233018C46.7147-10.302 54.4343-28.029 77.7269-28.029C103.799-28.029 116.34-45.1566 121.958-59.2835C131.063-60.4934 138.096-68.2758 138.096-77.7555ZM119.414-75.7948C118.377-75.7948 117.454-76.7183 117.454-77.7555C117.454-78.7927 118.377-79.7162 119.414-79.7162C120.452-79.7162 121.375-78.7927 121.375-77.7555C121.375-76.6776 120.537-75.7948 119.414-75.7948Z"/>
   <path class="hierarchical-1:secondary clearBehindLayer SFSymbolsPreview4D4D4D" d="M41.4613-7.9545L41.4613-59.8555C49.1224-62.2234 54.6709-69.3241 54.6709-77.6767C54.6709-87.9917 46.3038-96.3587 35.9029-96.3587C25.588-96.3587 17.221-87.9917 17.221-77.6767C17.221-69.2789 22.7695-62.1374 30.4305-59.8555L30.4305-7.9545C22.7695-5.58669 17.221 1.5141 17.221 9.86669C17.221 20.1816 25.588 28.5487 35.9029 28.5487C46.2179 28.5487 54.5849 20.1816 54.5849 9.86669C54.6328 1.55213 49.0844-5.58669 41.4613-7.9545ZM34.4404-83.3226C37.5291-84.0959 40.6588-82.2686 41.432-79.2659C42.2053-76.1773 40.378-73.1336 37.2894-72.3603C34.2008-71.587 31.157-73.4143 30.3837-76.417C29.5698-79.4196 31.4378-82.5086 34.4404-83.3226ZM35.8649 16.8176C32.003 16.8176 28.9593 13.6879 28.9593 9.91195C28.9593 6.05004 32.089 3.00631 35.8649 3.00631C39.6409 3.00631 42.7706 6.136 42.7706 9.91195C42.8565 13.6879 39.7268 16.8176 35.8649 16.8176Z"/>
  </g>
  <g id="Medium-L" transform="matrix(1 0 0 1 1670.6 1556)">
   <path class="hierarchical-0:primary SFSymbolsPreview212121" d="M133.719-78.586C133.719-87.8085 126.184-95.3439 116.962-95.3439C107.717-95.3439 100.204-87.83 100.204-78.586C100.204-72.4816 103.537-67.1513 108.428-64.48C104.725-53.8268 96.2968-38.985 76.1532-38.985C45.8652-38.985 35.0579-15.6225 31.7924 0.270861L42.0183 2.13133C44.4707-9.05729 51.9881-28.5933 76.1747-28.5933C102.785-28.5933 114.631-47.2261 119.506-62.037C127.535-63.2516 133.719-70.1829 133.719-78.586ZM116.962-74.9746C115.016-74.9746 113.35-76.6409 113.35-78.586C113.35-80.5311 115.016-82.1974 116.962-82.1974C118.907-82.1974 120.573-80.5311 120.573-78.586C120.573-76.5914 119-74.9746 116.962-74.9746Z"/>
   <path class="hierarchical-1:secondary clearBehindLayer SFSymbolsPreview4D4D4D" d="M40.2527-4.95592L40.2527-62.541C47.0967-64.6891 52.0458-71.0465 52.0458-78.515C52.0458-87.759 44.5319-95.2729 35.1941-95.2729C25.9501-95.2729 18.4362-87.759 18.4362-78.515C18.4362-71.0023 23.3853-64.5954 30.2293-62.541L30.2293-4.95592C23.3853-2.80785 18.4362 3.54962 18.4362 11.0181C18.4362 20.2621 25.9501 27.776 35.1941 27.776C44.4382 27.776 51.952 20.2621 51.952 11.0181C52.0242 3.57115 47.0751-2.80785 40.2527-4.95592ZM33.4412-83.3587C36.0904-84.2986 39.0055-82.9665 39.9454-80.411C40.8853-77.7619 39.5531-74.9405 36.904-74.0006C34.2548-73.0607 31.4334-74.3929 30.4935-76.9483C29.5042-79.5038 30.8858-82.3694 33.4412-83.3587ZM35.1726 17.4727C31.5836 17.4727 28.7622 14.5576 28.7622 11.0623C28.7622 7.47327 31.6773 4.65187 35.1726 4.65187C38.6679 4.65187 41.583 7.56697 41.583 11.0623C41.6767 14.5576 38.7616 17.4727 35.1726 17.4727Z"/>
  </g>
  <g id="Regular-L" transform="matrix(1 0 0 1 1375.96 1556)">
   <path class="hierarchical-0:primary SFSymbolsPreview212121" d="M128.011-79.6692C128.011-87.5165 121.61-93.9175 113.762-93.9175C105.915-93.9175 99.514-87.5165 99.514-79.6692C99.514-73.9948 102.833-69.083 107.598-66.8921C104.419-54.9188 96.0304-37.856 74.1502-37.856C43.5923-37.856 33.4753-12.5308 30.8941 3.92372L39.4817 4.6074C41.5439-7.43371 48.7975-29.3294 74.1502-29.3294C101.461-29.3294 112.402-49.9255 116.307-65.6286C122.934-66.8492 128.011-72.6704 128.011-79.6692ZM113.762-73.9047C110.633-73.9047 107.998-76.5399 107.998-79.6692C107.998-82.7985 110.633-85.4337 113.762-85.4337C116.892-85.4337 119.527-82.7985 119.527-79.6692C119.527-76.479 116.995-73.9047 113.762-73.9047Z"/>
   <path class="hierarchical-1:secondary clearBehindLayer SFSymbolsPreview4D4D4D" d="M38.6762-1.04473L38.6762-66.0437C44.4544-67.9052 48.6217-73.2931 48.6217-79.6083C48.6217-87.4556 42.2207-93.8566 34.2696-93.8566C26.4223-93.8566 20.0213-87.4556 20.0213-79.6083C20.0213-73.2502 24.1886-67.8014 29.9668-66.0437L29.9668-1.04473C24.1886 0.816725 20.0213 6.20465 20.0213 12.5199C20.0213 20.3671 26.4223 26.7681 34.2696 26.7681C42.1169 26.7681 48.5179 20.3671 48.5179 12.5199C48.6217 6.20465 44.4544 0.816725 38.6762-1.04473ZM32.1379-83.4059C34.2139-84.5631 36.8491-83.8768 38.0062-81.9047C39.1634-79.8288 38.4772-77.2974 36.4013-76.1402C34.3254-74.983 31.794-75.6693 30.6368-77.6414C29.4187-79.6135 30.1658-82.1878 32.1379-83.4059ZM34.2696 18.3273C31.0365 18.3273 28.5051 15.6921 28.5051 12.5628C28.5051 9.32966 31.1403 6.79825 34.2696 6.79825C37.3989 6.79825 40.0341 9.43345 40.0341 12.5628C40.1379 15.6921 37.5027 18.3273 34.2696 18.3273Z"/>
  </g>
  <g id="Light-L" transform="matrix(1 0 0 1 1080.09 1556)">
   <path class="hierarchical-0:primary SFSymbolsPreview212121" d="M123.093-80.0895C123.093-86.76 117.617-92.2364 110.946-92.2364C104.276-92.2364 98.7995-86.76 98.7995-80.0895C98.7995-75.0455 101.908-70.7221 106.211-68.9515C103.452-56.5579 95.526-37.2676 73.4357-37.2676C44.1807-37.2676 35.4927-11.0598 33.2898 4.13387L39.7339 4.6074C41.6279-7.5598 48.5453-30.9265 73.4357-30.9265C100.158-30.9265 109.67-53.1197 112.861-68.0662C118.605-68.9927 123.093-74.0573 123.093-80.0895ZM110.946-74.325C107.817-74.325 105.182-76.9602 105.182-80.0895C105.182-83.2188 107.817-85.854 110.946-85.854C114.076-85.854 116.711-83.2188 116.711-80.0895C116.711-76.8573 114.137-74.325 110.946-74.325Z"/>
   <path class="hierarchical-1:secondary clearBehindLayer SFSymbolsPreview4D4D4D" d="M39.0545 0.510344L39.0545-68.3133C44.1602-69.7545 47.9072-74.4279 47.9072-79.9866C47.9072-86.6571 42.4308-92.1334 35.6986-92.1334C29.0281-92.1334 23.5518-86.6571 23.5518-79.9866C23.5518-74.4691 27.2987-69.6927 32.4045-68.3133L32.4045 0.510344C27.2987 1.95151 23.5518 6.62494 23.5518 12.1836C23.5518 18.8541 29.0281 24.3305 35.6986 24.3305C42.3691 24.3305 47.8454 18.8541 47.8454 12.1836C47.9072 6.62494 44.1602 1.95151 39.0545 0.510344ZM32.0959-82.3131C33.3312-84.2689 35.9664-84.9275 37.9222-83.754C39.8779-82.5187 40.5366-79.9452 39.3013-77.9895C38.0659-76.0337 35.4925-75.3751 33.5368-76.5486C31.4781-77.7222 30.9224-80.2545 32.0959-82.3131ZM35.6986 17.907C32.5075 17.907 29.9341 15.2718 29.9341 12.1425C29.9341 8.9514 32.5693 6.37796 35.6986 6.37796C38.8279 6.37796 41.4631 9.01316 41.4631 12.1425C41.5249 15.2718 38.8897 17.907 35.6986 17.907Z"/>
  </g>
  <g id="Thin-L" transform="matrix(1 0 0 1 784.489 1556)">
   <path class="hierarchical-0:primary SFSymbolsPreview212121" d="M116.589-80.6454C116.589-85.7594 112.336-90.0129 107.222-90.0129C102.108-90.0129 97.8545-85.7594 97.8545-80.6454C97.8545-76.4352 100.685-72.89 104.377-71.6753C102.174-58.7258 94.859-36.4894 72.4907-36.4894C44.9589-36.4894 38.1608-9.11429 36.4582 4.4118L40.0674 4.6074C41.7391-7.72656 48.2118-33.0388 72.4907-33.0388C98.4351-33.0388 106.057-57.3442 108.303-71.2903C112.88-71.8276 116.589-75.8917 116.589-80.6454ZM107.222-74.8809C104.093-74.8809 101.457-77.5161 101.457-80.6454C101.457-83.7747 104.093-86.4099 107.222-86.4099C110.351-86.4099 112.986-83.7747 112.986-80.6454C112.986-77.3576 110.357-74.8809 107.222-74.8809Z"/>
   <path class="hierarchical-1:secondary clearBehindLayer SFSymbolsPreview4D4D4D" d="M39.5547 2.56705L39.5547-71.315C43.7711-72.2003 46.9622-75.9287 46.9622-80.4869C46.9622-85.6009 42.7088-89.8544 37.5885-89.8544C32.4745-89.8544 28.2211-85.6009 28.2211-80.4869C28.2211-76.0811 31.4122-72.1941 35.6285-71.315L35.6285 2.56705C31.4122 3.45235 28.2211 7.1808 28.2211 11.7389C28.2211 16.853 32.4745 21.1064 37.5885 21.1064C42.7026 21.1064 46.956 16.853 46.956 11.7389C46.9622 7.1808 43.7711 3.45235 39.5547 2.56705ZM32.0403-80.8679C32.1639-83.8798 34.7991-86.3172 37.811-86.1998C40.8229-86.0762 43.2603-83.4472 43.1368-80.4353C43.0132-77.4234 40.3841-74.986 37.3723-75.1034C34.2018-75.2208 31.9229-77.6975 32.0403-80.8679ZM37.5885 17.3511C34.4531 17.3511 31.824 14.7159 31.824 11.5866C31.824 8.45112 34.4592 5.8221 37.5885 5.8221C40.7178 5.8221 43.353 8.4573 43.353 11.5866C43.3592 14.7159 40.724 17.3511 37.5885 17.3511Z"/>
  </g>
  <g id="Ultralight-L" transform="matrix(1 0 0 1 488.348 1556)">
   <path class="hierarchical-0:primary SFSymbolsPreview212121" d="M113.258-80.9301C113.258-85.247 109.631-88.874 105.314-88.874C100.998-88.874 97.3705-85.247 97.3705-80.9301C97.3705-77.147 100.059-74.0004 103.437-73.0704C101.519-59.8362 94.5174-36.0908 72.0067-36.0908C45.3575-36.0908 39.5274-8.11779 38.0811 4.55416L40.2382 4.6074C41.796-7.81197 48.041-34.1207 72.0067-34.1207C97.5525-34.1207 104.206-59.5081 105.968-72.9416C109.947-73.2797 113.258-76.8312 113.258-80.9301ZM105.314-75.1656C102.185-75.1656 99.5499-77.8008 99.5499-80.9301C99.5499-84.0594 102.185-86.6946 105.314-86.6946C108.444-86.6946 111.079-84.0594 111.079-80.9301C111.079-77.6138 108.421-75.1656 105.314-75.1656Z"/>
   <path class="hierarchical-1:secondary clearBehindLayer SFSymbolsPreview4D4D4D" d="M39.811 3.62049L39.811-72.8524C43.5718-73.453 46.4782-76.6975 46.4782-80.7431C46.4782-85.06 42.8511-88.687 38.5566-88.687C34.2397-88.687 30.6126-85.06 30.6126-80.7431C30.6126-76.9068 33.519-73.4753 37.2799-72.8524L37.2799 3.62049C33.519 4.22107 30.6126 7.46552 30.6126 11.5112C30.6126 15.828 34.2397 19.4551 38.5566 19.4551C42.8734 19.4551 46.5005 15.828 46.5005 11.5112C46.4782 7.46552 43.5718 4.22107 39.811 3.62049ZM32.0119-80.1276C31.566-83.6805 34.2012-87.029 37.7541-87.4525C41.3069-87.8984 44.6554-85.2409 45.1013-81.688C45.5471-78.1352 42.8896-74.7867 39.3368-74.3631C35.5969-73.9396 32.4354-76.3878 32.0119-80.1276ZM38.5566 17.0664C35.4496 17.0664 32.7921 14.4312 32.7921 11.3019C32.7921 8.19488 35.4273 5.53738 38.5566 5.53738C41.6859 5.53738 44.3211 8.17258 44.3211 11.3019C44.2988 14.4312 41.6636 17.0664 38.5566 17.0664Z"/>
  </g>
  <g id="Black-M" transform="matrix(1 0 0 1 2865.2 1126)">
   <path class="hierarchical-0:primary SFSymbolsPreview212121" d="M128.506-63.9234C128.506-77.0714 117.701-87.8765 104.553-87.8765C91.2881-87.8765 80.5999-77.1883 80.5999-63.9234C80.5999-57.4068 83.1763-51.5289 87.394-47.3656C82.2312-45.1157 75.6741-43.2003 68.0824-43.2003C46.3169-43.2003 35.2163-33.9385 29.6291-24.6674L44.4502-17.8181C48.11-22.56 55.0477-27.2092 68.1993-27.2092C85.3503-27.2092 98.2583-33.0469 106.307-40.1097C118.759-40.9223 128.506-51.204 128.506-63.9234ZM104.553-71.1507C108.56-71.1507 111.78-67.9303 111.78-63.9234C111.78-59.9164 108.56-56.696 104.553-56.696C100.546-56.696 97.3257-59.9164 97.3257-63.9234C97.3257-67.9309 100.557-71.1507 104.553-71.1507Z"/>
   <path class="hierarchical-1:secondary clearBehindLayer SFSymbolsPreview4D4D4D" d="M38.6546-29.4619L38.6546-40.8565C48.6904-43.7122 56.022-52.9088 56.022-63.8071C56.022-77.072 45.3337-87.7602 32.0575-87.7602C18.7926-87.7602 8.10437-77.072 8.10437-63.8071C8.10437-52.8969 15.4359-43.7009 25.4718-40.8565L25.4718-29.4619C15.4359-26.6062 8.10437-17.4096 8.10437-6.51128C8.10437 6.75364 18.7926 17.4419 32.0575 17.4419C45.3225 17.4419 56.0107 6.75364 56.0107-6.51128C55.9051-17.2926 48.5735-26.6062 38.6546-29.4619ZM31.9624-71.9305C36.3978-71.9186 39.9596-68.3369 39.9477-63.9128C39.9359-59.4774 36.3542-55.927 31.9188-55.9388C27.4834-55.9507 23.9329-59.5324 23.9448-63.9565C23.9573-68.3806 27.5383-71.9429 31.9624-71.9305ZM31.9406 1.47463C27.517 1.47463 23.9666-2.0871 23.9666-6.49937C23.9666-10.9229 27.5283-14.4734 31.9406-14.4734C36.3529-14.4734 39.9146-10.9116 39.9146-6.49937C39.9259-2.0871 36.3642 1.47463 31.9406 1.47463Z"/>
  </g>
  <g id="Heavy-M" transform="matrix(1 0 0 1 2570.97 1126)">
   <path class="hierarchical-0:primary SFSymbolsPreview212121" d="M122.245-65.2215C122.245-76.8596 112.696-86.4095 101.057-86.4095C89.33-86.4095 79.8694-76.949 79.8694-65.2215C79.8694-59.1206 82.4729-53.6526 86.6286-50.0148C82.0465-46.1632 75.4409-41.8797 65.6686-41.8797C43.2774-41.8797 32.7545-30.2919 27.9631-20.0307L41.1448-14.6446C44.3406-20.452 51.0124-27.8096 65.7579-27.8096C83.9339-27.8096 95.9882-35.8205 102.947-44.1894C113.791-45.073 122.245-54.0942 122.245-65.2215ZM101.057-69.6892C103.547-69.6892 105.525-67.7106 105.525-65.2215C105.525-62.7324 103.547-60.7538 101.057-60.7538C98.5683-60.7538 96.5897-62.7324 96.5897-65.2215C96.5897-67.7056 98.6015-69.6892 101.057-69.6892Z"/>
   <path class="hierarchical-1:secondary clearBehindLayer SFSymbolsPreview4D4D4D" d="M36.5528-24.7829L36.5528-44.8584C45.3671-47.437 51.7868-55.5445 51.7868-65.1272C51.7868-76.8546 42.3263-86.3151 30.5656-86.3151C18.8382-86.3151 9.37764-76.8546 9.37764-65.1272C9.37764-55.5162 15.7974-47.4038 24.6117-44.8584L24.6117-24.7829C15.7974-22.2043 9.37764-14.0969 9.37764-4.5142C9.37764 7.21325 18.8382 16.6738 30.5656 16.6738C42.2931 16.6738 51.7536 7.21325 51.7536-4.5142C51.6975-14.0076 45.2777-22.2043 36.5528-24.7829ZM30.301-72.2256C34.1823-72.3208 37.3852-69.278 37.4804-65.43C37.5755-61.5488 34.5328-58.379 30.6515-58.2839C26.7703-58.1888 23.6006-61.2315 23.5054-65.0795C23.4053-68.9275 26.453-72.1255 30.301-72.2256ZM30.4763 2.66016C26.4999 2.66016 23.3302-0.542822 23.3302-4.48595C23.3302-8.46234 26.5331-11.6321 30.4763-11.6321C34.4194-11.6321 37.6224-8.42908 37.6224-4.48595C37.6556-0.542822 34.4527 2.66016 30.4763 2.66016Z"/>
  </g>
  <g id="Bold-M" transform="matrix(1 0 0 1 2277.02 1126)">
   <path class="hierarchical-0:primary SFSymbolsPreview212121" d="M115.242-66.6737C115.242-76.6228 107.096-84.7684 97.147-84.7684C87.1395-84.7684 79.0523-76.6812 79.0523-66.6737C79.0523-61.0376 81.6861-56.0283 85.7725-52.9783C81.8399-47.3349 75.1801-40.4023 62.9684-40.4023C39.8772-40.4023 30.0007-26.2126 26.0994-14.8438L37.4473-11.0945C40.1239-18.0939 46.4984-28.4811 63.0269-28.4811C82.3495-28.4811 93.4487-38.9232 99.1893-48.7531C108.234-49.7161 115.242-57.3274 115.242-66.6737ZM97.147-68.0543C97.9383-68.0543 98.5277-67.4649 98.5277-66.6737C98.5277-65.8824 97.9383-65.293 97.147-65.293C96.3558-65.293 95.7664-65.8824 95.7664-66.6737C95.7664-67.4536 96.4136-68.0543 97.147-68.0543Z"/>
   <path class="hierarchical-1:secondary clearBehindLayer SFSymbolsPreview4D4D4D" d="M34.2016-19.5489L34.2016-49.3352C41.6494-51.6039 47.0492-58.4929 47.0492-66.6039C47.0492-76.6115 38.9621-84.6986 28.8967-84.6986C18.8891-84.6986 10.802-76.6115 10.802-66.6039C10.802-58.4463 16.2018-51.546 23.6496-49.3352L23.6496-19.5489C16.2018-17.2802 10.802-10.3912 10.802-2.28018C10.802 7.72739 18.8891 15.8145 28.8967 15.8145C38.9042 15.8145 46.9914 7.72739 46.9914-2.28018C46.9907-10.3327 41.5909-17.2802 34.2016-19.5489ZM28.4425-72.5558C31.7038-72.7706 34.5055-70.3307 34.7203-67.1272C34.9351-63.8658 32.4953-61.122 29.2339-60.9072C25.9726-60.6924 23.2287-63.1323 23.0139-66.3358C22.7878-69.5393 25.239-72.3297 28.4425-72.5558ZM28.8382 3.98634C25.362 3.98634 22.6182 1.18467 22.6182-2.23366C22.6182-5.70982 25.4199-8.45366 28.8382-8.45366C32.2565-8.45366 35.0582-5.65199 35.0582-2.23366C35.116 1.18467 32.3144 3.98634 28.8382 3.98634Z"/>
  </g>
  <g id="Semibold-M" transform="matrix(1 0 0 1 1982.21 1126)">
   <path class="hierarchical-0:primary SFSymbolsPreview212121" d="M110.413-67.6748C110.413-76.4595 103.236-83.637 94.4513-83.637C85.6294-83.637 78.489-76.4967 78.489-67.6748C78.489-62.3593 81.1436-57.6661 85.1823-55.0213C81.6975-48.1427 75.0003-39.3838 61.1069-39.3838C37.5332-39.3838 28.1022-23.4004 24.8147-11.268L34.8982-8.64705C37.217-16.4682 43.3865-28.944 61.1441-28.944C81.2572-28.944 91.698-41.0622 96.5987-51.8993C104.403-52.917 110.413-59.5563 110.413-67.6748ZM94.4513-66.9272C94.072-66.9272 93.7037-67.2955 93.7037-67.6748C93.7037-68.054 94.072-68.4223 94.4513-68.4223C94.8305-68.4223 95.1988-68.054 95.1988-67.6748C95.1988-67.2799 94.9053-66.9272 94.4513-66.9272Z"/>
   <path class="hierarchical-1:secondary clearBehindLayer SFSymbolsPreview4D4D4D" d="M32.5806-15.9406L32.5806-52.4214C39.0865-54.4764 43.7831-60.5255 43.7831-67.6219C43.7831-76.4438 36.6428-83.5842 27.7461-83.5842C18.9242-83.5842 11.7839-76.4438 11.7839-67.6219C11.7839-60.4663 16.4805-54.4017 22.9863-52.4214L22.9863-15.9406C16.4805-13.8856 11.7839-7.83652 11.7839-0.74006C11.7839 8.08183 18.9242 15.2222 27.7461 15.2222C36.568 15.2222 43.7083 8.08183 43.7083-0.74006C43.7459-7.79934 39.0493-13.8856 32.5806-15.9406ZM27.1612-72.7834C29.9952-73.0807 32.5202-71.0564 32.8176-68.2972C33.1149-65.4632 31.0906-63.013 28.2566-62.7157C25.4226-62.4184 22.9724-64.4426 22.6751-67.2018C22.3621-69.9611 24.402-72.4704 27.1612-72.7834ZM27.7089 4.9006C24.5776 4.9006 22.1274 2.3756 22.1274-0.680942C22.1274-3.81225 24.6524-6.26249 27.7089-6.26249C30.7655-6.26249 33.2905-3.73748 33.2905-0.680942C33.3652 2.3756 30.8402 4.9006 27.7089 4.9006Z"/>
  </g>
  <g id="Medium-M" transform="matrix(1 0 0 1 1686.95 1126)">
   <path class="hierarchical-0:primary SFSymbolsPreview212121" d="M106.752-68.4338C106.752-76.3357 100.309-82.7791 92.4072-82.7791C84.4843-82.7791 78.0619-76.3567 78.0619-68.4338C78.0619-63.3614 80.7323-58.908 84.7348-56.5704C81.5895-48.7552 74.864-38.6116 59.6954-38.6116C35.7558-38.6116 26.6627-21.2681 23.8405-8.55671L32.9655-6.79132C35.0129-15.2355 41.0269-29.2951 59.7165-29.2951C80.429-29.2951 90.3706-42.684 94.6343-54.2848C101.498-55.3441 106.752-61.2463 106.752-68.4338ZM92.4072-66.0726C91.1404-66.0726 90.046-67.1671 90.046-68.4338C90.046-69.7006 91.1404-70.795 92.4072-70.795C93.674-70.795 94.7684-69.7006 94.7684-68.4338C94.7684-67.1481 93.7616-66.0726 92.4072-66.0726Z"/>
   <path class="hierarchical-1:secondary clearBehindLayer SFSymbolsPreview4D4D4D" d="M31.3516-13.2046L31.3516-54.7616C37.1431-56.6545 41.3066-62.0667 41.3066-68.3939C41.3066-76.3167 34.8842-82.7391 26.8737-82.7391C18.9508-82.7391 12.5284-76.3167 12.5284-68.3939C12.5284-61.998 16.6919-56.5669 22.4834-54.7616L22.4834-13.2046C16.6919-11.3116 12.5284-5.89946 12.5284 0.427723C12.5284 8.35059 18.9508 14.773 26.8737 14.773C34.7966 14.773 41.219 8.35059 41.219 0.427723C41.2856-5.87841 37.1221-11.3116 31.3516-13.2046ZM26.1897-72.956C28.6997-73.3158 31.0149-71.6067 31.3748-69.1844C31.7347-66.6744 30.0255-64.4468 27.5156-64.0869C25.0056-63.7271 22.778-65.4362 22.4181-67.8585C22.0393-70.2809 23.7674-72.5772 26.1897-72.956ZM26.8527 5.59383C23.9828 5.59383 21.7552 3.27861 21.7552 0.496394C21.7552-2.37343 24.0704-4.60105 26.8527-4.60105C29.6349-4.60105 31.9501-2.28582 31.9501 0.496394C32.0377 3.27861 29.7225 5.59383 26.8527 5.59383Z"/>
  </g>
  <g id="Regular-M" transform="matrix(1 0 0 1 1392.12 1126)">
   <path class="hierarchical-0:primary SFSymbolsPreview212121" d="M101.977-69.424C101.977-76.1742 96.4913-81.6602 89.741-81.6602C82.9908-81.6602 77.5048-76.1742 77.5048-69.424C77.5048-64.6685 80.1958-60.5278 84.151-58.5909C81.4486-49.5542 74.6862-37.6043 57.8544-37.6043C33.4375-37.6043 24.7851-18.4868 22.5698-5.02022L30.4444-4.3708C32.1379-13.6277 37.9492-29.7529 57.8544-29.7529C79.3487-29.7529 88.6391-44.7995 92.0721-57.3964C97.709-58.5098 101.977-63.4508 101.977-69.424ZM89.741-64.958C87.3166-64.958 85.275-66.9996 85.275-69.424C85.275-71.8484 87.3166-73.89 89.741-73.89C92.1654-73.89 94.207-71.8484 94.207-69.424C94.207-66.9763 92.2698-64.958 89.741-64.958Z"/>
   <path class="hierarchical-1:secondary clearBehindLayer SFSymbolsPreview4D4D4D" d="M29.7485-9.6359L29.7485-57.8139C34.6084-59.4955 38.0764-64.0769 38.0764-69.4007C38.0764-76.1509 32.5904-81.637 25.7358-81.637C18.9856-81.637 13.4996-76.1509 13.4996-69.4007C13.4996-63.9958 16.9676-59.3912 21.8274-57.8139L21.8274-9.6359C16.9676-7.95425 13.4996-3.37285 13.4996 1.95092C13.4996 8.70113 18.9856 14.1872 25.7358 14.1872C32.486 14.1872 37.972 8.70113 37.972 1.95092C38.0764-3.37285 34.6084-7.95425 29.7485-9.6359ZM24.9226-73.1811C27.0099-73.6226 29.0515-72.3245 29.4929-70.3415C29.9344-68.2542 28.6363-66.317 26.549-65.8755C24.4617-65.4341 22.5245-66.7322 22.083-68.7151C21.6183-70.698 22.9396-72.7164 24.9226-73.1811ZM25.7358 6.49805C23.207 6.49805 21.2698 4.45645 21.2698 2.03205C21.2698-0.496716 23.3114-2.43395 25.7358-2.43395C28.1602-2.43395 30.2018-0.392352 30.2018 2.03205C30.3062 4.45645 28.2646 6.49805 25.7358 6.49805Z"/>
  </g>
  <g id="Light-M" transform="matrix(1 0 0 1 1096.17 1126)">
   <path class="hierarchical-0:primary SFSymbolsPreview212121" d="M97.5686-69.8008C97.5686-75.4959 92.9116-80.1529 87.2164-80.1529C81.5213-80.1529 76.8642-75.4959 76.8642-69.8008C76.8642-65.6105 79.3668-61.9973 82.9076-60.4373C80.5819-51.0237 74.234-37.0768 57.2138-37.0768C33.965-37.0768 26.5938-17.1679 24.7176-4.83182L30.6705-4.3708C32.2132-13.7407 37.7231-31.1848 57.2138-31.1848C78.1806-31.1848 86.1898-47.6632 88.9823-59.5819C93.8278-60.4315 97.5686-64.6942 97.5686-69.8008ZM87.2164-65.3348C84.792-65.3348 82.7504-67.3764 82.7504-69.8008C82.7504-72.2252 84.792-74.2668 87.2164-74.2668C89.6408-74.2668 91.6824-72.2252 91.6824-69.8008C91.6824-67.3154 89.7075-65.3348 87.2164-65.3348Z"/>
   <path class="hierarchical-1:secondary clearBehindLayer SFSymbolsPreview4D4D4D" d="M30.0876-8.2417L30.0876-59.8487C34.3446-61.1535 37.4358-65.0943 37.4358-69.7398C37.4358-75.435 32.7788-80.092 27.017-80.092C21.3218-80.092 16.6648-75.435 16.6648-69.7398C16.6648-65.0886 19.756-61.0868 24.0129-59.8487L24.0129-8.2417C19.756-6.93686 16.6648-2.99604 16.6648 1.64947C16.6648 7.34461 21.3218 12.0017 27.017 12.0017C32.7121 12.0017 37.3691 7.34461 37.3691 1.64947C37.4358-2.99604 34.3446-6.93686 30.0876-8.2417ZM24.8849-72.2014C26.2186-73.3588 28.2602-73.2665 29.4176-71.9995C30.575-70.6658 30.4827-68.6909 29.149-67.5335C27.8154-66.3761 25.8404-66.4684 24.683-67.7354C23.4647-69.0024 23.6179-70.983 24.8849-72.2014ZM27.017 6.12124C24.5259 6.12124 22.551 4.07964 22.551 1.65524C22.551-0.835847 24.5926-2.81076 27.017-2.81076C29.4414-2.81076 31.483-0.769163 31.483 1.65524C31.5496 4.07964 29.508 6.12124 27.017 6.12124Z"/>
  </g>
  <g id="Thin-M" transform="matrix(1 0 0 1 800.452 1126)">
   <path class="hierarchical-0:primary SFSymbolsPreview212121" d="M91.7377-70.2991C91.7377-74.5989 88.1771-78.1595 83.8774-78.1595C79.5776-78.1595 76.017-74.5989 76.017-70.2991C76.017-66.8564 78.2704-63.941 81.263-62.8793C79.4357-52.9674 73.636-36.3791 56.3666-36.3791C34.6627-36.3791 28.9859-15.4237 27.5583-4.58264L30.9695-4.3708C32.3129-13.8903 37.4241-33.0786 56.3666-33.0786C76.6357-33.0786 82.9505-51.4508 84.8957-62.4725C88.6947-62.9732 91.7377-66.3388 91.7377-70.2991ZM83.8774-65.8331C81.453-65.8331 79.4114-67.8747 79.4114-70.2991C79.4114-72.7235 81.453-74.7651 83.8774-74.7651C86.3018-74.7651 88.3434-72.7235 88.3434-70.2991C88.3434-67.764 86.3186-65.8331 83.8774-65.8331Z"/>
   <path class="hierarchical-1:secondary clearBehindLayer SFSymbolsPreview4D4D4D" d="M30.5362-6.39775L30.5362-62.5398C33.9957-63.3463 36.5886-66.4399 36.5886-70.1884C36.5886-74.4881 33.028-78.0487 28.7114-78.0487C24.4117-78.0487 20.851-74.4881 20.851-70.1884C20.851-66.5338 23.4439-63.3295 26.9035-62.5398L26.9035-6.39775C23.4439-5.59128 20.851-2.49767 20.851 1.25078C20.851 5.5505 24.4117 9.11114 28.7114 9.11114C33.0111 9.11114 36.5718 5.5505 36.5718 1.25078C36.5886-2.49767 33.9957-5.59128 30.5362-6.39775ZM24.835-70.9056C25.172-73.0099 27.2136-74.5124 29.3179-74.1923C31.4222-73.8554 32.9247-71.8306 32.5877-69.7263C32.2508-67.622 30.226-66.1195 28.1217-66.4396C25.9067-66.7597 24.5149-68.6906 24.835-70.9056ZM28.7114 5.62287C26.2701 5.62287 24.2454 3.58127 24.2454 1.15687C24.2454-1.28437 26.287-3.30913 28.7114-3.30913C31.1358-3.30913 33.1774-1.26753 33.1774 1.15687C33.1942 3.58127 31.1526 5.62287 28.7114 5.62287Z"/>
  </g>
  <g id="Ultralight-M" transform="matrix(1 0 0 1 504.251 1126)">
   <path class="hierarchical-0:primary SFSymbolsPreview212121" d="M88.7512-70.5544C88.7512-74.1394 85.7521-77.1385 82.1671-77.1385C78.5821-77.1385 75.5831-74.1394 75.5831-70.5544C75.5831-67.4946 77.7089-64.9365 80.4206-64.1301C78.8486-53.9629 73.3297-36.0217 55.9327-36.0217C35.0201-36.0217 30.2112-14.5302 29.0133-4.45501L31.1227-4.3708C32.364-13.9668 37.2709-34.0486 55.9327-34.0486C75.8444-34.0486 81.2913-53.3908 82.8026-63.953C86.0655-64.275 88.7512-67.1812 88.7512-70.5544ZM82.1671-66.0884C79.7427-66.0884 77.7011-68.13 77.7011-70.5544C77.7011-72.9788 79.7427-75.0204 82.1671-75.0204C84.5915-75.0204 86.6331-72.9788 86.6331-70.5544C86.6331-67.9937 84.5829-66.0884 82.1671-66.0884Z"/>
   <path class="hierarchical-1:secondary clearBehindLayer SFSymbolsPreview4D4D4D" d="M30.7659-5.45329L30.7659-63.9182C33.817-64.4695 36.1547-67.1291 36.1547-70.4181C36.1547-74.0031 33.1556-77.0022 29.5793-77.0022C25.9943-77.0022 22.9952-74.0031 22.9952-70.4181C22.9952-67.2741 25.3328-64.4781 28.384-63.9182L28.384-5.45329C25.3328-4.90208 22.9952-2.24241 22.9952 1.04657C22.9952 4.63157 25.9943 7.63064 29.5793 7.63064C33.1643 7.63064 36.1633 4.63157 36.1633 1.04657C36.1547-2.24241 33.817-4.90208 30.7659-5.45329ZM24.8095-70.242C24.6359-72.8312 26.6775-75.1506 29.2668-75.3155C31.8561-75.489 34.1755-73.4388 34.349-70.8495C34.5226-68.2602 32.4723-65.9408 29.883-65.776C27.1575-65.6111 24.9744-67.5164 24.8095-70.242ZM29.5793 5.36761C27.1636 5.36761 25.1133 3.32601 25.1133 0.901614C25.1133-1.51411 27.1549-3.56439 29.5793-3.56439C32.0037-3.56439 34.0453-1.52279 34.0453 0.901614C34.0366 3.32601 31.995 5.36761 29.5793 5.36761Z"/>
  </g>
  <g id="Black-S" transform="matrix(1 0 0 1 2879.25 696)">
   <path class="hierarchical-0:primary SFSymbolsPreview212121" d="M102.35-57.35C102.35-68.05 93.55-76.85 82.85-76.85C72.05-76.85 63.35-68.15 63.35-57.35C63.35-52.15 65.35-47.45 68.65-44.05C64.45-42.75 59.35-41.85 54.05-41.85C37.25-41.85 28.45-35.25 23.85-28.35L35.85-22.55C38.85-25.95 44.35-28.85 54.15-28.85C67.25-28.85 77.55-32.85 84.15-37.95C94.35-38.55 102.35-46.95 102.35-57.35ZM82.85-63.85C86.45-63.85 89.35-60.95 89.35-57.35C89.35-53.75 86.45-50.85 82.85-50.85C79.25-50.85 76.35-53.75 76.35-57.35C76.35-60.95 79.25-63.85 82.85-63.85Z"/>
   <path class="hierarchical-1:secondary clearBehindLayer SFSymbolsPreview4D4D4D" d="M30.95-32.05L30.95-38.55C39.15-40.85 45.15-48.35 45.15-57.25C45.15-68.05 36.45-76.75 25.65-76.75C14.85-76.75 6.15-68.05 6.15-57.25C6.15-48.35 12.15-40.85 20.35-38.55L20.35-32.05C12.15-29.75 6.15-22.25 6.15-13.35C6.15-2.55 14.85 6.15 25.65 6.15C36.45 6.15 45.15-2.55 45.15-13.35C45.05-22.15 39.05-29.75 30.95-32.05ZM25.55-63.85C29.15-63.85 32.05-60.95 32.05-57.35C32.05-53.75 29.15-50.85 25.55-50.85C21.95-50.85 19.05-53.75 19.05-57.35C19.05-60.95 21.95-63.85 25.55-63.85ZM25.55-6.85C21.95-6.85 19.05-9.75 19.05-13.35C19.05-16.95 21.95-19.85 25.55-19.85C29.15-19.85 32.05-16.95 32.05-13.35C32.05-9.75 29.15-6.85 25.55-6.85Z"/>
  </g>
  <g id="Heavy-S" transform="matrix(1 0 0 1 2584.56 696)">
   <path class="hierarchical-0:primary SFSymbolsPreview212121" d="M97.5588-58.4121C97.5588-67.9556 89.7265-75.7879 80.183-75.7879C70.5631-75.7879 62.8072-68.032 62.8072-58.4121C62.8072-53.4953 64.8544-49.0785 68.1544-46.0798C64.4028-43.4581 59.2084-40.7879 52.0674-40.7879C34.583-40.7879 26.1134-32.2997 22.1506-24.4084L32.9941-19.8358C35.6165-24.1326 40.9277-29.1804 52.1438-29.1804C66.1879-29.1804 75.9215-34.8562 81.6718-41.1599C90.5973-41.8543 97.5588-49.263 97.5588-58.4121ZM80.183-62.5519C82.4848-62.5519 84.3228-60.714 84.3228-58.4121C84.3228-56.1102 82.4848-54.2723 80.183-54.2723C77.8811-54.2723 76.0432-56.1102 76.0432-58.4121C76.0432-60.714 77.9047-62.5519 80.183-62.5519Z"/>
   <path class="hierarchical-1:secondary clearBehindLayer SFSymbolsPreview4D4D4D" d="M29.109-28.2265L29.109-41.7127C36.3413-43.8239 41.6097-50.4742 41.6097-58.3357C41.6097-67.9556 33.8538-75.7115 24.2103-75.7115C14.5904-75.7115 6.83446-67.9556 6.83446-58.3357C6.83446-50.4506 12.1028-43.8003 19.3351-41.7127L19.3351-28.2265C12.1028-26.1153 6.83446-19.465 6.83446-11.6034C6.83446-1.98355 14.5904 5.77237 24.2103 5.77237C33.8302 5.77237 41.5861-1.98355 41.5861-11.6034C41.5333-19.3886 36.265-26.1153 29.109-28.2265ZM24.1339-64.2276C27.3562-64.2276 29.9494-61.6345 29.9494-58.4357C29.9494-55.2133 27.3562-52.6438 24.1339-52.6438C20.9115-52.6438 18.3419-55.2369 18.3419-58.4357C18.3419-61.6345 20.9351-64.2276 24.1339-64.2276ZM24.1339-5.78791C20.9115-5.78791 18.3419-8.38108 18.3419-11.5798C18.3419-14.8022 20.9351-17.3718 24.1339-17.3718C27.3326-17.3718 29.9258-14.7786 29.9258-11.5798C29.9494-8.38108 27.3562-5.78791 24.1339-5.78791Z"/>
  </g>
  <g id="Bold-S" transform="matrix(1 0 0 1 2290.1 696)">
   <path class="hierarchical-0:primary SFSymbolsPreview212121" d="M92.2-59.6C92.2-67.85 85.45-74.6 77.2-74.6C68.9-74.6 62.2-67.9 62.2-59.6C62.2-55 64.3-50.9 67.6-48.35C64.35-44.25 59.05-39.6 49.85-39.6C31.6-39.6 23.5-29 20.25-20L29.8-16.8C32-22.1 37.1-29.55 49.9-29.55C65-29.55 74.1-37.1 78.9-44.75C86.4-45.55 92.2-51.85 92.2-59.6ZM77.2-61.1C78.05-61.1 78.7-60.45 78.7-59.6C78.7-58.75 78.05-58.1 77.2-58.1C76.35-58.1 75.7-58.75 75.7-59.6C75.7-60.45 76.4-61.1 77.2-61.1Z"/>
   <path class="hierarchical-1:secondary clearBehindLayer SFSymbolsPreview4D4D4D" d="M27.05-23.95L27.05-45.25C33.2-47.15 37.65-52.85 37.65-59.55C37.65-67.85 30.95-74.55 22.6-74.55C14.3-74.55 7.6-67.85 7.6-59.55C7.6-52.8 12.05-47.1 18.2-45.25L18.2-23.95C12.05-22.05 7.6-16.35 7.6-9.65C7.6-1.35 14.3 5.35 22.6 5.35C30.9 5.35 37.6-1.35 37.6-9.65C37.6-16.3 33.15-22.05 27.05-23.95ZM22.55-64.65C25.35-64.65 27.6-62.4 27.6-59.65C27.6-56.85 25.35-54.65 22.55-54.65C19.75-54.65 17.55-56.9 17.55-59.65C17.55-62.4 19.8-64.65 22.55-64.65ZM22.55-4.6C19.75-4.6 17.55-6.85 17.55-9.6C17.55-12.4 19.8-14.6 22.55-14.6C25.3-14.6 27.55-12.35 27.55-9.6C27.6-6.85 25.35-4.6 22.55-4.6Z"/>
  </g>
  <g id="Semibold-S" transform="matrix(1 0 0 1 1994.95 696)">
   <path class="hierarchical-0:primary SFSymbolsPreview212121" d="M88.5054-60.419C88.5054-67.7772 82.5016-73.781 75.1434-73.781C67.7534-73.781 61.7814-67.809 61.7814-60.419C61.7814-56.0374 63.9178-52.1558 67.2178-49.9152C64.3136-44.796 58.9408-38.781 48.3212-38.781C29.5434-38.781 21.6982-26.725 18.9396-16.9606L27.5978-14.707C29.5066-20.6986 34.461-29.8048 48.353-29.8048C64.181-29.8048 72.8442-38.647 76.989-47.2252C83.5062-48.098 88.5054-53.6336 88.5054-60.419ZM75.1434-60.099C74.9924-60.099 74.8234-60.268 74.8234-60.419C74.8234-60.57 74.9924-60.739 75.1434-60.739C75.2944-60.739 75.4634-60.57 75.4634-60.419C75.4634-60.268 75.3626-60.099 75.1434-60.099Z"/>
   <path class="hierarchical-1:secondary clearBehindLayer SFSymbolsPreview4D4D4D" d="M25.6304-21.0016L25.6304-47.6888C31.0342-49.4432 34.92-54.488 34.92-60.3872C34.92-67.7772 28.948-73.7492 21.4898-73.7492C14.0998-73.7492 8.1278-67.7772 8.1278-60.3872C8.1278-54.4198 12.0136-49.375 17.4174-47.6888L17.4174-21.0016C12.0136-19.2472 8.1278-14.2024 8.1278-8.3032C8.1278-0.9132 14.0998 5.0588 21.4898 5.0588C28.8798 5.0588 34.8518-0.9132 34.8518-8.3032C34.8882-14.1706 31.0024-19.2472 25.6304-21.0016ZM21.458-64.9412C23.9668-64.9412 25.9802-62.9278 25.9802-60.4872C25.9802-57.9784 23.9668-56.0332 21.458-56.0332C18.9492-56.0332 17.004-58.0466 17.004-60.4872C17.004-62.9278 19.0174-64.9412 21.458-64.9412ZM21.458-3.781C18.9492-3.781 17.004-5.7944 17.004-8.235C17.004-10.7438 19.0174-12.689 21.458-12.689C23.8986-12.689 25.912-10.6756 25.912-8.235C25.9802-5.7944 23.9668-3.781 21.458-3.781Z"/>
  </g>
  <g id="Medium-S" transform="matrix(1 0 0 1 1699.42 696)">
   <path class="hierarchical-0:primary SFSymbolsPreview212121" d="M85.704-61.04C85.704-67.722 80.266-73.16 73.584-73.16C66.884-73.16 61.464-67.74 61.464-61.04C61.464-56.824 63.628-53.108 66.928-51.102C64.286-45.21 58.858-38.16 47.162-38.16C27.984-38.16 20.332-25 17.946-14.656L25.928-13.12C27.616-19.636 32.46-29.998 47.18-29.998C63.56-29.998 71.892-39.82 75.54-49.102C81.312-50.03 85.704-54.986 85.704-61.04ZM73.584-59.34C72.674-59.34 71.884-60.13 71.884-61.04C71.884-61.95 72.674-62.74 73.584-62.74C74.494-62.74 75.284-61.95 75.284-61.04C75.284-60.13 74.576-59.34 73.584-59.34Z"/>
   <path class="hierarchical-1:secondary clearBehindLayer SFSymbolsPreview4D4D4D" d="M24.554-18.766L24.554-49.538C29.392-51.182 32.85-55.73 32.85-61.022C32.85-67.722 27.43-73.142 20.648-73.142C13.948-73.142 8.528-67.722 8.528-61.022C8.528-55.648 11.986-51.1 16.824-49.538L16.824-18.766C11.986-17.122 8.528-12.574 8.528-7.282C8.528-0.582 13.948 4.838 20.648 4.838C27.348 4.838 32.768-0.582 32.768-7.282C32.832-12.556 29.374-17.122 24.554-18.766ZM20.63-65.162C22.918-65.162 24.752-63.328 24.752-61.122C24.752-58.834 22.918-57.082 20.63-57.082C18.342-57.082 16.59-58.916 16.59-61.122C16.59-63.328 18.424-65.162 20.63-65.162ZM20.63-3.16C18.342-3.16 16.59-4.994 16.59-7.2C16.59-9.488 18.424-11.24 20.63-11.24C22.836-11.24 24.67-9.406 24.67-7.2C24.752-4.994 22.918-3.16 20.63-3.16Z"/>
  </g>
  <g id="Regular-S" transform="matrix(1 0 0 1 1404.24 696)">
   <path class="hierarchical-0:primary SFSymbolsPreview212121" d="M82.05-61.85C82.05-67.65 77.35-72.35 71.55-72.35C65.75-72.35 61.05-67.65 61.05-61.85C61.05-57.85 63.25-54.35 66.55-52.65C64.25-45.75 58.75-37.35 45.65-37.35C25.95-37.35 18.55-22.75 16.65-11.65L23.75-11.05C25.15-18.25 29.85-30.25 45.65-30.25C62.75-30.25 70.65-41.35 73.65-51.55C78.45-52.55 82.05-56.75 82.05-61.85ZM71.55-58.35C69.65-58.35 68.05-59.95 68.05-61.85C68.05-63.75 69.65-65.35 71.55-65.35C73.45-65.35 75.05-63.75 75.05-61.85C75.05-59.95 73.55-58.35 71.55-58.35Z"/>
   <path class="hierarchical-1:secondary clearBehindLayer SFSymbolsPreview4D4D4D" d="M23.15-15.85L23.15-51.95C27.25-53.45 30.15-57.35 30.15-61.85C30.15-67.65 25.45-72.35 19.55-72.35C13.75-72.35 9.05-67.65 9.05-61.85C9.05-57.25 11.95-53.35 16.05-51.95L16.05-15.85C11.95-14.35 9.05-10.45 9.05-5.95C9.05-0.15 13.75 4.55 19.55 4.55C25.35 4.55 30.05-0.15 30.05-5.95C30.15-10.45 27.25-14.35 23.15-15.85ZM19.55-65.45C21.55-65.45 23.15-63.85 23.15-61.95C23.15-59.95 21.55-58.45 19.55-58.45C17.55-58.45 16.05-60.05 16.05-61.95C16.05-63.85 17.65-65.45 19.55-65.45ZM19.55-2.35C17.55-2.35 16.05-3.95 16.05-5.85C16.05-7.85 17.65-9.35 19.55-9.35C21.45-9.35 23.05-7.75 23.05-5.85C23.15-3.95 21.55-2.35 19.55-2.35Z"/>
  </g>
  <g id="Light-S" transform="matrix(1 0 0 1 1108.2 696)">
   <path class="hierarchical-0:primary SFSymbolsPreview212121" d="M78.15-62.1833C78.15-67.05 74.1833-71.0167 69.3167-71.0167C64.45-71.0167 60.4833-67.05 60.4833-62.1833C60.4833-58.6833 62.5167-55.65 65.45-54.2833C63.4833-47.05 58.35-36.8833 45.0833-36.8833C26.4167-36.8833 20.15-21.5833 18.55-11.4833L23.95-11.05C25.2167-18.35 29.65-31.5167 45.0833-31.5167C61.7167-31.5167 68.4833-43.8833 70.9167-53.4833C75.0167-54.25 78.15-57.85 78.15-62.1833ZM69.3167-58.6833C67.4167-58.6833 65.8167-60.2833 65.8167-62.1833C65.8167-64.0833 67.4167-65.6833 69.3167-65.6833C71.2167-65.6833 72.8167-64.0833 72.8167-62.1833C72.8167-60.25 71.2833-58.6833 69.3167-58.6833Z"/>
   <path class="hierarchical-1:secondary clearBehindLayer SFSymbolsPreview4D4D4D" d="M23.45-14.6167L23.45-53.75C27.0167-54.9167 29.5833-58.25 29.5833-62.15C29.5833-67.0167 25.6167-70.9833 20.6833-70.9833C15.8167-70.9833 11.85-67.0167 11.85-62.15C11.85-58.2167 14.4167-54.85 17.9833-53.75L17.9833-14.6167C14.4167-13.45 11.85-10.1167 11.85-6.21667C11.85-1.35 15.8167 2.61667 20.6833 2.61667C25.55 2.61667 29.5167-1.35 29.5167-6.21667C29.5833-10.1167 27.0167-13.45 23.45-14.6167ZM19.5167-64.5833C20.85-65.2167 22.45-64.6833 23.0833-63.4167C23.7167-62.0833 23.1833-60.55 21.85-59.9167C20.5167-59.2833 18.9833-59.8167 18.35-61.0833C17.6833-62.35 18.25-63.9167 19.5167-64.5833ZM20.6833-2.68333C18.7167-2.68333 17.1833-4.28333 17.1833-6.18333C17.1833-8.15 18.7833-9.68333 20.6833-9.68333C22.5833-9.68333 24.1833-8.08333 24.1833-6.18333C24.25-4.28333 22.65-2.68333 20.6833-2.68333Z"/>
  </g>
  <g id="Thin-S" transform="matrix(1 0 0 1 812.371 696)">
   <path class="hierarchical-0:primary SFSymbolsPreview212121" d="M72.9919-62.6242C72.9919-66.2565 69.9952-69.2532 66.3629-69.2532C62.7306-69.2532 59.7339-66.2565 59.7339-62.6242C59.7339-59.7855 61.5468-57.3694 63.9952-56.4435C62.4694-48.7694 57.821-36.2661 44.3339-36.2661C27.0339-36.2661 22.2661-20.0403 21.0629-11.2629L24.2145-11.05C25.3048-18.4823 29.3855-33.1919 44.3339-33.1919C60.35-33.1919 65.6177-47.2339 67.3016-56.0403C70.4758-56.4984 72.9919-59.3048 72.9919-62.6242ZM66.3629-59.1242C64.4629-59.1242 62.8629-60.7242 62.8629-62.6242C62.8629-64.5242 64.4629-66.1242 66.3629-66.1242C68.2629-66.1242 69.8629-64.5242 69.8629-62.6242C69.8629-60.6468 68.2855-59.1242 66.3629-59.1242Z"/>
   <path class="hierarchical-1:secondary clearBehindLayer SFSymbolsPreview4D4D4D" d="M23.8468-12.9855L23.8468-56.1306C26.7081-56.8565 28.8339-59.4403 28.8339-62.5468C28.8339-66.179 25.8371-69.1758 22.1823-69.1758C18.55-69.1758 15.5532-66.179 15.5532-62.5468C15.5532-59.4952 17.679-56.8339 20.5403-56.1306L20.5403-12.9855C17.679-12.2597 15.5532-9.67581 15.5532-6.56935C15.5532-2.9371 18.55 0.0596774 22.1823 0.0596774C25.8145 0.0596774 28.8113-2.9371 28.8113-6.56935C28.8339-9.67581 26.7081-12.2597 23.8468-12.9855ZM19.4726-63.4371C19.9242-64.9081 21.5242-65.7855 22.9952-65.3565C24.4661-64.9048 25.3435-63.3274 24.8919-61.8565C24.4403-60.3855 22.8629-59.5081 21.3919-59.9371C19.8435-60.3661 19.0435-61.8887 19.4726-63.4371ZM22.1823-3.12419C20.2597-3.12419 18.6823-4.72419 18.6823-6.62419C18.6823-8.54677 20.2823-10.1242 22.1823-10.1242C24.0823-10.1242 25.6823-8.52419 25.6823-6.62419C25.7048-4.72419 24.1048-3.12419 22.1823-3.12419Z"/>
  </g>
  <g id="Ultralight-S" transform="matrix(1 0 0 1 516.111 696)">
   <path class="hierarchical-0:primary SFSymbolsPreview212121" d="M70.35-62.85C70.35-65.85 67.85-68.35 64.85-68.35C61.85-68.35 59.35-65.85 59.35-62.85C59.35-60.35 61.05-58.25 63.25-57.55C61.95-49.65 57.55-35.95 43.95-35.95C27.35-35.95 23.35-19.25 22.35-11.15L24.35-11.05C25.35-18.55 29.25-34.05 43.95-34.05C59.65-34.05 64.15-48.95 65.45-57.35C68.15-57.65 70.35-60.05 70.35-62.85ZM64.85-59.35C62.95-59.35 61.35-60.95 61.35-62.85C61.35-64.75 62.95-66.35 64.85-66.35C66.75-66.35 68.35-64.75 68.35-62.85C68.35-60.85 66.75-59.35 64.85-59.35Z"/>
   <path class="hierarchical-1:secondary clearBehindLayer SFSymbolsPreview4D4D4D" d="M24.05-12.15L24.05-57.35C26.55-57.85 28.45-60.05 28.45-62.75C28.45-65.75 25.95-68.25 22.95-68.25C19.95-68.25 17.45-65.75 17.45-62.75C17.45-60.15 19.35-57.85 21.85-57.35L21.85-12.15C19.35-11.65 17.45-9.45 17.45-6.75C17.45-3.75 19.95-1.25 22.95-1.25C25.95-1.25 28.45-3.75 28.45-6.75C28.45-9.45 26.55-11.65 24.05-12.15ZM19.45-62.85C19.45-64.75 21.05-66.35 22.95-66.35C24.85-66.35 26.45-64.75 26.45-62.85C26.45-60.95 24.85-59.35 22.95-59.35C20.95-59.35 19.45-60.85 19.45-62.85ZM22.95-3.35C21.05-3.35 19.45-4.95 19.45-6.85C19.45-8.75 21.05-10.35 22.95-10.35C24.85-10.35 26.45-8.75 26.45-6.85C26.45-4.95 24.85-3.35 22.95-3.35Z"/>
  </g>
 </g>
</svg>
